#N canvas 0 23 2560 1395 12;
#X text 1045 57 BUT 1_ CLOCK;
#X obj 1057 116 bng 15 250 50 0 empty empty empty 17 7 0 10 -262144
-1 -1;
#X obj 1020 220 bng 15 250 50 0 empty empty empty 17 7 0 10 -262144
-1 -1;
#X obj 1021 244 s clock;
#X obj 613 136 hsl 128 15 0 1 0 0 empty empty empty -2 -8 0 10 -262144
-1 -1 0 1;
#X text 596 80 POT C;
#X text 190 78 POT A;
#X text 410 81 POT B;
#X text 1262 82 BUT 2_;
#X obj 207 145 hsl 128 15 0 1 0 0 empty empty empty -2 -8 0 10 -262144
-1 -1 0 1;
#X obj 406 140 hsl 128 15 0 1 0 0 empty empty empty -2 -8 0 10 -262144
-1 -1 0 1;
#X text 1206 319 GATE OUT;
#X obj 227 396 hsl 128 15 10 0 0 0 empty empty DensityBass -2 -8 0
10 -262144 -1 -1 12700 1;
#X floatatom 309 444 5 0 0 0 - - -;
#X obj 69 372 r clock;
#X obj 193 338 loadbang;
#X obj 1095 560 +;
#X obj 1095 585 mtof;
#X obj 20 56 tgl 15 0 empty empty empty 17 7 0 10 -262144 -1 -1 1 1
;
#X text 42 54 audio ON/OFF;
#X msg 20 78 \; pd dsp \$1;
#X floatatom 1095 610 7 0 0 0 - - -;
#X obj 1161 546 nbx 5 14 0 127 0 1 empty empty root_note 0 -8 0 10
-260097 -1 -1 44 256;
#X obj 20 27 loadbang;
#X obj 1101 879 *~;
#X floatatom 417 422 5 0 0 0 - - -;
#X obj 411 503 hsl 128 15 0 100 0 0 empty empty empty -2 -8 0 10 -262144
-1 -1 0 1;
#N canvas 1509 628 738 536 filter 0;
#X floatatom 226 247 5 0 0 0 - - -;
#X obj 124 322 lop~;
#X obj 288 18 inlet;
#X obj 126 492 outlet~;
#X obj 111 193 inlet~;
#X obj 224 177 * 3000;
#X connect 0 0 1 1;
#X connect 1 0 3 0;
#X connect 2 0 5 0;
#X connect 4 0 1 0;
#X connect 5 0 0 0;
#X restore 1093 751 pd filter;
#X obj 832 140 hsl 128 15 0 1 0 0 empty empty empty -2 -8 0 10 -4034
-1 -1 6350 1;
#X text 764 73 Filter LP->HP;
#X obj 822 192 s filterFreq;
#X obj 1216 698 r filterFreq;
#X obj 916 84 loadbang;
#X msg 917 107 0.5;
#N canvas 662 80 1898 1313 scales 0;
#X obj 314 32 inlet;
#X obj 450 295 nbx 4 16 -1e+37 1e+37 0 0 empty empty empty 0 -8 0 12
-262130 -4160 -1 6 256;
#N canvas 0 0 450 300 (subpatch) 0;
#X array scale 15 float 3;
#A 0 0 2 4 5 7 9 11 12 14 16 17 19 21 23 24;
#X coords 0 24 15 0 200 140 1;
#X restore 449 351 graph;
#X obj 191 209 nbx 5 14 0 7 0 1 empty empty select_scale 0 -8 0 10
-260097 -1 -1 6 256;
#X msg 680 365 \; scale 0 0 2 4 5 7 9 11 12 14 16 17 19 21 23 24 \;
;
#X obj 453 313 hsl 195 15 0 15 0 0 empty empty empty -2 -8 0 10 -258113
-4032 -1 7760 1;
#X obj 122 279 +;
#X obj 122 312 tabread scale;
#X msg 188 238 set \$1;
#X msg 188 262 6;
#X obj 149 217 sel 0;
#X obj 122 182 t f f;
#X obj 680 324 loadbang;
#X text 264 218 <-- 0 = ionian \, 1 = dorian \, 2 = phrygisch \, 3
= lydian \, 4 = mixolydian \, 5 = aeolian \, 6 = locrian;
#X obj 188 168 loadbang;
#X obj 122 156 wrap 8;
#N canvas 0 23 450 300 count 0;
#X obj 51 24 inlet;
#X obj 63 144 f 0;
#X obj 64 210 + 1;
#X msg 75 108 0;
#X obj 41 246 outlet;
#X obj 44 66 route reset;
#X msg 13 109 bang;
#X obj 206 35 inlet;
#X obj 66 177 t f f;
#X obj 154 136 sel 0;
#X msg 182 172 set \$1;
#X msg 181 198 2;
#X obj 208 113 + 1;
#X obj 99 144 mod 8;
#X connect 0 0 5 0;
#X connect 1 0 4 0;
#X connect 1 0 8 0;
#X connect 2 0 13 0;
#X connect 3 0 1 1;
#X connect 5 0 3 0;
#X connect 5 1 6 0;
#X connect 6 0 1 0;
#X connect 7 0 12 0;
#X connect 8 0 2 0;
#X connect 8 1 9 0;
#X connect 9 0 11 0;
#X connect 10 0 11 0;
#X connect 11 0 2 1;
#X connect 12 0 10 0;
#X connect 13 0 1 1;
#X restore 121 132 pd count 8;
#X obj 122 110 metro 50;
#X obj 127 49 loadbang;
#X obj 194 45 loadbang;
#X obj 134 367 outlet;
#X msg 94 77 1;
#X msg 189 77 1;
#X connect 0 0 3 0;
#X connect 1 0 5 0;
#X connect 3 0 8 0;
#X connect 6 0 1 0;
#X connect 6 0 7 0;
#X connect 7 0 20 0;
#X connect 8 0 9 0;
#X connect 9 0 6 1;
#X connect 10 0 9 0;
#X connect 11 0 6 0;
#X connect 11 1 10 0;
#X connect 12 0 4 0;
#X connect 14 0 3 0;
#X connect 15 0 11 0;
#X connect 16 0 15 0;
#X connect 17 0 16 0;
#X connect 18 0 21 0;
#X connect 19 0 22 0;
#X connect 21 0 17 0;
#X connect 22 0 16 1;
#X restore 567 231 pd scales;
#X obj 376 220 s density2;
#X obj 164 242 s density1;
#X floatatom 439 480 5 0 0 0 - - -;
#X obj 128 574 s triggerBass;
#X obj 407 344 r triggerBass;
#X obj 724 394 hsl 128 15 10 0 0 0 empty empty DensityLead -2 -8 0
10 -262144 -1 -1 12700 1;
#X floatatom 776 451 5 0 0 0 - - -;
#X obj 734 426 int;
#X obj 700 332 loadbang;
#X obj 691 583 s triggerLead;
#X floatatom 917 400 5 0 0 0 - - -;
#X obj 911 481 hsl 128 15 0 100 0 0 empty empty empty -2 -8 0 10 -262144
-1 -1 0 1;
#X floatatom 939 458 5 0 0 0 - - -;
#X obj 899 338 r triggerLead;
#X obj 408 520 s noteBass;
#X obj 1232 509 r noteBass;
#X obj 907 498 s noteLead;
#X obj 1480 506 r noteLead;
#X obj 567 260 s scale;
#X obj 1093 505 r scale;
#X obj 1221 1262 dac~;
#X obj 1149 817 r~ envelopeBass;
#X obj 163 752 s~ envelopeBass;
#X obj 1404 816 r~ envelopeLead;
#X obj 661 749 s~ envelopeLead;
#X obj 1095 637 phasor~;
#X obj 1157 149 tgl 15 0 empty empty empty 17 7 0 10 -262144 -1 -1
0 1;
#X obj 905 426 + 60;
#X floatatom 114 439 5 0 0 0 - - -;
#X obj 70 482 +;
#X obj 80 538 bng 15 250 50 0 empty empty empty 17 7 0 10 -262144 -1
-1;
#X obj 246 419 i;
#X obj 631 373 r clock;
#X floatatom 688 467 5 0 0 0 - - -;
#X obj 638 483 +;
#X obj 638 507 moses 9;
#X obj 635 540 bng 15 250 50 0 empty empty empty 17 7 0 10 -262144
-1 -1;
#X msg 195 364 0;
#X msg 702 358 0;
#X obj 72 414 random 10;
#X obj 71 505 moses 10;
#N canvas 174 407 450 300 invertSlider 0;
#X obj 81 91 * 10;
#X obj 81 116 i;
#X msg 81 140 10 \$1;
#X obj 81 164 -;
#X floatatom 123 188 5 0 0 0 - - -;
#X obj 84 210 outlet;
#X obj 85 56 inlet;
#X connect 0 0 1 0;
#X connect 1 0 2 0;
#X connect 2 0 3 0;
#X connect 3 0 4 0;
#X connect 3 0 5 0;
#X connect 6 0 0 0;
#X restore 160 197 pd invertSlider;
#X obj 282 349 r density1;
#X floatatom 905 164 5 0 0 0 - - -;
#N canvas 0 23 450 300 invertSlider 0;
#X obj 81 91 * 10;
#X obj 81 116 i;
#X msg 81 140 10 \$1;
#X obj 81 164 -;
#X floatatom 123 188 5 0 0 0 - - -;
#X obj 84 210 outlet;
#X obj 85 56 inlet;
#X connect 0 0 1 0;
#X connect 1 0 2 0;
#X connect 2 0 3 0;
#X connect 3 0 4 0;
#X connect 3 0 5 0;
#X connect 6 0 0 0;
#X restore 376 186 pd invertSlider;
#X obj 772 332 r density2;
#X obj 568 159 * 6;
#X obj 568 183 i;
#X floatatom 622 205 5 0 0 0 - - -;
#X obj 1351 554 +;
#X obj 1351 579 mtof;
#X floatatom 1351 604 7 0 0 0 - - -;
#X obj 1417 540 nbx 5 14 0 127 0 1 empty empty root_note 0 -8 0 10
-260097 -1 -1 87 256;
#X obj 1357 873 *~;
#X obj 1349 499 r scale;
#X obj 1351 631 phasor~;
#X obj 406 450 + 30;
#X obj 404 397 random 20;
#X obj 905 372 random 30;
#N canvas 1509 628 738 536 filter 0;
#X floatatom 226 247 5 0 0 0 - - -;
#X obj 124 322 lop~;
#X obj 288 18 inlet;
#X obj 126 492 outlet~;
#X obj 111 193 inlet~;
#X obj 224 177 * 3000;
#X connect 0 0 1 1;
#X connect 1 0 3 0;
#X connect 2 0 5 0;
#X connect 4 0 1 0;
#X connect 5 0 0 0;
#X restore 1352 742 pd filter;
#X text 1480 233 CV OUT 1;
#X text 1614 233 CV OUT 2;
#X floatatom 1461 175 5 0 0 0 - - -;
#X obj 1591 120 r noteLead;
#X floatatom 1629 167 5 0 0 0 - - -;
#X obj 1423 128 r noteBass;
#X obj 1425 152 / 100;
#X obj 1593 143 / 100;
#X text 1226 210 BUTTON B LED;
#X obj 634 415 random 10;
#N canvas 426 630 831 675 vca_env 0;
#N canvas 1457 716 450 300 vline 0;
#X obj 37 17 inlet;
#X obj 94 121 unpack f f f;
#X obj 94 72 t a b;
#X msg 112 96 0;
#X text 145 97 Default to zero delay if 2 args supplied;
#X obj 37 208 line~;
#X obj 37 230 outlet~;
#X obj 37 39 route stop;
#X msg 37 131 stop;
#X obj 37 61 t b b;
#X msg 50 99 clear;
#N canvas 274 138 360 214 dbl-pipe 0;
#X obj 65 42 inlet;
#X obj 125 42 inlet;
#X obj 185 42 inlet;
#X obj 65 84 pipe 0;
#X obj 125 84 pipe 0;
#X obj 65 106 outlet;
#X obj 125 106 outlet;
#X connect 0 0 3 0;
#X connect 0 0 4 0;
#X connect 1 0 4 0;
#X connect 2 0 3 1;
#X connect 2 0 4 1;
#X connect 3 0 5 0;
#X connect 4 0 6 0;
#X restore 94 149 pd dbl-pipe;
#X obj 94 173 pack f f;
#X connect 0 0 7 0;
#X connect 1 0 11 0;
#X connect 1 1 11 1;
#X connect 1 2 11 2;
#X connect 2 0 1 0;
#X connect 2 1 3 0;
#X connect 3 0 11 2;
#X connect 5 0 6 0;
#X connect 7 0 9 0;
#X connect 7 1 2 0;
#X connect 8 0 5 0;
#X connect 9 0 8 0;
#X connect 9 1 10 0;
#X connect 10 0 11 0;
#X connect 10 0 11 1;
#X connect 11 0 12 0;
#X connect 11 1 12 1;
#X connect 12 0 5 0;
#X restore 36 111 pd vline;
#N canvas 1887 324 475 1094 advca 0;
#X obj 47 245 inlet;
#X obj 95 568 outlet;
#X obj 54 306 bng 15 250 50 0 empty empty empty 17 7 0 10 -262144 -1
-1;
#X obj 219 284 vsl 15 128 0 5000 0 0 empty empty empty 0 -9 0 10 -262144
-1 -1 900 1;
#X floatatom 261 459 5 0 0 0 - - -;
#X text 195 507 Define the envelope;
#X obj 159 288 vsl 15 128 0 100 0 0 empty empty empty 0 -9 0 10 -262144
-1 -1 14 1;
#X floatatom 204 461 5 0 0 0 - - -;
#X obj 287 272 vsl 15 128 10 30 0 0 empty empty empty 0 -9 0 10 -262144
-1 -1 794 1;
#X obj 105 471 pack f f f f;
#X floatatom 347 436 5 0 0 0 - - -;
#X msg 90 509 1 \$2 \, 0 \$3 \$4;
#X obj 184 191 loadbang;
#X msg 149 235 0.11;
#X msg 202 229 354.3;
#X msg 279 236 11.25;
#X msg 110 200 0;
#X obj 200 114 + 0.11;
#X obj 307 113 + 100;
#X obj 319 45 r decayBass;
#X obj 208 53 r attackBass;
#X obj 200 90 * 100;
#X obj 308 89 * 4000;
#X connect 0 0 2 0;
#X connect 2 0 9 0;
#X connect 3 0 4 0;
#X connect 3 0 9 2;
#X connect 6 0 7 0;
#X connect 6 0 9 1;
#X connect 8 0 9 3;
#X connect 8 0 10 0;
#X connect 9 0 11 0;
#X connect 11 0 1 0;
#X connect 12 0 13 0;
#X connect 12 0 14 0;
#X connect 12 0 15 0;
#X connect 12 0 16 0;
#X connect 13 0 6 0;
#X connect 14 0 3 0;
#X connect 15 0 8 0;
#X connect 17 0 6 0;
#X connect 18 0 3 0;
#X connect 19 0 22 0;
#X connect 20 0 21 0;
#X connect 21 0 17 0;
#X connect 22 0 18 0;
#X restore 35 75 pd advca;
#X obj 39 158 outlet~;
#X obj 34 27 inlet bang;
#X connect 0 0 2 0;
#X connect 1 0 0 0;
#X connect 3 0 1 0;
#X restore 164 692 pd vca_env;
#X obj 123 642 delay 40;
#X obj 640 624 delay 40;
#X obj 1165 651 r filterBass;
#X obj 1164 680 t f;
#X obj 1164 704 +;
#X floatatom 1202 757 5 0 0 0 - - -;
#N canvas 426 630 831 675 vca_env 0;
#N canvas 1457 716 450 300 vline 0;
#X obj 37 17 inlet;
#X obj 94 121 unpack f f f;
#X obj 94 72 t a b;
#X msg 112 96 0;
#X text 145 97 Default to zero delay if 2 args supplied;
#X obj 37 208 line~;
#X obj 37 230 outlet~;
#X obj 37 39 route stop;
#X msg 37 131 stop;
#X obj 37 61 t b b;
#X msg 50 99 clear;
#N canvas 274 138 360 214 dbl-pipe 0;
#X obj 65 42 inlet;
#X obj 125 42 inlet;
#X obj 185 42 inlet;
#X obj 65 84 pipe 0;
#X obj 125 84 pipe 0;
#X obj 65 106 outlet;
#X obj 125 106 outlet;
#X connect 0 0 3 0;
#X connect 0 0 4 0;
#X connect 1 0 4 0;
#X connect 2 0 3 1;
#X connect 2 0 4 1;
#X connect 3 0 5 0;
#X connect 4 0 6 0;
#X restore 94 149 pd dbl-pipe;
#X obj 94 173 pack f f;
#X connect 0 0 7 0;
#X connect 1 0 11 0;
#X connect 1 1 11 1;
#X connect 1 2 11 2;
#X connect 2 0 1 0;
#X connect 2 1 3 0;
#X connect 3 0 11 2;
#X connect 5 0 6 0;
#X connect 7 0 9 0;
#X connect 7 1 2 0;
#X connect 8 0 5 0;
#X connect 9 0 8 0;
#X connect 9 1 10 0;
#X connect 10 0 11 0;
#X connect 10 0 11 1;
#X connect 11 0 12 0;
#X connect 11 1 12 1;
#X connect 12 0 5 0;
#X restore 36 111 pd vline;
#N canvas 1887 324 475 1094 advca 0;
#X obj 47 245 inlet;
#X obj 95 568 outlet;
#X obj 54 306 bng 15 250 50 0 empty empty empty 17 7 0 10 -262144 -1
-1;
#X obj 219 284 vsl 15 128 0 5000 0 0 empty empty empty 0 -9 0 10 -262144
-1 -1 900 1;
#X floatatom 261 459 5 0 0 0 - - -;
#X text 195 507 Define the envelope;
#X obj 159 288 vsl 15 128 0 100 0 0 empty empty empty 0 -9 0 10 -262144
-1 -1 14 1;
#X floatatom 204 461 5 0 0 0 - - -;
#X obj 287 272 vsl 15 128 10 30 0 0 empty empty empty 0 -9 0 10 -262144
-1 -1 794 1;
#X obj 105 471 pack f f f f;
#X floatatom 347 436 5 0 0 0 - - -;
#X msg 90 509 1 \$2 \, 0 \$3 \$4;
#X obj 184 191 loadbang;
#X msg 149 235 0.11;
#X msg 202 229 354.3;
#X msg 279 236 11.25;
#X msg 110 200 0;
#X obj 200 114 + 0.11;
#X obj 307 113 + 100;
#X obj 200 90 * 100;
#X obj 308 89 * 4000;
#X obj 208 53 r attackLead;
#X obj 319 45 r decayLead;
#X connect 0 0 2 0;
#X connect 2 0 9 0;
#X connect 3 0 4 0;
#X connect 3 0 9 2;
#X connect 6 0 7 0;
#X connect 6 0 9 1;
#X connect 8 0 9 3;
#X connect 8 0 10 0;
#X connect 9 0 11 0;
#X connect 11 0 1 0;
#X connect 12 0 13 0;
#X connect 12 0 14 0;
#X connect 12 0 15 0;
#X connect 12 0 16 0;
#X connect 13 0 6 0;
#X connect 14 0 3 0;
#X connect 15 0 8 0;
#X connect 17 0 6 0;
#X connect 18 0 3 0;
#X connect 19 0 17 0;
#X connect 20 0 18 0;
#X connect 21 0 19 0;
#X connect 22 0 20 0;
#X restore 35 75 pd advca;
#X obj 39 158 outlet~;
#X obj 34 27 inlet bang;
#X connect 0 0 2 0;
#X connect 1 0 0 0;
#X connect 3 0 1 0;
#X restore 630 692 pd vca_env;
#N canvas 1415 645 1145 649 midiControlLead 0;
#X obj 150 150 / 127;
#X obj 339 150 / 127;
#X obj 702 168 / 127;
#X obj 56 95 pack f f f;
#X obj 301 64 pack f f f;
#X obj 656 92 pack f f f;
#X obj 120 122 i;
#X obj 321 100 i;
#X obj 681 137 i;
#N canvas 986 148 542 662 RandomDecay 0;
#X obj 21 37 tgl 15 0 empty empty empty 17 7 0 10 -262144 -1 -1 0 1
;
#X floatatom 37 285 5 0 0 0 - - -;
#X obj 35 430 hsl 128 15 0 1 0 0 empty empty empty -2 -8 0 10 -262144
-1 -1 0 1;
#X obj 30 323 / 100;
#X floatatom 65 378 5 0 0 0 - - -;
#X obj 252 380 line;
#X floatatom 62 454 5 0 0 0 - - -;
#X obj 255 339 pack f \$2;
#X obj 23 63 bng 15 250 50 0 empty empty empty 17 7 0 10 -262144 -1
-1;
#X obj 334 283 loadbang;
#X obj 30 508 outlet;
#X obj 22 12 inlet;
#X msg 336 309 0;
#X obj 25 260 random \$1;
#X obj 128 159 / 127;
#X obj 97 80 pack f f f;
#X obj 117 116 i;
#X obj 92 201 * 40;
#X obj 85 42 ctlin 114;
#X connect 0 0 8 0;
#X connect 2 0 6 0;
#X connect 2 0 10 0;
#X connect 3 0 4 0;
#X connect 3 0 2 0;
#X connect 7 0 5 0;
#X connect 8 0 13 0;
#X connect 9 0 12 0;
#X connect 11 0 0 0;
#X connect 12 0 7 1;
#X connect 13 0 1 0;
#X connect 13 0 3 0;
#X connect 14 0 17 0;
#X connect 15 0 16 0;
#X connect 16 0 14 0;
#X connect 17 0 13 1;
#X connect 18 0 15 0;
#X connect 18 1 15 1;
#X restore 450 180 pd RandomDecay;
#X floatatom 462 222 5 0 0 0 - - -;
#X floatatom 375 209 5 0 0 0 - - -;
#X obj 373 249 t f;
#X obj 386 280 +;
#N canvas 479 547 770 840 RandomFilter 0;
#X obj 21 37 tgl 15 0 empty empty empty 17 7 0 10 -262144 -1 -1 0 1
;
#X floatatom 37 285 5 0 0 0 - - -;
#X obj 34 522 hsl 128 15 0 1 0 0 empty empty empty -2 -8 0 10 -262144
-1 -1 0 1;
#X obj 30 323 / 100;
#X floatatom 65 378 5 0 0 0 - - -;
#X obj 32 478 line;
#X floatatom 61 546 5 0 0 0 - - -;
#X obj 35 437 pack f \$2;
#X obj 23 63 bng 15 250 50 0 empty empty empty 17 7 0 10 -262144 -1
-1;
#X obj 114 381 loadbang;
#X obj 29 600 outlet;
#X obj 22 12 inlet;
#X obj 25 260 random \$1;
#X obj 128 159 / 127;
#X obj 97 80 pack f f f;
#X obj 117 116 i;
#X obj 92 201 * 40;
#X msg 116 407 100, f 10;
#X obj 85 42 ctlin 115;
#X connect 0 0 8 0;
#X connect 2 0 6 0;
#X connect 2 0 10 0;
#X connect 3 0 4 0;
#X connect 3 0 7 0;
#X connect 5 0 2 0;
#X connect 7 0 5 0;
#X connect 8 0 12 0;
#X connect 9 0 17 0;
#X connect 11 0 0 0;
#X connect 12 0 1 0;
#X connect 12 0 3 0;
#X connect 13 0 16 0;
#X connect 14 0 15 0;
#X connect 15 0 13 0;
#X connect 16 0 12 1;
#X connect 17 0 7 1;
#X connect 18 0 14 0;
#X connect 18 1 14 1;
#X restore 787 128 pd RandomFilter;
#X obj 784 185 t f;
#X obj 784 209 +;
#X obj 119 56 ctlin 104;
#X obj 289 26 ctlin 105;
#X obj 663 49 ctlin 106;
#X obj 432 149 r triggerLead;
#X obj 788 83 r triggerLead;
#X obj 158 210 s attackLead;
#X obj 358 327 s decayLead;
#X obj 752 291 s filterLead;
#X obj 936 29 loadbang;
#X obj 429 51 loadbang;
#X msg 434 77 127;
#X obj 176 71 loadbang;
#X msg 180 97 0;
#X msg 941 55 0;
#X connect 0 0 22 0;
#X connect 1 0 11 0;
#X connect 2 0 16 1;
#X connect 3 0 6 0;
#X connect 4 0 7 0;
#X connect 5 0 8 0;
#X connect 6 0 0 0;
#X connect 7 0 1 0;
#X connect 8 0 2 0;
#X connect 9 0 10 0;
#X connect 10 0 12 0;
#X connect 11 0 13 1;
#X connect 12 0 13 0;
#X connect 13 0 23 0;
#X connect 14 0 15 0;
#X connect 15 0 16 0;
#X connect 16 0 24 0;
#X connect 17 0 3 0;
#X connect 17 1 3 1;
#X connect 18 0 4 0;
#X connect 18 1 4 1;
#X connect 19 0 5 0;
#X connect 19 1 5 1;
#X connect 20 0 9 0;
#X connect 21 0 14 0;
#X connect 25 0 30 0;
#X connect 26 0 27 0;
#X connect 27 0 7 0;
#X connect 28 0 29 0;
#X connect 29 0 6 0;
#X connect 30 0 8 0;
#X restore 644 807 pd midiControlLead;
#N canvas 236 643 1146 649 midiControlBass 0;
#X obj 150 150 / 127;
#X obj 339 150 / 127;
#X obj 702 168 / 127;
#X obj 56 95 pack f f f;
#X obj 301 64 pack f f f;
#X obj 656 92 pack f f f;
#X obj 120 122 i;
#X obj 321 100 i;
#X obj 681 137 i;
#N canvas 986 148 542 662 RandomDecay 0;
#X obj 21 37 tgl 15 0 empty empty empty 17 7 0 10 -262144 -1 -1 0 1
;
#X floatatom 37 285 5 0 0 0 - - -;
#X obj 35 430 hsl 128 15 0 1 0 0 empty empty empty -2 -8 0 10 -262144
-1 -1 0 1;
#X obj 30 323 / 100;
#X floatatom 65 378 5 0 0 0 - - -;
#X obj 252 380 line;
#X floatatom 62 454 5 0 0 0 - - -;
#X obj 255 339 pack f \$2;
#X obj 23 63 bng 15 250 50 0 empty empty empty 17 7 0 10 -262144 -1
-1;
#X obj 334 283 loadbang;
#X obj 30 508 outlet;
#X obj 22 12 inlet;
#X msg 336 309 0;
#X obj 25 260 random \$1;
#X obj 128 159 / 127;
#X obj 97 80 pack f f f;
#X obj 117 116 i;
#X obj 92 201 * 40;
#X obj 85 42 ctlin 111;
#X connect 0 0 8 0;
#X connect 2 0 6 0;
#X connect 2 0 10 0;
#X connect 3 0 4 0;
#X connect 3 0 2 0;
#X connect 7 0 5 0;
#X connect 8 0 13 0;
#X connect 9 0 12 0;
#X connect 11 0 0 0;
#X connect 12 0 7 1;
#X connect 13 0 1 0;
#X connect 13 0 3 0;
#X connect 14 0 17 0;
#X connect 15 0 16 0;
#X connect 16 0 14 0;
#X connect 17 0 13 1;
#X connect 18 0 15 0;
#X connect 18 1 15 1;
#X restore 450 180 pd RandomDecay;
#X floatatom 462 222 5 0 0 0 - - -;
#X floatatom 375 209 5 0 0 0 - - -;
#X obj 373 249 t f;
#X obj 386 280 +;
#N canvas 479 547 770 840 RandomFilter 0;
#X obj 21 37 tgl 15 0 empty empty empty 17 7 0 10 -262144 -1 -1 0 1
;
#X floatatom 37 285 5 0 0 0 - - -;
#X obj 34 522 hsl 128 15 0 1 0 0 empty empty empty -2 -8 0 10 -262144
-1 -1 0 1;
#X obj 30 323 / 100;
#X floatatom 65 378 5 0 0 0 - - -;
#X obj 32 478 line;
#X floatatom 61 546 5 0 0 0 - - -;
#X obj 35 437 pack f \$2;
#X obj 23 63 bng 15 250 50 0 empty empty empty 17 7 0 10 -262144 -1
-1;
#X obj 114 381 loadbang;
#X obj 29 600 outlet;
#X obj 22 12 inlet;
#X obj 25 260 random \$1;
#X obj 128 159 / 127;
#X obj 97 80 pack f f f;
#X obj 117 116 i;
#X obj 92 201 * 40;
#X msg 116 407 100, f 10;
#X obj 85 42 ctlin 112;
#X connect 0 0 8 0;
#X connect 2 0 6 0;
#X connect 2 0 10 0;
#X connect 3 0 4 0;
#X connect 3 0 7 0;
#X connect 5 0 2 0;
#X connect 7 0 5 0;
#X connect 8 0 12 0;
#X connect 9 0 17 0;
#X connect 11 0 0 0;
#X connect 12 0 1 0;
#X connect 12 0 3 0;
#X connect 13 0 16 0;
#X connect 14 0 15 0;
#X connect 15 0 13 0;
#X connect 16 0 12 1;
#X connect 17 0 7 1;
#X connect 18 0 14 0;
#X connect 18 1 14 1;
#X restore 787 128 pd RandomFilter;
#X obj 784 185 t f;
#X obj 784 209 +;
#X obj 119 56 ctlin 101;
#X obj 289 26 ctlin 102;
#X obj 663 49 ctlin 103;
#X obj 432 149 r triggerBass;
#X obj 358 327 s decayBass;
#X obj 752 291 s filterBass;
#X obj 158 210 s attackBass;
#X obj 788 83 r triggerBass;
#X obj 222 102 loadbang;
#X msg 228 129 0;
#X obj 412 37 loadbang;
#X msg 417 64 127;
#X obj 936 29 loadbang;
#X msg 941 56 0;
#X connect 0 0 23 0;
#X connect 1 0 11 0;
#X connect 2 0 16 1;
#X connect 3 0 6 0;
#X connect 4 0 7 0;
#X connect 5 0 8 0;
#X connect 6 0 0 0;
#X connect 7 0 1 0;
#X connect 8 0 2 0;
#X connect 9 0 10 0;
#X connect 10 0 12 0;
#X connect 11 0 13 1;
#X connect 12 0 13 0;
#X connect 13 0 21 0;
#X connect 14 0 15 0;
#X connect 15 0 16 0;
#X connect 16 0 22 0;
#X connect 17 0 3 0;
#X connect 17 1 3 1;
#X connect 18 0 4 0;
#X connect 18 1 4 1;
#X connect 19 0 5 0;
#X connect 19 1 5 1;
#X connect 20 0 9 0;
#X connect 24 0 14 0;
#X connect 25 0 26 0;
#X connect 26 0 6 0;
#X connect 27 0 28 0;
#X connect 28 0 7 0;
#X connect 29 0 30 0;
#X connect 30 0 8 0;
#X restore 153 797 pd midiControlBass;
#X obj 1624 699 r filterFreq;
#X obj 1572 681 t f;
#X obj 1572 705 +;
#X floatatom 1610 758 5 0 0 0 - - -;
#X obj 1573 652 r filterLead;
#X obj 1108 1104 *~;
#X obj 1358 1100 *~;
#X obj 1135 918 loadbang;
#X obj 1421 921 loadbang;
#X obj 1167 1095 / 127;
#X obj 1174 1017 pack f f f;
#X obj 1172 1053 i;
#X obj 1175 975 ctlin 110;
#X obj 1466 1075 / 127;
#X obj 1473 997 pack f f f;
#X obj 1471 1033 i;
#X obj 1474 955 ctlin 113;
#X obj 766 96 r FilterLP_HP @owl D;
#X obj 568 106 r Scale @owl C;
#X obj 383 109 r DensityOSC2 @owl B;
#X obj 167 106 r DensityOSC1 @owl A;
#X obj 1222 110 r FreezSeq @owl B2;
#X obj 1209 182 s FreezeLed @owl B2;
#X obj 1429 203 s OSC1FreqOut @owl F;
#X obj 1582 203 s OSC2FreqOut @owl G;
#X obj 1165 289 s CLOCKOUT @owl Push;
#X msg 1137 942 60;
#X msg 1420 944 30;
#X text 140 834 NANOKONTROL-------------- OSC1 KNOB 1 (CC 101) Attack
OSC1 KNOB 2 (CC 102) Decay OSC1 KNOB 3 (CC 103) Filter OSC1 FADER 1
(CC 110) Volume, f 29;
#X text 603 840 NANOKONTROL-------------- OSC2 KNOB 1 (CC 104) Attack.
OSC2 KNOB 2 (CC 105) Decay . OSC2 KNOB 3 (CC 106) Filter OSC2 FADER
2 (CC 113) Volume, f 29;
#X obj 1021 163 sel 1;
#X obj 1020 81 r Clock @owl B1;
#N canvas 1400 572 680 594 switch 0;
#X obj 114 257 spigot;
#X obj 156 213 tgl 15 0 empty empty empty 17 7 0 10 -262144 -1 -1 1
1;
#X obj 276 41 loadbang;
#X obj 186 256 spigot;
#X obj 225 86 tgl 15 0 empty empty empty 17 7 0 10 -262144 -1 -1 0
1;
#X obj 255 122 !=;
#X msg 273 79 1;
#X obj 114 301 outlet;
#X obj 108 154 inlet A;
#X obj 220 3 inlet B;
#X connect 0 0 7 0;
#X connect 1 0 0 1;
#X connect 2 0 6 0;
#X connect 4 0 3 1;
#X connect 4 0 5 0;
#X connect 5 0 1 0;
#X connect 6 0 5 1;
#X connect 8 0 0 0;
#X connect 9 0 4 0;
#X restore 1072 196 pd switch;
#X obj 1166 70 loadbang;
#X msg 1163 102 0;
#X obj 1137 261 tgl 15 0 empty empty empty 17 7 0 10 -262144 -1 -1
0 1;
#X connect 1 0 147 0;
#X connect 2 0 3 0;
#X connect 4 0 81 0;
#X connect 9 0 76 0;
#X connect 10 0 79 0;
#X connect 12 0 66 0;
#X connect 12 0 64 1;
#X connect 14 0 74 0;
#X connect 15 0 72 0;
#X connect 16 0 17 0;
#X connect 17 0 21 0;
#X connect 18 0 20 0;
#X connect 21 0 60 0;
#X connect 22 0 16 1;
#X connect 23 0 18 0;
#X connect 24 0 120 0;
#X connect 26 0 49 0;
#X connect 27 0 24 0;
#X connect 28 0 30 0;
#X connect 28 0 78 0;
#X connect 31 0 110 1;
#X connect 32 0 33 0;
#X connect 33 0 28 0;
#X connect 34 0 53 0;
#X connect 39 0 92 0;
#X connect 40 0 42 0;
#X connect 40 0 69 1;
#X connect 42 0 41 0;
#X connect 43 0 73 0;
#X connect 46 0 51 0;
#X connect 48 0 93 0;
#X connect 50 0 22 0;
#X connect 52 0 87 0;
#X connect 54 0 16 0;
#X connect 56 0 24 1;
#X connect 58 0 88 1;
#X connect 60 0 27 0;
#X connect 61 0 137 0;
#X connect 61 0 147 1;
#X connect 62 0 46 0;
#X connect 62 0 47 0;
#X connect 64 0 75 0;
#X connect 65 0 38 0;
#X connect 65 0 106 0;
#X connect 66 0 13 0;
#X connect 67 0 104 0;
#X connect 69 0 70 0;
#X connect 70 0 71 0;
#X connect 71 0 44 0;
#X connect 71 0 107 0;
#X connect 72 0 12 0;
#X connect 73 0 40 0;
#X connect 74 0 63 0;
#X connect 74 0 64 0;
#X connect 75 0 65 0;
#X connect 76 0 36 0;
#X connect 77 0 12 0;
#X connect 79 0 35 0;
#X connect 80 0 40 0;
#X connect 81 0 82 0;
#X connect 82 0 83 0;
#X connect 82 0 34 0;
#X connect 84 0 85 0;
#X connect 85 0 86 0;
#X connect 86 0 90 0;
#X connect 87 0 84 1;
#X connect 88 0 121 0;
#X connect 89 0 84 0;
#X connect 90 0 94 0;
#X connect 91 0 26 0;
#X connect 91 0 37 0;
#X connect 92 0 25 0;
#X connect 92 0 91 0;
#X connect 93 0 45 0;
#X connect 93 0 62 0;
#X connect 94 0 88 0;
#X connect 98 0 102 0;
#X connect 100 0 101 0;
#X connect 101 0 97 0;
#X connect 101 0 138 0;
#X connect 102 0 99 0;
#X connect 102 0 139 0;
#X connect 104 0 68 0;
#X connect 104 0 69 0;
#X connect 105 0 57 0;
#X connect 106 0 105 0;
#X connect 107 0 112 0;
#X connect 108 0 109 0;
#X connect 109 0 110 0;
#X connect 110 0 27 1;
#X connect 110 0 111 0;
#X connect 112 0 59 0;
#X connect 115 0 117 1;
#X connect 116 0 117 0;
#X connect 117 0 118 0;
#X connect 117 0 94 1;
#X connect 119 0 116 0;
#X connect 120 0 55 0;
#X connect 120 0 55 1;
#X connect 121 0 55 0;
#X connect 121 0 55 1;
#X connect 122 0 141 0;
#X connect 123 0 142 0;
#X connect 124 0 120 1;
#X connect 125 0 126 0;
#X connect 126 0 124 0;
#X connect 127 0 125 0;
#X connect 127 1 125 1;
#X connect 128 0 121 1;
#X connect 129 0 130 0;
#X connect 130 0 128 0;
#X connect 131 0 129 0;
#X connect 131 1 129 1;
#X connect 132 0 28 0;
#X connect 133 0 4 0;
#X connect 134 0 10 0;
#X connect 135 0 9 0;
#X connect 136 0 61 0;
#X connect 141 0 125 0;
#X connect 142 0 130 0;
#X connect 145 0 147 0;
#X connect 146 0 145 0;
#X connect 146 0 150 0;
#X connect 147 0 2 0;
#X connect 148 0 149 0;
#X connect 149 0 61 0;
#X connect 150 0 140 0;
