#N canvas 0 23 2560 1395 12;
#N canvas 768 881 669 442 tapTempo 1;
#X obj 41 168 sel 1 2;
#X floatatom 47 250 5 0 0 0 - - -;
#X msg 40 218 1;
#X msg 73 218 0;
#X obj 73 195 t b b;
#X msg 93 167 0;
#X obj 44 142 +;
#X floatatom 72 144 5 0 0 0 - - -;
#X obj 47 302 timer;
#X obj 45 90 bng 15 250 50 0 empty empty empty 0 -6 0 10 -4034 -1 -1
;
#X msg 42 114 1;
#X obj 47 275 sel 1 0;
#X floatatom 47 326 5 0 0 0 - - -;
#X obj 225 189 bng 25 250 50 0 empty empty empty 0 -6 0 10 -262144
-1 -1;
#X msg 203 110 1;
#X obj 178 51 loadbang;
#X obj 204 153 metro 500;
#X text 86 326 time passed between two clicks (in ms.);
#X text 257 192 Tempo;
#X obj 42 19 inlet;
#X obj 225 219 outlet;
#X obj 42 59 sel 1;
#X obj 123 57 inlet;
#X msg 251 114 0;
#X obj 259 15 inlet;
#X obj 254 49 sel 1;
#X floatatom 44 407 5 0 0 0 - - -;
#X obj 46 372 / 2;
#X text 79 374 Doble velocidad;
#X obj 553 354 * 2;
#X floatatom 555 393 5 0 0 0 - - -;
#X text 590 368 Mitad velocidad;
#X obj 394 193 bng 25 250 50 0 empty empty empty 0 -6 0 10 -262144
-1 -1;
#X obj 373 157 metro 500;
#X text 426 196 Tempo;
#X obj 394 223 outlet;
#X msg 378 115 1;
#X obj 353 56 loadbang;
#X connect 0 0 2 0;
#X connect 0 1 4 0;
#X connect 1 0 11 0;
#X connect 2 0 1 0;
#X connect 3 0 1 0;
#X connect 4 0 3 0;
#X connect 4 1 5 0;
#X connect 5 0 7 0;
#X connect 6 0 7 0;
#X connect 7 0 6 1;
#X connect 7 0 0 0;
#X connect 8 0 12 0;
#X connect 9 0 10 0;
#X connect 10 0 6 0;
#X connect 11 0 8 0;
#X connect 11 1 8 1;
#X connect 12 0 27 0;
#X connect 12 0 16 1;
#X connect 13 0 20 0;
#X connect 14 0 16 0;
#X connect 15 0 14 0;
#X connect 16 0 13 0;
#X connect 19 0 21 0;
#X connect 21 0 9 0;
#X connect 22 0 9 0;
#X connect 23 0 16 0;
#X connect 24 0 25 0;
#X connect 25 0 23 0;
#X connect 25 1 14 0;
#X connect 27 0 26 0;
#X connect 27 0 33 1;
#X connect 29 0 30 0;
#X connect 32 0 35 0;
#X connect 33 0 32 0;
#X connect 36 0 33 0;
#X connect 37 0 36 0;
#X restore 1020 156 pd tapTempo;
#X obj 1020 81 r Button_1 @owl B1;
#X text 1045 57 BUT 1_ CLOCK;
#X obj 1057 116 bng 15 250 50 0 empty empty empty 17 7 0 10 -262144
-1 -1;
#X obj 1020 184 bng 15 250 50 0 empty empty empty 17 7 0 10 -262144
-1 -1;
#X obj 1178 79 r Button_2 @owl B2;
#X obj 1021 244 s clock;
#X obj 613 136 hsl 128 15 0 1 0 0 empty empty empty -2 -8 0 10 -262144
-1 -1 0 1;
#X obj 568 106 r Pot_C @owl C;
#X text 596 80 POT C;
#X text 190 78 POT A;
#X obj 166 106 r Pot_A @owl A;
#X text 410 81 POT B;
#X obj 383 109 r Pot_B @owl B;
#X text 1218 52 BUT 2_;
#X obj 207 145 hsl 128 15 0 1 0 0 empty empty empty -2 -8 0 10 -262144
-1 -1 0 1;
#X obj 406 140 hsl 128 15 0 1 0 0 empty empty empty -2 -8 0 10 -262144
-1 -1 0 1;
#X text 1206 319 GATE OUT;
#X obj 1166 289 s GATE_OUT @owl Push;
#N canvas 1604 709 450 300 vline 0;
#X obj 37 17 inlet;
#X obj 94 121 unpack f f f;
#X obj 94 72 t a b;
#X msg 112 96 0;
#X text 145 97 Default to zero delay if 2 args supplied;
#X obj 37 208 line~;
#X obj 37 230 outlet~;
#X obj 37 39 route stop;
#X msg 37 131 stop;
#X obj 37 61 t b b;
#X msg 50 99 clear;
#N canvas 274 138 360 214 dbl-pipe 0;
#X obj 65 42 inlet;
#X obj 125 42 inlet;
#X obj 185 42 inlet;
#X obj 65 84 pipe 0;
#X obj 125 84 pipe 0;
#X obj 65 106 outlet;
#X obj 125 106 outlet;
#X connect 0 0 3 0;
#X connect 0 0 4 0;
#X connect 1 0 4 0;
#X connect 2 0 3 1;
#X connect 2 0 4 1;
#X connect 3 0 5 0;
#X connect 4 0 6 0;
#X restore 94 149 pd dbl-pipe;
#X obj 94 173 pack f f;
#X connect 0 0 7 0;
#X connect 1 0 11 0;
#X connect 1 1 11 1;
#X connect 1 2 11 2;
#X connect 2 0 1 0;
#X connect 2 1 3 0;
#X connect 3 0 11 2;
#X connect 5 0 6 0;
#X connect 7 0 9 0;
#X connect 7 1 2 0;
#X connect 8 0 5 0;
#X connect 9 0 8 0;
#X connect 9 1 10 0;
#X connect 10 0 11 0;
#X connect 10 0 11 1;
#X connect 11 0 12 0;
#X connect 11 1 12 1;
#X connect 12 0 5 0;
#X restore 193 776 pd vline;
#X obj 227 396 hsl 128 15 10 0 0 0 empty empty DensityBass -2 -8 0
10 -262144 -1 -1 9600 1;
#X floatatom 309 444 5 0 0 0 - - -;
#X obj 69 372 r clock;
#X obj 193 338 loadbang;
#X obj 276 665 loadbang;
#X obj 1095 560 +;
#X obj 1095 585 mtof;
#X obj 20 56 tgl 15 0 empty empty empty 17 7 0 10 -262144 -1 -1 1 1
;
#X text 42 54 audio ON/OFF;
#X msg 20 78 \; pd dsp \$1;
#X floatatom 1095 610 7 0 0 0 - - -;
#X obj 1161 546 nbx 5 14 0 127 0 1 empty empty root_note 0 -8 0 10
-260097 -1 -1 48 256;
#X obj 20 27 loadbang;
#X obj 1104 754 *~;
#X floatatom 426 406 5 0 0 0 - - -;
#X obj 420 487 hsl 128 15 0 100 0 0 empty empty empty -2 -8 0 10 -262144
-1 -1 6096 1;
#X obj 192 600 t b;
#N canvas 1509 628 738 536 filter 0;
#X floatatom 226 247 5 0 0 0 - - -;
#X obj 124 322 lop~;
#X obj 288 18 inlet;
#X obj 126 492 outlet~;
#X obj 111 193 inlet~;
#X obj 224 177 * 3000;
#X connect 0 0 1 1;
#X connect 1 0 3 0;
#X connect 2 0 5 0;
#X connect 4 0 1 0;
#X connect 5 0 0 0;
#X restore 1097 670 pd filter;
#X obj 841 136 hsl 128 15 0 1 0 0 empty empty empty -2 -8 0 10 -4034
-1 -1 0 1;
#X obj 766 96 r Pot_D @owl D;
#X text 764 73 Filter LP->HP;
#X obj 822 193 s filterFreq;
#X obj 1177 624 r filterFreq;
#X obj 916 84 loadbang;
#X msg 917 107 0.5;
#N canvas 662 80 1898 1313 scales 0;
#X obj 314 32 inlet;
#X obj 450 295 nbx 4 16 -1e+37 1e+37 0 0 empty empty empty 0 -8 0 12
-262130 -4160 -1 0 256;
#N canvas 0 0 450 300 (subpatch) 0;
#X array scale 15 float 3;
#A 0 0 2 4 5 7 9 11 12 14 16 17 19 21 23 24;
#X coords 0 24 15 0 200 140 1;
#X restore 449 351 graph;
#X obj 191 209 nbx 5 14 0 7 0 1 empty empty select_scale 0 -8 0 10
-260097 -1 -1 0 256;
#X msg 680 365 \; scale 0 0 2 4 5 7 9 11 12 14 16 17 19 21 23 24 \;
;
#X obj 453 313 hsl 195 15 0 15 0 0 empty empty empty -2 -8 0 10 -258113
-4032 -1 0 1;
#X obj 122 279 +;
#X obj 122 312 tabread scale;
#X msg 188 238 set \$1;
#X msg 188 262 0;
#X obj 149 217 sel 0;
#X obj 122 182 t f f;
#X obj 680 324 loadbang;
#X text 264 218 <-- 0 = ionian \, 1 = dorian \, 2 = phrygisch \, 3
= lydian \, 4 = mixolydian \, 5 = aeolian \, 6 = locrian;
#X obj 188 168 loadbang;
#X obj 122 156 wrap 8;
#N canvas 0 23 450 300 count 0;
#X obj 51 24 inlet;
#X obj 63 144 f 0;
#X obj 64 210 + 1;
#X msg 75 108 0;
#X obj 41 246 outlet;
#X obj 44 66 route reset;
#X msg 13 109 bang;
#X obj 206 35 inlet;
#X obj 66 177 t f f;
#X obj 154 136 sel 0;
#X msg 182 172 set \$1;
#X msg 181 198 2;
#X obj 208 113 + 1;
#X obj 99 144 mod 8;
#X connect 0 0 5 0;
#X connect 1 0 4 0;
#X connect 1 0 8 0;
#X connect 2 0 13 0;
#X connect 3 0 1 1;
#X connect 5 0 3 0;
#X connect 5 1 6 0;
#X connect 6 0 1 0;
#X connect 7 0 12 0;
#X connect 8 0 2 0;
#X connect 8 1 9 0;
#X connect 9 0 11 0;
#X connect 10 0 11 0;
#X connect 11 0 2 1;
#X connect 12 0 10 0;
#X connect 13 0 1 1;
#X restore 121 132 pd count 8;
#X obj 122 110 metro 50;
#X obj 127 49 loadbang;
#X obj 194 45 loadbang;
#X obj 134 367 outlet;
#X msg 94 77 1;
#X msg 189 77 1;
#X connect 0 0 3 0;
#X connect 1 0 5 0;
#X connect 3 0 8 0;
#X connect 6 0 1 0;
#X connect 6 0 7 0;
#X connect 7 0 20 0;
#X connect 8 0 9 0;
#X connect 9 0 6 1;
#X connect 10 0 9 0;
#X connect 11 0 6 0;
#X connect 11 1 10 0;
#X connect 12 0 4 0;
#X connect 14 0 3 0;
#X connect 15 0 11 0;
#X connect 16 0 15 0;
#X connect 17 0 16 0;
#X connect 18 0 21 0;
#X connect 19 0 22 0;
#X connect 21 0 17 0;
#X connect 22 0 16 1;
#X restore 567 231 pd scales;
#X obj 376 220 s density2;
#X obj 164 242 s density1;
#X floatatom 448 464 5 0 0 0 - - -;
#X obj 226 602 s triggerBass;
#X obj 407 344 r triggerBass;
#N canvas 1604 709 450 300 vline 0;
#X obj 37 17 inlet;
#X obj 94 121 unpack f f f;
#X obj 94 72 t a b;
#X msg 112 96 0;
#X text 145 97 Default to zero delay if 2 args supplied;
#X obj 37 208 line~;
#X obj 37 230 outlet~;
#X obj 37 39 route stop;
#X msg 37 131 stop;
#X obj 37 61 t b b;
#X msg 50 99 clear;
#N canvas 274 138 360 214 dbl-pipe 0;
#X obj 65 42 inlet;
#X obj 125 42 inlet;
#X obj 185 42 inlet;
#X obj 65 84 pipe 0;
#X obj 125 84 pipe 0;
#X obj 65 106 outlet;
#X obj 125 106 outlet;
#X connect 0 0 3 0;
#X connect 0 0 4 0;
#X connect 1 0 4 0;
#X connect 2 0 3 1;
#X connect 2 0 4 1;
#X connect 3 0 5 0;
#X connect 4 0 6 0;
#X restore 94 149 pd dbl-pipe;
#X obj 94 173 pack f f;
#X connect 0 0 7 0;
#X connect 1 0 11 0;
#X connect 1 1 11 1;
#X connect 1 2 11 2;
#X connect 2 0 1 0;
#X connect 2 1 3 0;
#X connect 3 0 11 2;
#X connect 5 0 6 0;
#X connect 7 0 9 0;
#X connect 7 1 2 0;
#X connect 8 0 5 0;
#X connect 9 0 8 0;
#X connect 9 1 10 0;
#X connect 10 0 11 0;
#X connect 10 0 11 1;
#X connect 11 0 12 0;
#X connect 11 1 12 1;
#X connect 12 0 5 0;
#X restore 734 821 pd vline;
#X obj 724 394 hsl 128 15 9 0 0 0 empty empty DensityLead -2 -8 0 10
-262144 -1 -1 11500 1;
#X floatatom 776 451 5 0 0 0 - - -;
#X obj 734 426 int;
#X obj 700 332 loadbang;
#X obj 818 666 s triggerLead;
#X floatatom 917 400 5 0 0 0 - - -;
#X obj 911 481 hsl 128 15 0 100 0 0 empty empty empty -2 -8 0 10 -262144
-1 -1 10160 1;
#X floatatom 939 458 5 0 0 0 - - -;
#X obj 899 338 r triggerLead;
#X obj 417 504 s noteBass;
#X obj 1232 509 r noteBass;
#X obj 907 498 s noteLead;
#X obj 1480 506 r noteLead;
#X obj 567 260 s scale;
#X obj 1093 505 r scale;
#X obj 1235 833 dac~;
#X obj 1152 692 r~ envelopeBass;
#X obj 203 825 s~ envelopeBass;
#X obj 1407 691 r~ envelopeLead;
#X obj 745 859 s~ envelopeLead;
#X obj 1095 637 phasor~;
#X msg 275 688 5000;
#X obj 1105 123 tgl 15 0 empty empty empty 17 7 0 10 -262144 -1 -1
0 1;
#X obj 905 426 + 60;
#X obj 189 708 pack f f;
#X obj 149 601 t b;
#X obj 789 691 loadbang;
#X obj 758 636 t b;
#X msg 789 717 5000;
#X obj 730 755 pack f f;
#X obj 718 636 t b;
#X obj 719 667 delay 20;
#X obj 159 640 delay 20;
#X msg 750 786 0.5 10 \, 0 \$2 10;
#X msg 207 742 0.5 10 \, 0 \$2 10;
#X floatatom 114 439 5 0 0 0 - - -;
#X obj 70 482 +;
#X obj 70 538 bng 15 250 50 0 empty empty empty 17 7 0 10 -262144 -1
-1;
#X obj 246 419 i;
#X obj 631 373 r clock;
#X floatatom 688 467 5 0 0 0 - - -;
#X obj 634 415 random 9;
#X obj 638 483 +;
#X obj 638 507 moses 9;
#X obj 635 540 bng 15 250 50 0 empty empty empty 17 7 0 10 -262144
-1 -1;
#X msg 195 364 0;
#X msg 702 358 0;
#X obj 72 414 random 10;
#X obj 71 505 moses 10;
#N canvas 0 23 450 300 invertSlider 0;
#X obj 81 91 * 10;
#X obj 81 116 i;
#X msg 81 140 10 \$1;
#X obj 81 164 -;
#X floatatom 123 188 5 0 0 0 - - -;
#X obj 84 210 outlet;
#X obj 85 56 inlet;
#X connect 0 0 1 0;
#X connect 1 0 2 0;
#X connect 2 0 3 0;
#X connect 3 0 4 0;
#X connect 3 0 5 0;
#X connect 6 0 0 0;
#X restore 160 197 pd invertSlider;
#X obj 282 349 r density1;
#X floatatom 905 164 5 0 0 0 - - -;
#N canvas 0 23 450 300 invertSlider 0;
#X obj 81 91 * 10;
#X obj 81 116 i;
#X msg 81 140 10 \$1;
#X obj 81 164 -;
#X floatatom 123 188 5 0 0 0 - - -;
#X obj 84 210 outlet;
#X obj 85 56 inlet;
#X connect 0 0 1 0;
#X connect 1 0 2 0;
#X connect 2 0 3 0;
#X connect 3 0 4 0;
#X connect 3 0 5 0;
#X connect 6 0 0 0;
#X restore 376 186 pd invertSlider;
#X obj 772 332 r density2;
#X obj 568 159 * 6;
#X obj 568 183 i;
#X floatatom 622 205 5 0 0 0 - - -;
#X obj 1351 554 +;
#X obj 1351 579 mtof;
#X floatatom 1351 604 7 0 0 0 - - -;
#X obj 1417 540 nbx 5 14 0 127 0 1 empty empty root_note 0 -8 0 10
-260097 -1 -1 80 256;
#X obj 1360 748 *~;
#X obj 1433 618 r filterFreq;
#X obj 1349 499 r scale;
#X obj 1351 631 phasor~;
#X obj 415 434 + 30;
#X obj 413 381 random 20;
#X obj 905 372 random 30;
#N canvas 1509 628 738 536 filter 0;
#X floatatom 226 247 5 0 0 0 - - -;
#X obj 124 322 lop~;
#X obj 288 18 inlet;
#X obj 126 492 outlet~;
#X obj 111 193 inlet~;
#X obj 224 177 * 3000;
#X connect 0 0 1 1;
#X connect 1 0 3 0;
#X connect 2 0 5 0;
#X connect 4 0 1 0;
#X connect 5 0 0 0;
#X restore 1354 664 pd filter;
#X obj 1017 287 s BUTTON_A @owl B1;
#X text 1033 315 BUTTON A LED;
#X obj 1164 255 tgl 15 0 empty empty empty 17 7 0 10 -262144 -1 -1
1 1;
#X text 1480 233 CV OUT 1;
#X text 1614 233 CV OUT 2;
#X obj 1582 203 s CV_OUT_2 @owl G;
#X obj 1429 203 s CV_OUT_1 @owl F;
#X floatatom 1461 175 5 0 0 0 - - -;
#X obj 1591 120 r noteLead;
#X floatatom 1629 167 5 0 0 0 - - -;
#X obj 1423 128 r noteBass;
#X obj 1425 152 / 100;
#X obj 1593 143 / 100;
#X obj 1166 152 s BUTTON_B @owl B2;
#X text 1182 180 BUTTON B LED;
#X connect 0 0 4 0;
#X connect 0 1 123 0;
#X connect 1 0 0 0;
#X connect 3 0 0 1;
#X connect 4 0 6 0;
#X connect 5 0 74 0;
#X connect 7 0 106 0;
#X connect 8 0 7 0;
#X connect 11 0 15 0;
#X connect 13 0 16 0;
#X connect 15 0 101 0;
#X connect 16 0 104 0;
#X connect 19 0 69 0;
#X connect 20 0 90 0;
#X connect 20 0 88 1;
#X connect 22 0 99 0;
#X connect 23 0 97 0;
#X connect 24 0 73 0;
#X connect 25 0 26 0;
#X connect 26 0 30 0;
#X connect 27 0 29 0;
#X connect 30 0 72 0;
#X connect 31 0 25 1;
#X connect 32 0 27 0;
#X connect 33 0 67 1;
#X connect 33 0 67 0;
#X connect 35 0 61 0;
#X connect 36 0 49 0;
#X connect 37 0 33 0;
#X connect 38 0 41 0;
#X connect 38 0 103 0;
#X connect 39 0 38 0;
#X connect 42 0 37 1;
#X connect 43 0 44 0;
#X connect 44 0 38 0;
#X connect 45 0 65 0;
#X connect 50 0 118 0;
#X connect 51 0 71 0;
#X connect 52 0 54 0;
#X connect 52 0 94 1;
#X connect 54 0 53 0;
#X connect 55 0 98 0;
#X connect 58 0 63 0;
#X connect 60 0 119 0;
#X connect 62 0 31 0;
#X connect 64 0 112 0;
#X connect 66 0 25 0;
#X connect 68 0 33 1;
#X connect 70 0 113 1;
#X connect 72 0 37 0;
#X connect 73 0 76 1;
#X connect 74 0 0 2;
#X connect 74 0 134 0;
#X connect 75 0 58 0;
#X connect 75 0 59 0;
#X connect 76 0 86 0;
#X connect 77 0 36 0;
#X connect 77 0 84 0;
#X connect 78 0 80 0;
#X connect 79 0 56 0;
#X connect 80 0 81 1;
#X connect 81 0 85 0;
#X connect 82 0 79 0;
#X connect 82 0 83 0;
#X connect 83 0 81 0;
#X connect 84 0 76 0;
#X connect 85 0 51 0;
#X connect 86 0 19 0;
#X connect 88 0 100 0;
#X connect 89 0 77 0;
#X connect 90 0 21 0;
#X connect 91 0 93 0;
#X connect 93 0 92 0;
#X connect 93 0 94 0;
#X connect 94 0 95 0;
#X connect 95 0 96 0;
#X connect 96 0 82 0;
#X connect 97 0 20 0;
#X connect 98 0 52 0;
#X connect 99 0 87 0;
#X connect 99 0 88 0;
#X connect 100 0 89 0;
#X connect 101 0 47 0;
#X connect 102 0 20 0;
#X connect 104 0 46 0;
#X connect 105 0 52 0;
#X connect 106 0 107 0;
#X connect 107 0 108 0;
#X connect 107 0 45 0;
#X connect 109 0 110 0;
#X connect 110 0 111 0;
#X connect 111 0 116 0;
#X connect 112 0 109 1;
#X connect 113 0 67 0;
#X connect 113 0 67 1;
#X connect 114 0 120 1;
#X connect 115 0 109 0;
#X connect 116 0 120 0;
#X connect 117 0 35 0;
#X connect 117 0 48 0;
#X connect 118 0 34 0;
#X connect 118 0 117 0;
#X connect 119 0 57 0;
#X connect 119 0 75 0;
#X connect 120 0 113 0;
#X connect 123 0 18 0;
#X connect 123 0 121 0;
#X connect 129 0 133 0;
#X connect 131 0 132 0;
#X connect 132 0 127 0;
#X connect 132 0 128 0;
#X connect 133 0 130 0;
#X connect 133 0 126 0;
