#N canvas 1044 350 1271 977 12;
#X obj 153 415 dac~;
#N canvas 0 0 450 300 (subpatch) 0;
#X array soft 256 float 1;
#A 0 0 0.000150591 0.000602275 0.00135478 0.00240764 0.00376022 0.00541174
0.00736117 0.00960734 0.0121489 0.0149843 0.0181119 0.0215298 0.0252359
0.0292279 0.0335035 0.0380601 0.042895 0.0480052 0.0533877 0.0590392
0.0649563 0.0711355 0.077573 0.084265 0.0912073 0.0983959 0.105826
0.113494 0.121395 0.129524 0.137876 0.146446 0.155229 0.16422 0.173413
0.182803 0.192384 0.20215 0.212095 0.222214 0.2325 0.242948 0.25355
0.264301 0.275194 0.286222 0.297379 0.308658 0.320052 0.331555 0.343159
0.354857 0.366643 0.378509 0.390449 0.402454 0.414519 0.426634 0.438794
0.450991 0.463218 0.475466 0.487729 0.5 0.512271 0.524534 0.536782
0.549009 0.561205 0.573365 0.585481 0.597545 0.609551 0.62149 0.633357
0.645143 0.656841 0.668445 0.679948 0.691342 0.702621 0.713778 0.724806
0.735699 0.74645 0.757052 0.767499 0.777786 0.787905 0.79785 0.807616
0.817197 0.826587 0.83578 0.844771 0.853554 0.862124 0.870476 0.878605
0.886506 0.894174 0.901605 0.908793 0.915736 0.922428 0.928865 0.935044
0.940961 0.946613 0.951995 0.957106 0.96194 0.966497 0.970773 0.974765
0.978471 0.981889 0.985016 0.987852 0.990393 0.992639 0.994589 0.99624
0.997593 0.998645 0.999398 0.999849 1 0.999849 0.999398 0.998645 0.997592
0.996239 0.994588 0.992638 0.990392 0.987851 0.985015 0.981887 0.978469
0.974763 0.970771 0.966495 0.961939 0.957104 0.951993 0.946611 0.940959
0.935042 0.928863 0.922425 0.915733 0.908791 0.901602 0.894171 0.886503
0.878602 0.870473 0.862121 0.853551 0.844768 0.835777 0.826584 0.817194
0.807613 0.797847 0.787901 0.777782 0.767496 0.757048 0.746446 0.735695
0.724802 0.713774 0.702617 0.691338 0.679944 0.668441 0.656837 0.645139
0.633353 0.621486 0.609547 0.597541 0.585477 0.573361 0.561201 0.549004
0.536778 0.52453 0.512266 0.499996 0.487725 0.475462 0.463213 0.450987
0.43879 0.42663 0.414515 0.40245 0.390445 0.378505 0.366639 0.354853
0.343155 0.331551 0.320048 0.308654 0.297375 0.286218 0.27519 0.264297
0.253547 0.242944 0.232497 0.222211 0.212092 0.202146 0.19238 0.182799
0.17341 0.164217 0.155226 0.146443 0.137873 0.129521 0.121392 0.113491
0.105823 0.0983929 0.0912044 0.0842621 0.0775702 0.0711328 0.0649537
0.0590367 0.0533853 0.0480029 0.0428928 0.038058 0.0335015 0.029226
0.025234 0.0215281 0.0181104 0.0149829 0.0121476 0.00960615 0.0073601
0.00541082 0.00375944 0.00240701 0.00135431 0.000601947 0.000150442
;
#X coords 0 1 256 0 40 30 1;
#X restore 22 267 graph;
#X obj 55 90 hsl 128 15 0 1 0 0 empty empty empty -2 -8 0 10 -262144
-1 -1 7300 1;
#X obj 198 107 hsl 128 15 0 1 0 0 empty empty empty -2 -8 0 10 -262144
-1 -1 5600 1;
#X obj 346 116 hsl 128 15 0 1 0 0 empty empty empty -2 -8 0 10 -262144
-1 -1 5100 1;
#N canvas 0 23 865 565 mixer 0;
#X obj 47 106 *~;
#X obj 140 106 *~;
#X obj 50 35 inlet~;
#X obj 37 200 outlet~;
#X obj 140 200 outlet~;
#X obj 135 42 inlet~;
#X obj 213 36 inlet;
#X obj 50 152 *~ 0.3;
#X obj 147 146 *~ 0.3;
#X msg 195 60 \$1 5;
#X obj 195 84 line~;
#X connect 0 0 3 0;
#X connect 0 0 7 0;
#X connect 1 0 4 0;
#X connect 1 0 8 0;
#X connect 2 0 0 0;
#X connect 5 0 1 0;
#X connect 6 0 9 0;
#X connect 7 0 4 0;
#X connect 8 0 3 0;
#X connect 9 0 10 0;
#X connect 10 0 0 1;
#X connect 10 0 1 1;
#X restore 140 342 pd mixer;
#X obj 502 82 hsl 128 15 0 1 0 0 empty empty empty -2 -8 0 10 -262144
-1 -1 6500 1;
#X obj 484 106 s gain;
#X obj 216 275 r gain;
#X text 55 24 POT A;
#X text 205 22 POT B;
#X text 353 17 POT C;
#X text 513 15 POT D;
#X text 705 21 BUT 1;
#X obj 668 72 sel 1;
#X obj 832 71 sel 1;
#X text 869 20 BUT 2;
#N canvas 1476 323 646 775 windDrone1 0;
#X obj 43 124 phasor~;
#X floatatom 43 99 5 0 0 0 - - -;
#X obj 122 248 samphold~;
#X obj 46 466 *~;
#X obj 408 282 samphold~;
#X obj 340 469 *~;
#X obj 338 235 wrap~;
#X obj 338 207 +~ 0.5;
#X obj 341 439 osc~;
#X obj 44 356 *~;
#X obj 211 85 abs~;
#X obj 211 57 noise~;
#X obj 42 266 *~ 256;
#X obj 338 286 *~ 256;
#X obj 45 398 +~;
#X obj 339 382 *~;
#X obj 340 412 +~;
#X obj 45 435 osc~;
#X obj 96 437 tabread~ soft;
#X obj 398 430 tabread~ soft;
#X obj 47 540 outlet~;
#X obj 47 502 *~ 0.2;
#X obj 38 54 * 1000;
#X obj 235 360 * 2000;
#X obj 232 248 * 2000;
#X floatatom 230 289 5 0 0 0 - - -;
#X floatatom 232 399 5 0 0 0 - - -;
#X obj 36 21 inlet A;
#X obj 223 213 inlet B;
#X obj 214 321 inlet C;
#X connect 0 0 2 1;
#X connect 0 0 7 0;
#X connect 0 0 12 0;
#X connect 1 0 0 0;
#X connect 2 0 9 0;
#X connect 3 0 21 0;
#X connect 4 0 15 0;
#X connect 5 0 21 0;
#X connect 6 0 4 1;
#X connect 6 0 13 0;
#X connect 7 0 6 0;
#X connect 8 0 5 0;
#X connect 9 0 14 0;
#X connect 10 0 2 0;
#X connect 10 0 4 0;
#X connect 11 0 10 0;
#X connect 12 0 18 0;
#X connect 13 0 19 0;
#X connect 14 0 17 0;
#X connect 15 0 16 0;
#X connect 16 0 8 0;
#X connect 17 0 3 0;
#X connect 18 0 3 1;
#X connect 19 0 5 1;
#X connect 21 0 20 0;
#X connect 22 0 1 0;
#X connect 23 0 26 0;
#X connect 23 0 14 1;
#X connect 23 0 16 1;
#X connect 24 0 25 0;
#X connect 24 0 9 1;
#X connect 24 0 15 1;
#X connect 27 0 22 0;
#X connect 28 0 24 0;
#X connect 29 0 23 0;
#X restore 97 248 pd windDrone1;
#N canvas 433 524 627 602 windDrone2 0;
#X obj 43 124 phasor~;
#X floatatom 43 99 5 0 0 0 - - -;
#X obj 122 248 samphold~;
#X obj 45 452 *~;
#X obj 451 258 samphold~;
#X obj 383 445 *~;
#X obj 381 211 wrap~;
#X obj 381 183 +~ 0.5;
#X obj 384 415 osc~;
#X obj 44 356 *~;
#X obj 286 83 abs~;
#X obj 286 55 noise~;
#X obj 42 266 *~ 256;
#X obj 381 262 *~ 256;
#X obj 45 386 +~;
#X obj 382 358 *~;
#X obj 383 388 +~;
#X obj 44 421 osc~;
#X obj 103 415 tabread~ soft;
#X obj 441 406 tabread~ soft;
#X obj 48 534 outlet~;
#X floatatom 220 362 5 0 0 0 - - -;
#X floatatom 239 259 5 0 0 0 - - -;
#X obj 46 488 *~ 0.2;
#X obj 239 235 + 100;
#X obj 221 338 - 100;
#X obj 239 211 * 2000;
#X obj 220 316 * 2000;
#X obj 38 54 * 1000;
#X obj 44 19 inlet A;
#X obj 235 186 inlet B;
#X obj 223 291 inlet C;
#X connect 0 0 2 1;
#X connect 0 0 7 0;
#X connect 0 0 12 0;
#X connect 1 0 0 0;
#X connect 2 0 9 0;
#X connect 3 0 23 0;
#X connect 4 0 15 0;
#X connect 5 0 23 0;
#X connect 6 0 4 1;
#X connect 6 0 13 0;
#X connect 7 0 6 0;
#X connect 8 0 5 0;
#X connect 9 0 14 0;
#X connect 10 0 2 0;
#X connect 10 0 4 0;
#X connect 11 0 10 0;
#X connect 12 0 18 0;
#X connect 13 0 19 0;
#X connect 14 0 17 0;
#X connect 15 0 16 0;
#X connect 16 0 8 0;
#X connect 17 0 3 0;
#X connect 18 0 3 1;
#X connect 19 0 5 1;
#X connect 23 0 20 0;
#X connect 24 0 9 1;
#X connect 24 0 22 0;
#X connect 24 0 15 1;
#X connect 25 0 21 0;
#X connect 25 0 14 1;
#X connect 25 0 16 1;
#X connect 26 0 24 0;
#X connect 27 0 25 0;
#X connect 28 0 1 0;
#X connect 29 0 28 0;
#X connect 30 0 26 0;
#X connect 31 0 27 0;
#X restore 220 243 pd windDrone2;
#N canvas 444 605 1335 788 crunch 0;
#X obj 50 228 *~;
#X obj 50 137 *~ 256;
#X obj 49 197 osc~;
#X obj 100 199 tabread~ soft;
#X obj 53 434 outlet~;
#X obj 51 80 inlet~;
#X obj 178 233 inlet;
#X obj 179 288 line 0 1;
#X obj 182 316 hsl 128 15 0 1 0 0 empty empty empty -2 -8 0 10 -262144
-1 -1 0 1;
#N canvas 1509 628 738 536 filter 0;
#X floatatom 226 247 5 0 0 0 - - -;
#X obj 124 322 lop~;
#X obj 288 18 inlet;
#X obj 126 492 outlet~;
#X obj 111 193 inlet~;
#X obj 224 177 * 3000;
#X connect 0 0 1 1;
#X connect 1 0 3 0;
#X connect 2 0 5 0;
#X connect 4 0 1 0;
#X connect 5 0 0 0;
#X restore 52 343 pd filter;
#X obj 56 383 *~;
#X obj 119 366 r gain;
#X obj 51 264 *~ 0.3;
#X msg 179 264 \$1 1000;
#X connect 0 0 12 0;
#X connect 1 0 3 0;
#X connect 2 0 0 0;
#X connect 3 0 0 1;
#X connect 5 0 1 0;
#X connect 6 0 13 0;
#X connect 7 0 8 0;
#X connect 8 0 9 1;
#X connect 9 0 10 0;
#X connect 10 0 4 0;
#X connect 11 0 10 1;
#X connect 12 0 9 0;
#X connect 13 0 7 0;
#X restore 212 344 pd crunch;
#X obj 325 297 tgl 15 0 empty empty empty 17 7 0 10 -262144 -1 -1 0
1;
#X obj 657 176 s BUTTON_A @owl B1;
#X text 673 204 BUTTON A LED;
#X obj 844 176 s BUTTON_B @owl B2;
#X text 860 204 BUTTON B LED;
#X obj 667 105 s crunch;
#X obj 324 215 r crunch;
#X obj 401 297 tgl 15 0 empty empty empty 17 7 0 10 -262144 -1 -1 0
1;
#N canvas 444 604 1335 788 ringMod 0;
#X obj 53 434 outlet~;
#X obj 46 102 inlet~;
#X obj 178 233 inlet;
#X obj 179 288 line 0 1;
#X obj 182 316 hsl 128 15 0 1 0 0 empty empty empty -2 -8 0 10 -262144
-1 -1 0 1;
#X obj 56 383 *~;
#X obj 103 328 r gain;
#X obj 47 205 *~;
#X obj 129 162 osc~ 1;
#X obj 50 270 *~;
#X floatatom 166 119 10 0 0 0 - - -;
#X msg 179 264 \$1 1000;
#X obj 118 78 * 4000;
#X obj 124 105 + 1000;
#X obj 129 363 / 8;
#X obj 115 46 r freqA;
#X connect 1 0 7 0;
#X connect 2 0 11 0;
#X connect 3 0 4 0;
#X connect 4 0 9 1;
#X connect 5 0 0 0;
#X connect 6 0 14 0;
#X connect 7 0 9 0;
#X connect 8 0 7 1;
#X connect 9 0 5 0;
#X connect 10 0 8 0;
#X connect 11 0 3 0;
#X connect 12 0 13 0;
#X connect 13 0 10 0;
#X connect 14 0 5 1;
#X connect 15 0 12 0;
#X restore 325 345 pd ringMod;
#X obj 832 100 s ring;
#X obj 472 237 r ring;
#X obj 32 140 s freqA;
#X obj 181 136 s freqB;
#X obj 327 145 s freqC;
#X obj 93 208 r freqA;
#X obj 177 206 r freqB;
#X obj 244 205 r freqC;
#X obj 746 122 tgl 15 0 empty empty empty 17 7 0 10 -262144 -1 -1 0
1;
#X obj 745 99 bng 15 250 50 0 empty empty empty 17 7 0 10 -262144 -1
-1;
#X obj 910 99 tgl 15 0 empty empty empty 17 7 0 10 -262144 -1 -1 0
1;
#X obj 909 76 bng 15 250 50 0 empty empty empty 17 7 0 10 -262144 -1
-1;
#X msg 351 263 0;
#X obj 349 239 loadbang;
#X floatatom 554 408 5 0 0 0 - - -;
#X obj 568 662 hsl 128 15 0 1 0 0 empty empty empty -2 -8 0 10 -262144
-1 -1 3130 1;
#X obj 547 446 / 100;
#X floatatom 582 501 5 0 0 0 - - -;
#X obj 564 622 line;
#X floatatom 595 686 5 0 0 0 - - -;
#X obj 567 581 pack f \$2;
#X obj 640 522 hsl 128 15 0 1 0 0 empty empty RandomSlew -2 -8 0 10
-262144 -1 -1 12700 1;
#X obj 636 542 * 300;
#X text 614 770 CV OUT 1;
#X obj 563 740 s CV_OUT_1 @owl F;
#X obj 621 274 r freqA;
#X obj 543 309 tgl 15 0 empty empty empty 17 7 0 10 -262144 -1 -1 1
1;
#X obj 543 269 loadbang;
#X obj 628 326 * 100;
#X floatatom 641 297 5 0 0 0 - - -;
#X obj 541 340 metro 100;
#X obj 543 382 random \$1;
#X floatatom 784 401 5 0 0 0 - - -;
#X obj 798 655 hsl 128 15 0 1 0 0 empty empty empty -2 -8 0 10 -262144
-1 -1 2010 1;
#X obj 777 439 / 100;
#X floatatom 812 494 5 0 0 0 - - -;
#X obj 794 615 line;
#X floatatom 825 679 5 0 0 0 - - -;
#X obj 797 574 pack f \$2;
#X obj 870 515 hsl 128 15 0 1 0 0 empty empty RandomSlew -2 -8 0 10
-262144 -1 -1 12700 1;
#X obj 866 535 * 300;
#X obj 773 302 tgl 15 0 empty empty empty 17 7 0 10 -262144 -1 -1 1
1;
#X obj 773 262 loadbang;
#X obj 858 319 * 100;
#X floatatom 871 290 5 0 0 0 - - -;
#X obj 772 333 metro 100;
#X obj 773 375 random \$1;
#X obj 851 267 r freqB;
#X msg 870 475 1;
#X obj 877 442 loadbang;
#X msg 667 472 1;
#X obj 674 439 loadbang;
#X floatatom 1076 437 5 0 0 0 - - -;
#X obj 1065 338 tgl 15 0 empty empty empty 17 7 0 10 -262144 -1 -1
1 1;
#X obj 1065 278 loadbang;
#X obj 1064 634 bng 15 250 50 0 empty empty empty 17 7 0 10 -262144
-1 -1;
#X obj 1062 609 t b;
#X obj 1062 585 moses \$1;
#X obj 1145 475 r freqC;
#X floatatom 1166 545 5 0 0 0 - - -;
#X obj 1126 545 + 20;
#X floatatom 1149 580 5 0 0 0 - - -;
#X obj 1064 368 metro 100;
#X text 1058 769 GATE OUT;
#X obj 1018 742 s GATE_OUT @owl Push;
#N canvas 602 394 1654 1024 gateToTrigger 0;
#X obj 57 70 sel 1;
#X obj 57 101 bng 15 250 50 0 empty empty empty 17 7 0 10 -262144 -1
-1;
#X obj 84 246 + 1;
#X obj 46 246 i;
#X obj 53 138 t b b;
#X floatatom 45 276 5 0 0 0 - - -;
#X msg 101 206 0;
#X obj 59 44 inlet;
#X obj 41 315 outlet;
#X obj 99 172 delay 50;
#X connect 0 0 1 0;
#X connect 1 0 4 0;
#X connect 2 0 3 1;
#X connect 3 0 2 0;
#X connect 3 0 5 0;
#X connect 4 0 3 0;
#X connect 4 1 9 0;
#X connect 5 0 8 0;
#X connect 6 0 3 0;
#X connect 7 0 0 0;
#X connect 9 0 6 0;
#X restore 1082 673 pd gateToTrigger;
#X floatatom 1146 715 5 0 0 0 - - -;
#X obj 1161 511 * 60;
#X obj 1064 411 random 200;
#X text 831 772 CV OUT 2;
#X obj 799 742 s CV_OUT_2 @owl G;
#X msg 1108 638 1;
#X obj 485 43 r Gain @owl D;
#X obj 327 45 r FrequencyC @owl C;
#X obj 178 50 r FrequencyB @owl B;
#X obj 31 52 r FrequencyA @owl A;
#X obj 667 47 r Crusher @owl B1;
#X obj 833 40 r RingMod @owl B2;
#X connect 2 0 31 0;
#X connect 3 0 32 0;
#X connect 4 0 33 0;
#X connect 5 0 0 0;
#X connect 5 1 0 1;
#X connect 6 0 7 0;
#X connect 8 0 5 2;
#X connect 14 0 25 0;
#X connect 14 1 38 0;
#X connect 15 0 29 0;
#X connect 15 1 40 0;
#X connect 17 0 5 0;
#X connect 17 0 19 0;
#X connect 17 0 28 0;
#X connect 18 0 5 1;
#X connect 18 0 28 0;
#X connect 19 0 0 0;
#X connect 19 0 0 1;
#X connect 20 0 19 1;
#X connect 26 0 20 0;
#X connect 27 0 28 1;
#X connect 28 0 0 0;
#X connect 28 0 0 1;
#X connect 30 0 27 0;
#X connect 34 0 17 0;
#X connect 34 0 18 0;
#X connect 35 0 17 2;
#X connect 35 0 18 2;
#X connect 36 0 17 1;
#X connect 36 0 18 1;
#X connect 37 0 21 0;
#X connect 38 0 37 0;
#X connect 39 0 23 0;
#X connect 40 0 39 0;
#X connect 41 0 20 0;
#X connect 41 0 27 0;
#X connect 42 0 41 0;
#X connect 44 0 48 0;
#X connect 44 0 53 0;
#X connect 45 0 46 0;
#X connect 45 0 49 0;
#X connect 47 0 44 0;
#X connect 49 0 47 0;
#X connect 50 0 51 0;
#X connect 51 0 49 1;
#X connect 54 0 58 0;
#X connect 54 0 57 0;
#X connect 55 0 59 0;
#X connect 56 0 55 0;
#X connect 57 0 60 1;
#X connect 59 0 60 0;
#X connect 60 0 43 0;
#X connect 60 0 45 0;
#X connect 62 0 66 0;
#X connect 62 0 99 0;
#X connect 63 0 64 0;
#X connect 63 0 67 0;
#X connect 65 0 62 0;
#X connect 67 0 65 0;
#X connect 68 0 69 0;
#X connect 69 0 67 1;
#X connect 70 0 74 0;
#X connect 71 0 70 0;
#X connect 72 0 75 1;
#X connect 74 0 75 0;
#X connect 75 0 61 0;
#X connect 75 0 63 0;
#X connect 76 0 73 0;
#X connect 76 0 72 0;
#X connect 77 0 68 0;
#X connect 78 0 77 0;
#X connect 79 0 50 0;
#X connect 80 0 79 0;
#X connect 82 0 91 0;
#X connect 83 0 82 0;
#X connect 84 0 100 0;
#X connect 85 0 84 0;
#X connect 86 0 85 0;
#X connect 87 0 96 0;
#X connect 89 0 90 0;
#X connect 89 0 86 1;
#X connect 91 0 97 0;
#X connect 94 0 95 0;
#X connect 94 0 93 0;
#X connect 96 0 88 0;
#X connect 96 0 89 0;
#X connect 97 0 81 0;
#X connect 97 0 86 0;
#X connect 100 0 94 0;
#X connect 101 0 7 0;
#X connect 102 0 33 0;
#X connect 103 0 32 0;
#X connect 104 0 31 0;
#X connect 105 0 14 0;
#X connect 106 0 15 0;
