#N canvas 138 194 2135 967 12;
#N canvas 775 886 669 442 tapTempo 0;
#X obj 41 168 sel 1 2;
#X floatatom 47 250 5 0 0 0 - - -;
#X msg 40 218 1;
#X msg 73 218 0;
#X obj 73 195 t b b;
#X msg 93 167 0;
#X obj 44 142 +;
#X floatatom 72 144 5 0 0 0 - - -;
#X obj 47 302 timer;
#X obj 45 90 bng 15 250 50 0 empty empty empty 0 -6 0 10 -4034 -1 -1
;
#X msg 42 114 1;
#X obj 47 275 sel 1 0;
#X floatatom 47 326 5 0 0 0 - - -;
#X obj 225 189 bng 25 250 50 0 empty empty empty 0 -6 0 10 -262144
-1 -1;
#X msg 203 110 1;
#X obj 178 51 loadbang;
#X obj 204 153 metro 500;
#X text 86 326 time passed between two clicks (in ms.);
#X text 257 192 Tempo;
#X obj 42 19 inlet;
#X obj 225 219 outlet;
#X obj 42 59 sel 1;
#X obj 123 57 inlet;
#X msg 251 114 0;
#X obj 259 15 inlet;
#X obj 254 49 sel 1;
#X floatatom 44 407 5 0 0 0 - - -;
#X text 79 374 Doble velocidad;
#X obj 394 193 bng 25 250 50 0 empty empty empty 0 -6 0 10 -262144
-1 -1;
#X obj 373 157 metro 500;
#X text 426 196 Tempo;
#X obj 394 223 outlet;
#X msg 378 115 1;
#X obj 353 56 loadbang;
#X msg 435 118 0;
#X obj 45 373 / 2;
#X connect 0 0 2 0;
#X connect 0 1 4 0;
#X connect 1 0 11 0;
#X connect 2 0 1 0;
#X connect 3 0 1 0;
#X connect 4 0 3 0;
#X connect 4 1 5 0;
#X connect 5 0 7 0;
#X connect 6 0 7 0;
#X connect 7 0 6 1;
#X connect 7 0 0 0;
#X connect 8 0 12 0;
#X connect 9 0 10 0;
#X connect 10 0 6 0;
#X connect 11 0 8 0;
#X connect 11 1 8 1;
#X connect 12 0 16 1;
#X connect 12 0 35 0;
#X connect 13 0 20 0;
#X connect 14 0 16 0;
#X connect 15 0 14 0;
#X connect 16 0 13 0;
#X connect 19 0 21 0;
#X connect 21 0 9 0;
#X connect 22 0 9 0;
#X connect 23 0 16 0;
#X connect 24 0 25 0;
#X connect 25 0 23 0;
#X connect 25 0 34 0;
#X connect 25 1 14 0;
#X connect 25 1 32 0;
#X connect 26 0 29 1;
#X connect 28 0 31 0;
#X connect 29 0 28 0;
#X connect 32 0 29 0;
#X connect 33 0 32 0;
#X connect 34 0 29 0;
#X connect 35 0 26 0;
#X restore 63 146 pd tapTempo;
#X obj 63 71 r Button_1 @owl B1;
#X text 88 47 BUT 1_ CLOCK;
#X obj 100 106 bng 15 250 50 0 empty empty empty 17 7 0 10 -262144
-1 -1;
#X obj 63 174 bng 15 250 50 0 empty empty empty 17 7 0 10 -262144 -1
-1;
#X obj 221 69 r Button_2 @owl B2;
#X obj 64 234 s clock;
#X text 261 42 BUT 2_;
#X text 248 390 GATE OUT;
#X obj 208 360 s GATE_OUT @owl Push;
#X obj 149 112 tgl 15 0 empty empty empty 17 7 0 10 -262144 -1 -1 0
1;
#X obj 59 358 s BUTTON_A @owl B1;
#X text 75 386 BUTTON A LED;
#X obj 209 142 s BUTTON_B @owl B2;
#X text 225 170 BUTTON B LED;
#X obj 635 128 hsl 128 15 10 0 0 0 empty empty RandomAmount -2 -8 0
10 -262144 -1 -1 12700 1;
#X floatatom 699 177 5 0 0 0 - - -;
#X obj 459 105 r clock;
#X obj 583 71 loadbang;
#X floatatom 473 339 5 0 0 0 - - -;
#X obj 487 593 hsl 128 15 0 1 0 0 empty empty empty -2 -8 0 10 -262144
-1 -1 0 1;
#X floatatom 504 172 5 0 0 0 - - -;
#X obj 460 215 +;
#X obj 460 271 bng 15 250 50 0 empty empty empty 17 7 0 10 -262144
-1 -1;
#X obj 636 152 i;
#X msg 585 97 0;
#X obj 462 147 random 10;
#X obj 460 238 moses 10;
#X obj 466 377 / 100;
#X floatatom 501 432 5 0 0 0 - - -;
#X obj 483 553 line;
#X floatatom 514 617 5 0 0 0 - - -;
#X obj 486 512 pack f \$2;
#X obj 615 468 hsl 128 15 0 1 0 0 empty empty RandomSlew -2 -8 0 10
-262144 -1 -1 0 1;
#X obj 611 488 * 300;
#X text 885 50 POT A;
#X obj 861 78 r Pot_A @owl A;
#X text 1105 53 POT B;
#X obj 1078 81 r Pot_B @owl B;
#X obj 902 117 hsl 128 15 0 1 0 0 empty empty empty -2 -8 0 10 -262144
-1 -1 0 1;
#X obj 1101 112 hsl 128 15 0 1 0 0 empty empty empty -2 -8 0 10 -262144
-1 -1 0 1;
#N canvas 0 23 450 300 invertSlider 0;
#X obj 81 91 * 10;
#X obj 81 116 i;
#X msg 81 140 10 \$1;
#X obj 81 164 -;
#X floatatom 123 188 5 0 0 0 - - -;
#X obj 84 210 outlet;
#X obj 85 56 inlet;
#X connect 0 0 1 0;
#X connect 1 0 2 0;
#X connect 2 0 3 0;
#X connect 3 0 4 0;
#X connect 3 0 5 0;
#X connect 6 0 0 0;
#X restore 855 169 pd invertSlider;
#X obj 859 214 s randAmount;
#X obj 672 82 r randAmount;
#X obj 1088 161 s slew;
#X obj 614 420 r slew;
#X obj 1261 373 hsl 128 15 10 0 0 0 empty empty BurstDensity -2 -8
0 10 -262144 -1 -1 12700 1;
#X floatatom 1312 429 5 0 0 0 - - -;
#X obj 1270 404 int;
#X obj 1236 310 loadbang;
#X floatatom 1224 445 5 0 0 0 - - -;
#X obj 1174 461 +;
#X obj 1171 518 bng 15 250 50 0 empty empty empty 17 7 0 10 -262144
-1 -1;
#X msg 1238 336 0;
#X obj 139 200 s multi4Clock;
#X obj 1116 323 r multi4Clock;
#X obj 1171 548 s burstClock;
#X obj 197 288 r burstClock;
#X text 1331 56 POT C;
#X obj 1304 84 r Pot_C @owl C;
#X obj 1308 311 r burstDensity;
#N canvas 0 23 450 300 invertSlider 0;
#X obj 81 91 * 10;
#X obj 81 116 i;
#X msg 81 140 10 \$1;
#X obj 81 164 -;
#X floatatom 123 188 5 0 0 0 - - -;
#X obj 84 210 outlet;
#X obj 85 56 inlet;
#X connect 0 0 1 0;
#X connect 1 0 2 0;
#X connect 2 0 3 0;
#X connect 3 0 4 0;
#X connect 3 0 5 0;
#X connect 6 0 0 0;
#X restore 1502 120 pd invertSlider;
#X obj 1508 154 s burstDensity;
#X obj 60 328 tgl 15 0 empty empty empty 17 7 0 10 -262144 -1 -1 0
1;
#X text 533 701 CV OUT 1;
#X obj 482 671 s CV_OUT_1 @owl F;
#X obj 1170 394 random 10;
#X obj 1174 485 moses 10;
#X obj 1691 145 hsl 128 15 0 1 0 0 empty empty empty -2 -8 0 10 -262144
-1 -1 0 1;
#X floatatom 611 512 5 0 0 0 - - -;
#X obj 1671 97 r Pot_D @owl D;
#X text 1698 69 POT D;
#X obj 1660 189 * 100;
#X floatatom 1696 240 5 0 0 0 - - -;
#X obj 1660 270 s attenuator;
#X obj 548 276 r attenuator;
#X obj 461 314 random \$1;
#X obj 1489 400 tgl 15 0 empty empty empty 17 7 0 10 -262144 -1 -1
0 1;
#X obj 1483 354 r burstClock;
#X floatatom 1508 473 5 0 0 0 - - -;
#X obj 1522 727 hsl 128 15 0 1 0 0 empty empty empty -2 -8 0 10 -262144
-1 -1 8890 1;
#X obj 1501 511 / 100;
#X floatatom 1536 566 5 0 0 0 - - -;
#X obj 1518 687 line;
#X floatatom 1549 751 5 0 0 0 - - -;
#X obj 1521 646 pack f \$2;
#X obj 1491 426 bng 15 250 50 0 empty empty empty 17 7 0 10 -262144
-1 -1;
#X obj 1332 123 hsl 128 15 0 1 0 0 empty empty empty -2 -8 0 10 -262144
-1 -1 0 1;
#X obj 1301 146 * 100;
#X obj 1301 170 s attenuator2;
#X obj 1555 411 r attenuator2;
#X obj 1522 86 hsl 128 15 0 1 0 0 empty empty empty -2 -8 0 10 -262144
-1 -1 0 1;
#X obj 1600 590 loadbang;
#X msg 1602 616 0;
#X text 1500 850 CV OUT 2;
#X obj 1468 820 s CV_OUT_2 @owl G;
#X obj 1496 448 random 100;
#X obj 203 477 r clock;
#X obj 108 463 adc~;
#N canvas 602 417 1654 1024 gateToTrigger 0;
#X obj 57 70 sel 1;
#X obj 57 101 bng 15 250 50 0 empty empty empty 17 7 0 10 -262144 -1
-1;
#X obj 84 246 + 1;
#X obj 46 246 i;
#X obj 53 138 t b b;
#X floatatom 45 276 5 0 0 0 - - -;
#X msg 101 206 0;
#X obj 98 172 delay 100;
#X obj 59 44 inlet;
#X obj 41 315 outlet;
#X connect 0 0 1 0;
#X connect 1 0 4 0;
#X connect 2 0 3 1;
#X connect 3 0 2 0;
#X connect 3 0 5 0;
#X connect 4 0 3 0;
#X connect 4 1 7 0;
#X connect 5 0 9 0;
#X connect 6 0 3 0;
#X connect 7 0 6 0;
#X connect 8 0 0 0;
#X restore 271 313 pd gateToTrigger;
#X floatatom 302 337 5 0 0 0 - - -;
#N canvas 1010 529 769 745 sample&hold 1;
#X obj 71 151 t b b;
#X obj 68 286 snapshot~;
#X obj 153 206 f 0;
#X obj 254 245 select 0;
#X obj 69 350 tabwrite array1;
#X obj 254 269 s stop;
#X obj 89 56 r stop;
#X obj 66 83 tgl 15 0 empty empty empty 17 7 0 10 -262144 -1 -1 0 1
;
#X obj 69 115 metro 1;
#N canvas 0 22 450 278 (subpatch) 0;
#X array array1 1 float 3;
#A 0 2.39306e-05;
#X coords 0 1 1 -1 200 140 1;
#X restore 210 50 graph;
#X obj 129 535 clip~ -1 1;
#X obj 203 364 % 1;
#X obj 133 579 outlet~ A;
#X obj 271 580 outlet~ B;
#X obj 136 445 tabread~ array1;
#X obj 12 221 inlet~ A;
#X obj 109 21 inlet C;
#X obj 198 208 + 1;
#X obj 285 501 *~ -1;
#X obj 278 532 clip~ -1 1;
#X obj 255 205 mod 1;
#X connect 0 0 1 0;
#X connect 0 1 2 0;
#X connect 1 0 4 0;
#X connect 2 0 4 1;
#X connect 2 0 17 0;
#X connect 3 0 5 0;
#X connect 6 0 7 0;
#X connect 7 0 8 0;
#X connect 8 0 0 0;
#X connect 10 0 12 0;
#X connect 11 0 14 0;
#X connect 14 0 10 0;
#X connect 14 0 18 0;
#X connect 15 0 1 0;
#X connect 16 0 7 0;
#X connect 16 0 11 0;
#X connect 17 0 20 0;
#X connect 18 0 19 0;
#X connect 19 0 13 0;
#X connect 20 0 2 1;
#X connect 20 0 3 0;
#X restore 108 515 pd sample&hold;
#X obj 131 567 dac~ 1 2;
#X connect 0 0 4 0;
#X connect 0 1 54 0;
#X connect 0 1 63 0;
#X connect 1 0 0 0;
#X connect 3 0 0 1;
#X connect 4 0 6 0;
#X connect 5 0 10 0;
#X connect 10 0 0 2;
#X connect 10 0 13 0;
#X connect 15 0 24 0;
#X connect 15 0 22 1;
#X connect 17 0 26 0;
#X connect 18 0 25 0;
#X connect 20 0 31 0;
#X connect 20 0 65 0;
#X connect 22 0 27 0;
#X connect 23 0 76 0;
#X connect 24 0 16 0;
#X connect 25 0 15 0;
#X connect 26 0 21 0;
#X connect 26 0 22 0;
#X connect 27 0 23 0;
#X connect 28 0 29 0;
#X connect 28 0 32 0;
#X connect 30 0 20 0;
#X connect 32 0 30 0;
#X connect 33 0 34 0;
#X connect 34 0 32 1;
#X connect 34 0 69 0;
#X connect 36 0 39 0;
#X connect 38 0 40 0;
#X connect 39 0 41 0;
#X connect 40 0 44 0;
#X connect 41 0 42 0;
#X connect 43 0 15 0;
#X connect 45 0 33 0;
#X connect 46 0 48 0;
#X connect 46 0 51 1;
#X connect 48 0 47 0;
#X connect 49 0 53 0;
#X connect 51 0 67 0;
#X connect 52 0 56 0;
#X connect 53 0 46 0;
#X connect 55 0 66 0;
#X connect 57 0 99 0;
#X connect 59 0 61 0;
#X connect 60 0 46 0;
#X connect 61 0 62 0;
#X connect 63 0 11 0;
#X connect 66 0 50 0;
#X connect 66 0 51 0;
#X connect 67 0 52 0;
#X connect 68 0 72 0;
#X connect 70 0 72 0;
#X connect 72 0 73 0;
#X connect 72 0 74 0;
#X connect 75 0 76 1;
#X connect 76 0 19 0;
#X connect 76 0 28 0;
#X connect 77 0 86 0;
#X connect 78 0 77 0;
#X connect 80 0 84 0;
#X connect 80 0 95 0;
#X connect 81 0 82 0;
#X connect 81 0 85 0;
#X connect 83 0 80 0;
#X connect 85 0 83 0;
#X connect 86 0 96 0;
#X connect 87 0 88 0;
#X connect 88 0 89 0;
#X connect 91 0 61 0;
#X connect 92 0 93 0;
#X connect 93 0 85 1;
#X connect 96 0 79 0;
#X connect 96 0 81 0;
#X connect 97 0 101 1;
#X connect 98 0 101 0;
#X connect 99 0 100 0;
#X connect 99 0 9 0;
#X connect 101 0 102 0;
#X connect 101 1 102 1;
