#N canvas 138 194 2135 967 12;
#N canvas 775 886 669 442 tapTempo 0;
#X obj 41 168 sel 1 2;
#X floatatom 47 250 5 0 0 0 - - -;
#X msg 40 218 1;
#X msg 73 218 0;
#X obj 73 195 t b b;
#X msg 93 167 0;
#X obj 44 142 +;
#X floatatom 72 144 5 0 0 0 - - -;
#X obj 47 302 timer;
#X obj 45 90 bng 15 250 50 0 empty empty empty 0 -6 0 10 -4034 -1 -1
;
#X msg 42 114 1;
#X obj 47 275 sel 1 0;
#X floatatom 47 326 5 0 0 0 - - -;
#X obj 225 189 bng 25 250 50 0 empty empty empty 0 -6 0 10 -262144
-1 -1;
#X msg 203 110 1;
#X obj 178 51 loadbang;
#X obj 204 153 metro 500;
#X text 86 326 time passed between two clicks (in ms.);
#X text 257 192 Tempo;
#X obj 42 19 inlet;
#X obj 225 219 outlet;
#X obj 42 59 sel 1;
#X obj 123 57 inlet;
#X msg 251 114 0;
#X obj 259 15 inlet;
#X obj 254 49 sel 1;
#X floatatom 44 407 5 0 0 0 - - -;
#X text 79 374 Doble velocidad;
#X obj 394 193 bng 25 250 50 0 empty empty empty 0 -6 0 10 -262144
-1 -1;
#X obj 373 157 metro 500;
#X text 426 196 Tempo;
#X obj 394 223 outlet;
#X msg 378 115 1;
#X obj 353 56 loadbang;
#X msg 435 118 0;
#X obj 45 373 / 2;
#X connect 0 0 2 0;
#X connect 0 1 4 0;
#X connect 1 0 11 0;
#X connect 2 0 1 0;
#X connect 3 0 1 0;
#X connect 4 0 3 0;
#X connect 4 1 5 0;
#X connect 5 0 7 0;
#X connect 6 0 7 0;
#X connect 7 0 6 1;
#X connect 7 0 0 0;
#X connect 8 0 12 0;
#X connect 9 0 10 0;
#X connect 10 0 6 0;
#X connect 11 0 8 0;
#X connect 11 1 8 1;
#X connect 12 0 16 1;
#X connect 12 0 35 0;
#X connect 13 0 20 0;
#X connect 14 0 16 0;
#X connect 15 0 14 0;
#X connect 16 0 13 0;
#X connect 19 0 21 0;
#X connect 21 0 9 0;
#X connect 22 0 9 0;
#X connect 23 0 16 0;
#X connect 24 0 25 0;
#X connect 25 0 23 0;
#X connect 25 0 34 0;
#X connect 25 1 14 0;
#X connect 25 1 32 0;
#X connect 26 0 29 1;
#X connect 28 0 31 0;
#X connect 29 0 28 0;
#X connect 32 0 29 0;
#X connect 33 0 32 0;
#X connect 34 0 29 0;
#X connect 35 0 26 0;
#X restore 63 146 pd tapTempo;
#X obj 63 71 r Button_1 @owl B1;
#X text 88 47 BUT 1_ CLOCK;
#X obj 100 106 bng 15 250 50 0 empty empty empty 17 7 0 10 -262144
-1 -1;
#X obj 63 174 bng 15 250 50 0 empty empty empty 17 7 0 10 -262144 -1
-1;
#X obj 221 69 r Button_2 @owl B2;
#X obj 64 234 s clock;
#X text 261 42 BUT 2_;
#X text 248 390 GATE OUT;
#X obj 208 360 s GATE_OUT @owl Push;
#X obj 148 113 tgl 15 0 empty empty empty 17 7 0 10 -262144 -1 -1 0
1;
#X obj 59 358 s BUTTON_A @owl B1;
#X text 75 386 BUTTON A LED;
#X obj 206 326 tgl 15 0 empty empty empty 17 7 0 10 -262144 -1 -1 0
1;
#X obj 209 142 s BUTTON_B @owl B2;
#X text 225 170 BUTTON B LED;
#X obj 635 128 hsl 128 15 10 0 0 0 empty empty RandomAmount -2 -8 0
10 -262144 -1 -1 12700 1;
#X floatatom 699 177 5 0 0 0 - - -;
#X obj 459 105 r clock;
#X obj 583 71 loadbang;
#X floatatom 473 339 5 0 0 0 - - -;
#X obj 487 593 hsl 128 15 0 1 0 0 empty empty empty -2 -8 0 10 -262144
-1 -1 1524 1;
#X floatatom 504 172 5 0 0 0 - - -;
#X obj 460 215 +;
#X obj 460 271 bng 15 250 50 0 empty empty empty 17 7 0 10 -262144
-1 -1;
#X obj 636 152 i;
#X msg 585 97 0;
#X obj 462 147 random 10;
#X obj 460 238 moses 10;
#X obj 460 314 random 100;
#X obj 466 377 / 100;
#X floatatom 501 432 5 0 0 0 - - -;
#X obj 483 553 line;
#X floatatom 514 617 5 0 0 0 - - -;
#X obj 486 512 pack f \$2;
#X obj 615 468 hsl 128 15 0 1 0 0 empty empty RandomSlew -2 -8 0 10
-262144 -1 -1 0 1;
#X obj 611 488 * 300;
#X text 885 50 POT A;
#X obj 861 78 r Pot_A @owl A;
#X text 1105 53 POT B;
#X obj 1078 81 r Pot_B @owl B;
#X obj 902 117 hsl 128 15 0 1 0 0 empty empty empty -2 -8 0 10 -262144
-1 -1 0 1;
#X obj 1101 112 hsl 128 15 0 1 0 0 empty empty empty -2 -8 0 10 -262144
-1 -1 0 1;
#N canvas 0 23 450 300 invertSlider 0;
#X obj 81 91 * 10;
#X obj 81 116 i;
#X msg 81 140 10 \$1;
#X obj 81 164 -;
#X floatatom 123 188 5 0 0 0 - - -;
#X obj 84 210 outlet;
#X obj 85 56 inlet;
#X connect 0 0 1 0;
#X connect 1 0 2 0;
#X connect 2 0 3 0;
#X connect 3 0 4 0;
#X connect 3 0 5 0;
#X connect 6 0 0 0;
#X restore 855 169 pd invertSlider;
#X obj 859 214 s randAmount;
#X obj 672 82 r randAmount;
#X obj 1088 161 s slew;
#X obj 614 420 r slew;
#X obj 1261 262 hsl 128 15 10 0 0 0 empty empty BurstDensity -2 -8
0 10 -262144 -1 -1 12700 1;
#X floatatom 1312 318 5 0 0 0 - - -;
#X obj 1270 293 int;
#X obj 1236 199 loadbang;
#X floatatom 1224 334 5 0 0 0 - - -;
#X obj 1174 350 +;
#X obj 1171 407 bng 15 250 50 0 empty empty empty 17 7 0 10 -262144
-1 -1;
#X msg 1238 225 0;
#X obj 139 200 s multi4Clock;
#X obj 1116 212 r multi4Clock;
#X obj 1171 437 s burstClock;
#X obj 197 288 r burstClock;
#X text 1331 56 POT C;
#X obj 1304 84 r Pot_C @owl C;
#X obj 1308 200 r burstDensity;
#N canvas 0 23 450 300 invertSlider 0;
#X obj 81 91 * 10;
#X obj 81 116 i;
#X msg 81 140 10 \$1;
#X obj 81 164 -;
#X floatatom 123 188 5 0 0 0 - - -;
#X obj 84 210 outlet;
#X obj 85 56 inlet;
#X connect 0 0 1 0;
#X connect 1 0 2 0;
#X connect 2 0 3 0;
#X connect 3 0 4 0;
#X connect 3 0 5 0;
#X connect 6 0 0 0;
#X restore 1305 122 pd invertSlider;
#X obj 1311 156 s burstDensity;
#X obj 60 328 tgl 15 0 empty empty empty 17 7 0 10 -262144 -1 -1 0
1;
#X text 533 701 CV OUT 1;
#X text 1436 725 CV OUT 2;
#X obj 1404 695 s CV_OUT_2 @owl G;
#X obj 482 671 s CV_OUT_1 @owl F;
#X obj 1170 283 random 10;
#X obj 1174 374 moses 10;
#X obj 1611 81 hsl 128 15 0 1 0 0 empty empty empty -2 -8 0 10 -262144
-1 -1 0 1;
#X obj 1402 646 hsl 128 15 0 1 0 0 empty empty empty -2 -8 0 10 -262144
-1 -1 0 1;
#X obj 1401 605 line;
#X obj 1404 564 pack f \$2;
#X obj 1533 520 hsl 128 15 0 1 0 0 empty empty RandomSlew -2 -8 0 10
-262144 -1 -1 0 1;
#X floatatom 1529 564 5 0 0 0 - - -;
#X obj 1408 465 tgl 15 0 empty empty empty 17 7 0 10 -262144 -1 -1
0 1;
#X floatatom 1408 485 5 0 0 0 - - -;
#X obj 1531 540 * 500;
#X obj 1412 418 r burstClock;
#X floatatom 611 512 5 0 0 0 - - -;
#X obj 1568 129 s slew2;
#X obj 1532 472 r slew2;
#X obj 1575 52 r Pot_D @owl D;
#X text 1602 24 POT D;
#X connect 0 0 4 0;
#X connect 0 1 56 0;
#X connect 0 1 65 0;
#X connect 1 0 0 0;
#X connect 3 0 0 1;
#X connect 4 0 6 0;
#X connect 5 0 10 0;
#X connect 10 0 0 2;
#X connect 10 0 14 0;
#X connect 13 0 9 0;
#X connect 16 0 25 0;
#X connect 16 0 23 1;
#X connect 18 0 27 0;
#X connect 19 0 26 0;
#X connect 21 0 33 0;
#X connect 21 0 69 0;
#X connect 23 0 28 0;
#X connect 24 0 29 0;
#X connect 25 0 17 0;
#X connect 26 0 16 0;
#X connect 27 0 22 0;
#X connect 27 0 23 0;
#X connect 28 0 24 0;
#X connect 29 0 20 0;
#X connect 29 0 30 0;
#X connect 30 0 31 0;
#X connect 30 0 34 0;
#X connect 32 0 21 0;
#X connect 34 0 32 0;
#X connect 35 0 36 0;
#X connect 36 0 34 1;
#X connect 36 0 82 0;
#X connect 38 0 41 0;
#X connect 40 0 42 0;
#X connect 41 0 43 0;
#X connect 42 0 46 0;
#X connect 43 0 44 0;
#X connect 45 0 16 0;
#X connect 47 0 35 0;
#X connect 48 0 50 0;
#X connect 48 0 53 1;
#X connect 50 0 49 0;
#X connect 51 0 55 0;
#X connect 53 0 71 0;
#X connect 54 0 58 0;
#X connect 55 0 48 0;
#X connect 57 0 70 0;
#X connect 59 0 13 0;
#X connect 61 0 63 0;
#X connect 62 0 48 0;
#X connect 63 0 64 0;
#X connect 65 0 11 0;
#X connect 70 0 52 0;
#X connect 70 0 53 0;
#X connect 71 0 54 0;
#X connect 72 0 83 0;
#X connect 73 0 68 0;
#X connect 74 0 73 0;
#X connect 75 0 74 0;
#X connect 76 0 80 0;
#X connect 78 0 79 0;
#X connect 79 0 75 0;
#X connect 80 0 75 1;
#X connect 80 0 77 0;
#X connect 81 0 78 0;
#X connect 84 0 76 0;
#X connect 85 0 83 0;
