#N canvas 226 234 1622 818 10;
#X obj 142 562 dac~;
#X obj 142 128 adc~;
#X text 299 100 POT A;
#X text 476 100 POT B;
#X text 651 100 POT C;
#X text 826 100 POT D;
#X text 569 592 CV OUT 1;
#X text 703 592 CV OUT 2;
#X text 119 100 AUDIO INPUT;
#X text 117 592 AUDIO OUTPUT;
#X text 1094 592 GATE OUT;
#X text 999 100 BUT 1;
#X text 1177 100 BUT 2;
#X obj 1054 562 s GATE_OUT @owl Push;
#X obj 671 562 s CV_OUT_2 @owl G;
#X obj 518 562 s CV_OUT_1 @owl F;
#X obj 275 128 r Pot_A @owl A;
#X obj 449 128 r Pot_B @owl B;
#X obj 798 128 r Pot_D @owl D;
#X obj 962 128 r Button_1 @owl B1;
#X obj 1139 128 r Button_2 @owl B2;
#X obj 624 128 r Pot_C @owl C;
#X obj 1236 561 s BUTTON_A @owl B1;
#X text 1252 589 BUTTON A LED;
#X obj 1360 561 s BUTTON_B @owl B2;
#X text 1376 589 BUTTON B LED;
