#N canvas 0 23 2560 1395 12;
#X obj 310 719 bng 15 250 50 0 empty empty empty 17 7 0 10 -262144
-1 -1;
#N canvas 0 23 450 278 (subpatch) 0;
#X array stepSeq_01 8 float 3;
#A 0 1 0 0 1 0 1 1 1;
#X coords 0 2 8 0 200 140 1 0 0;
#X restore 403 422 graph;
#N canvas 775 527 1785 807 tapTempo 0;
#X obj 41 168 sel 1 2;
#X floatatom 47 250 5 0 0 0 - - -;
#X msg 40 218 1;
#X msg 73 218 0;
#X obj 73 195 t b b;
#X msg 93 167 0;
#X obj 44 142 +;
#X floatatom 72 144 5 0 0 0 - - -;
#X obj 47 302 timer;
#X obj 45 90 bng 15 250 50 0 empty empty empty 0 -6 0 10 -4034 -1 -1
;
#X msg 42 114 1;
#X obj 47 275 sel 1 0;
#X floatatom 47 325 5 0 0 0 - - -;
#X obj 225 189 bng 25 250 50 0 empty empty empty 0 -6 0 10 -262144
-1 -1;
#X msg 203 110 1;
#X obj 178 51 loadbang;
#X obj 204 153 metro 500;
#X text 86 326 time passed between two clicks (in ms.);
#X text 257 192 Tempo;
#X obj 42 19 inlet;
#X obj 42 59 sel 1;
#X obj 123 57 inlet;
#X msg 251 114 0;
#X obj 259 15 inlet;
#X obj 254 49 sel 1;
#X floatatom 44 407 5 0 0 0 - - -;
#X text 79 374 Doble velocidad;
#X obj 394 193 bng 25 250 50 0 empty empty empty 0 -6 0 10 -262144
-1 -1;
#X obj 373 157 metro 500;
#X text 426 196 Tempo;
#X obj 394 223 outlet;
#X msg 378 115 1;
#X msg 435 118 0;
#X obj 45 373 / 2;
#X obj 102 419 s time x2;
#X obj 110 353 s time;
#X obj 425 65 r startMC;
#X obj 520 64 r stopMC;
#X floatatom 677 436 5 0 0 0 - - -;
#X obj 569 478 s ticks;
#N canvas 472 450 176 103 sixteenths 0;
#X obj 20 24 r ticks;
#X obj 20 57 outlet;
#X connect 0 0 1 0;
#X restore 741 355 pd sixteenths;
#X obj 568 309 f;
#X obj 568 334 + 1;
#X floatatom 639 389 5 0 0 0 - - -;
#N canvas 813 182 215 265 feel 0;
#X obj 21 86 & 1;
#X obj 21 58 t f f;
#X obj 21 25 inlet;
#X obj 21 221 outlet;
#X obj 21 126 pack;
#X obj 21 152 route 0 1;
#X text 16 170 even;
#X text 56 170 odd;
#X obj 89 152 *;
#X obj 99 125 t b f;
#X floatatom 89 192 5 0 0 0 - - -;
#X obj 46 191 pipe;
#X text 127 192 milliseconds;
#X obj 89 26 inlet;
#X text 19 4 ticks;
#X text 87 5 feel;
#X obj 99 91 r ticklength16;
#X connect 0 0 4 0;
#X connect 1 0 0 0;
#X connect 1 1 4 1;
#X connect 2 0 1 0;
#X connect 4 0 5 0;
#X connect 5 0 3 0;
#X connect 5 1 11 0;
#X connect 8 0 10 0;
#X connect 8 0 11 1;
#X connect 9 0 8 0;
#X connect 9 1 8 1;
#X connect 11 0 3 0;
#X connect 13 0 8 0;
#X connect 16 0 9 0;
#X restore 568 425 pd feel;
#X obj 568 362 & 255;
#X text 607 306 1/16 note tick length;
#X obj 740 392 outlet;
#X obj 300 401 s ticklength16;
#X obj 627 362 r swing;
#N canvas 602 394 1654 1024 gateToTrigger 0;
#X obj 57 70 sel 1;
#X obj 57 101 bng 15 250 50 0 empty empty empty 17 7 0 10 -262144 -1
-1;
#X obj 84 246 + 1;
#X obj 46 246 i;
#X obj 53 138 t b b;
#X floatatom 45 276 5 0 0 0 - - -;
#X msg 101 206 0;
#X obj 59 44 inlet;
#X obj 41 315 outlet;
#X obj 98 172 delay 10;
#X connect 0 0 1 0;
#X connect 1 0 4 0;
#X connect 2 0 3 1;
#X connect 3 0 2 0;
#X connect 3 0 5 0;
#X connect 4 0 3 0;
#X connect 4 1 9 0;
#X connect 5 0 8 0;
#X connect 6 0 3 0;
#X connect 7 0 0 0;
#X connect 9 0 6 0;
#X restore 715 99 pd gateToTrigger;
#X floatatom 746 123 5 0 0 0 - - -;
#X obj 714 65 r rand;
#X connect 0 0 2 0;
#X connect 0 1 4 0;
#X connect 1 0 11 0;
#X connect 2 0 1 0;
#X connect 3 0 1 0;
#X connect 4 0 3 0;
#X connect 4 1 5 0;
#X connect 5 0 7 0;
#X connect 6 0 7 0;
#X connect 7 0 6 1;
#X connect 7 0 0 0;
#X connect 8 0 12 0;
#X connect 9 0 10 0;
#X connect 10 0 6 0;
#X connect 11 0 8 0;
#X connect 11 1 8 1;
#X connect 12 0 16 1;
#X connect 12 0 33 0;
#X connect 12 0 35 0;
#X connect 12 0 48 0;
#X connect 14 0 16 0;
#X connect 15 0 14 0;
#X connect 16 0 13 0;
#X connect 16 0 41 0;
#X connect 19 0 20 0;
#X connect 20 0 9 0;
#X connect 21 0 9 0;
#X connect 22 0 16 0;
#X connect 23 0 24 0;
#X connect 24 0 22 0;
#X connect 24 0 32 0;
#X connect 24 1 14 0;
#X connect 24 1 31 0;
#X connect 25 0 28 1;
#X connect 25 0 34 0;
#X connect 27 0 30 0;
#X connect 28 0 27 0;
#X connect 31 0 28 0;
#X connect 32 0 28 0;
#X connect 33 0 25 0;
#X connect 36 0 31 0;
#X connect 37 0 32 0;
#X connect 40 0 47 0;
#X connect 41 0 42 0;
#X connect 42 0 45 0;
#X connect 44 0 39 0;
#X connect 44 0 38 0;
#X connect 45 0 41 1;
#X connect 45 0 44 0;
#X connect 49 0 44 1;
#X connect 49 0 43 0;
#X connect 50 0 51 0;
#X connect 52 0 50 0;
#X restore 65 192 pd tapTempo;
#X text 87 47 BUT 1_ CLOCK;
#X obj 100 159 bng 15 250 50 0 empty empty empty 17 7 0 10 -262144
-1 -1;
#X obj 65 249 bng 15 250 50 0 empty empty empty 17 7 0 10 -262144 -1
-1;
#X obj 60 287 s clock;
#X obj 140 160 tgl 15 0 empty empty empty 17 7 0 10 -262144 -1 -1 0
1;
#X obj 141 247 s multi4Clock;
#X floatatom 503 814 5 0 0 0 - - -;
#X obj 502 855 sel 1;
#X obj 516 118 sel 1;
#X text 553 67 BUT 2;
#X obj 388 187 s BUTTON_B @owl B2;
#X text 404 214 BUTTON B LED;
#X obj 593 123 bng 15 250 50 0 empty empty empty 17 7 0 10 -262144
-1 -1;
#X obj 2217 264 dac~;
#N canvas 1503 773 450 300 mixer 0;
#X obj 105 253 outlet~;
#X obj 216 69 inlet~ C;
#X obj 136 71 inlet~ B;
#X obj 52 69 inlet~ A;
#X obj 101 183 *~;
#X obj 200 144 loadbang;
#X msg 199 168 1;
#X msg 200 192 0;
#X connect 1 0 4 0;
#X connect 2 0 4 0;
#X connect 3 0 4 0;
#X connect 4 0 0 0;
#X connect 5 0 6 0;
#X connect 6 0 4 1;
#X connect 7 0 4 1;
#X restore 2216 215 pd mixer;
#X obj 2342 155 r~ audioNoiseC;
#X obj 2232 156 r~ audioNoiseB;
#X obj 2110 154 r~ audioNoiseA;
#N canvas 1595 706 965 697 oscLow 0;
#N canvas 426 630 831 675 vca_env 0;
#N canvas 1457 716 450 300 vline 0;
#X obj 37 17 inlet;
#X obj 94 121 unpack f f f;
#X obj 94 72 t a b;
#X msg 112 96 0;
#X text 145 97 Default to zero delay if 2 args supplied;
#X obj 37 208 line~;
#X obj 37 230 outlet~;
#X obj 37 39 route stop;
#X msg 37 131 stop;
#X obj 37 61 t b b;
#X msg 50 99 clear;
#N canvas 274 138 360 214 dbl-pipe 0;
#X obj 65 42 inlet;
#X obj 125 42 inlet;
#X obj 185 42 inlet;
#X obj 65 84 pipe 0;
#X obj 125 84 pipe 0;
#X obj 65 106 outlet;
#X obj 125 106 outlet;
#X connect 0 0 3 0;
#X connect 0 0 4 0;
#X connect 1 0 4 0;
#X connect 2 0 3 1;
#X connect 2 0 4 1;
#X connect 3 0 5 0;
#X connect 4 0 6 0;
#X restore 94 149 pd dbl-pipe;
#X obj 94 173 pack f f;
#X connect 0 0 7 0;
#X connect 1 0 11 0;
#X connect 1 1 11 1;
#X connect 1 2 11 2;
#X connect 2 0 1 0;
#X connect 2 1 3 0;
#X connect 3 0 11 2;
#X connect 5 0 6 0;
#X connect 7 0 9 0;
#X connect 7 1 2 0;
#X connect 8 0 5 0;
#X connect 9 0 8 0;
#X connect 9 1 10 0;
#X connect 10 0 11 0;
#X connect 10 0 11 1;
#X connect 11 0 12 0;
#X connect 11 1 12 1;
#X connect 12 0 5 0;
#X restore 36 111 pd vline;
#N canvas 1887 324 475 1094 advca 0;
#X obj 47 245 inlet;
#X obj 95 568 outlet;
#X obj 54 306 bng 15 250 50 0 empty empty empty 17 7 0 10 -262144 -1
-1;
#X obj 223 288 vsl 15 128 0 5000 0 0 empty empty empty 0 -9 0 10 -262144
-1 -1 254 1;
#X floatatom 261 459 5 0 0 0 - - -;
#X text 195 507 Define the envelope;
#X obj 159 288 vsl 15 128 0 15 0 0 empty empty empty 0 -9 0 10 -262144
-1 -1 93 1;
#X floatatom 204 461 5 0 0 0 - - -;
#X obj 287 272 vsl 15 128 10 30 0 0 empty empty empty 0 -9 0 10 -262144
-1 -1 794 1;
#X obj 105 471 pack f f f f;
#X floatatom 347 436 5 0 0 0 - - -;
#X msg 90 509 1 \$2 \, 0 \$3 \$4;
#X obj 184 191 loadbang;
#X msg 149 235 0.11;
#X msg 202 229 354.3;
#X msg 279 236 11.25;
#N canvas 1400 572 680 594 switch 0;
#X obj 114 257 spigot;
#X obj 156 213 tgl 15 0 empty empty empty 17 7 0 10 -262144 -1 -1 0
1;
#X obj 276 41 loadbang;
#X obj 186 256 spigot;
#X obj 225 86 tgl 15 0 empty empty empty 17 7 0 10 -262144 -1 -1 1
1;
#X obj 255 122 !=;
#X msg 273 79 1;
#X obj 114 301 outlet;
#X obj 108 154 inlet A;
#X obj 220 3 inlet B;
#X connect 0 0 7 0;
#X connect 1 0 0 1;
#X connect 2 0 6 0;
#X connect 4 0 3 1;
#X connect 4 0 5 0;
#X connect 5 0 1 0;
#X connect 6 0 5 1;
#X connect 8 0 0 0;
#X connect 9 0 4 0;
#X restore 54 373 pd switch;
#X obj 109 333 tgl 15 0 empty empty empty 17 7 0 10 -262144 -1 -1 1
1;
#X obj 88 243 r muteA;
#X msg 110 200 0;
#X obj 21 552 s seq1;
#X obj 35 428 bng 15 250 50 0 empty empty empty 17 7 0 10 -262144 -1
-1;
#X msg 36 454 1;
#X obj 175 46 r attack_01;
#X obj 200 90 * 15;
#X obj 200 114 + 0.11;
#X obj 292 51 r decay_01;
#X obj 308 89 * 600;
#X obj 307 113 + 100;
#X connect 0 0 2 0;
#X connect 2 0 16 0;
#X connect 3 0 4 0;
#X connect 3 0 9 2;
#X connect 6 0 7 0;
#X connect 6 0 9 1;
#X connect 8 0 9 3;
#X connect 8 0 10 0;
#X connect 9 0 11 0;
#X connect 11 0 1 0;
#X connect 12 0 13 0;
#X connect 12 0 14 0;
#X connect 12 0 15 0;
#X connect 12 0 19 0;
#X connect 13 0 6 0;
#X connect 14 0 3 0;
#X connect 15 0 8 0;
#X connect 16 0 9 0;
#X connect 16 0 21 0;
#X connect 17 0 16 1;
#X connect 18 0 17 0;
#X connect 19 0 17 0;
#X connect 21 0 22 0;
#X connect 22 0 20 0;
#X connect 23 0 24 0;
#X connect 24 0 25 0;
#X connect 25 0 6 0;
#X connect 26 0 27 0;
#X connect 27 0 28 0;
#X connect 28 0 3 0;
#X restore 35 75 pd advca;
#X obj 39 158 outlet~;
#X obj 34 27 inlet bang;
#X connect 0 0 2 0;
#X connect 1 0 0 0;
#X connect 3 0 1 0;
#X restore 183 178 pd vca_env;
#X obj 46 233 *~;
#X obj 51 289 *~;
#X obj 179 142 inlet trigger;
#X obj 53 455 outlet~;
#X obj 143 218 loadbang;
#X msg 120 255 0.4;
#X obj 27 22 r pitch_01;
#X obj 40 148 osc~;
#X msg 71 109 100;
#X obj 72 81 loadbang;
#X obj 28 66 * 100;
#X obj 28 90 + 50;
#X obj 72 398 *~;
#X obj 116 345 loadbang;
#X msg 109 370 1;
#X obj 348 259 / 127;
#X obj 317 180 pack f f f;
#X obj 337 216 i;
#X obj 305 142 ctlin 110;
#X connect 0 0 1 1;
#X connect 1 0 2 0;
#X connect 2 0 13 0;
#X connect 3 0 0 0;
#X connect 5 0 6 0;
#X connect 6 0 2 1;
#X connect 7 0 11 0;
#X connect 8 0 1 0;
#X connect 9 0 8 0;
#X connect 10 0 9 0;
#X connect 11 0 12 0;
#X connect 12 0 8 0;
#X connect 13 0 4 0;
#X connect 14 0 15 0;
#X connect 15 0 13 1;
#X connect 16 0 13 1;
#X connect 17 0 18 0;
#X connect 18 0 16 0;
#X connect 19 0 17 0;
#X connect 19 1 17 1;
#X restore 504 890 pd oscLow;
#X obj 504 920 s~ audioNoiseA;
#X obj 659 145 tgl 15 0 empty empty A/B 17 7 0 10 -262144 -1 -1 0 1
;
#X obj 609 709 int;
#N canvas 975 232 1215 732 trigSeq 0;
#X obj 31 120 f;
#X obj 73 121 + 1;
#X obj 28 235 bng 15 250 50 0 empty empty empty 17 7 0 10 -262144 -1
-1;
#X obj 31 172 % 8;
#X msg 78 75 0;
#X obj 31 38 r clock;
#X obj 28 208 sel 0;
#X obj 140 205 outlet;
#X floatatom 106 247 5 0 0 0 - - -;
#X obj 28 266 s rand;
#X connect 0 0 1 0;
#X connect 0 0 3 0;
#X connect 0 0 7 0;
#X connect 1 0 0 1;
#X connect 2 0 9 0;
#X connect 3 0 6 0;
#X connect 3 0 8 0;
#X connect 4 0 0 1;
#X connect 5 0 0 0;
#X connect 6 0 2 0;
#X restore 232 77 pd trigSeq;
#X obj 877 705 bng 15 250 50 0 empty empty empty 17 7 0 10 -262144
-1 -1;
#N canvas 0 22 450 278 (subpatch) 0;
#X array stepSeq_02 8 float 3;
#A 0 1 0 0 1 1 1 0 0;
#X coords 0 2 8 0 200 140 1 0 0;
#X restore 907 423 graph;
#X floatatom 1055 813 5 0 0 0 - - -;
#X obj 1054 854 sel 1;
#X obj 1158 698 hsl 128 15 0 8 0 0 empty empty empty -2 -8 0 10 -262144
-1 -1 0 1;
#X obj 1155 728 int;
#X obj 1056 958 s~ audioNoiseB;
#N canvas 1358 621 965 696 oscHigh 0;
#N canvas 1515 690 831 675 vca_env 0;
#N canvas 1457 716 450 300 vline 0;
#X obj 37 17 inlet;
#X obj 94 121 unpack f f f;
#X obj 94 72 t a b;
#X msg 112 96 0;
#X text 145 97 Default to zero delay if 2 args supplied;
#X obj 37 208 line~;
#X obj 37 230 outlet~;
#X obj 37 39 route stop;
#X msg 37 131 stop;
#X obj 37 61 t b b;
#X msg 50 99 clear;
#N canvas 274 138 360 214 dbl-pipe 0;
#X obj 65 42 inlet;
#X obj 125 42 inlet;
#X obj 185 42 inlet;
#X obj 65 84 pipe 0;
#X obj 125 84 pipe 0;
#X obj 65 106 outlet;
#X obj 125 106 outlet;
#X connect 0 0 3 0;
#X connect 0 0 4 0;
#X connect 1 0 4 0;
#X connect 2 0 3 1;
#X connect 2 0 4 1;
#X connect 3 0 5 0;
#X connect 4 0 6 0;
#X restore 94 149 pd dbl-pipe;
#X obj 94 173 pack f f;
#X connect 0 0 7 0;
#X connect 1 0 11 0;
#X connect 1 1 11 1;
#X connect 1 2 11 2;
#X connect 2 0 1 0;
#X connect 2 1 3 0;
#X connect 3 0 11 2;
#X connect 5 0 6 0;
#X connect 7 0 9 0;
#X connect 7 1 2 0;
#X connect 8 0 5 0;
#X connect 9 0 8 0;
#X connect 9 1 10 0;
#X connect 10 0 11 0;
#X connect 10 0 11 1;
#X connect 11 0 12 0;
#X connect 11 1 12 1;
#X connect 12 0 5 0;
#X restore 39 105 pd vline;
#N canvas 861 435 1374 948 advca 0;
#X obj 99 444 outlet;
#X obj 227 164 vsl 15 128 0 5000 0 0 empty empty empty 0 -9 0 10 -262144
-1 -1 254 1;
#X floatatom 265 335 5 0 0 0 - - -;
#X text 199 383 Define the envelope;
#X obj 163 164 vsl 15 128 0 15 0 0 empty empty empty 0 -9 0 10 -262144
-1 -1 0 1;
#X floatatom 208 337 5 0 0 0 - - -;
#X obj 291 148 vsl 15 128 10 30 0 0 empty empty empty 0 -9 0 10 -262144
-1 -1 0 1;
#X obj 109 347 pack f f f f;
#X floatatom 351 312 5 0 0 0 - - -;
#X msg 94 385 1 \$2 \, 0 \$3 \$4;
#X obj 186 54 loadbang;
#X msg 151 98 0;
#X msg 204 92 118;
#X msg 281 99 10;
#X obj 49 108 inlet;
#X obj 56 169 bng 15 250 50 0 empty empty empty 17 7 0 10 -262144 -1
-1;
#N canvas 1400 572 680 594 switch 0;
#X obj 114 257 spigot;
#X obj 156 213 tgl 15 0 empty empty empty 17 7 0 10 -262144 -1 -1 0
1;
#X obj 276 41 loadbang;
#X obj 186 256 spigot;
#X obj 225 86 tgl 15 0 empty empty empty 17 7 0 10 -262144 -1 -1 1
1;
#X obj 255 122 !=;
#X msg 273 79 1;
#X obj 114 301 outlet;
#X obj 108 154 inlet A;
#X obj 220 3 inlet B;
#X connect 0 0 7 0;
#X connect 1 0 0 1;
#X connect 2 0 6 0;
#X connect 4 0 3 1;
#X connect 4 0 5 0;
#X connect 5 0 1 0;
#X connect 6 0 5 1;
#X connect 8 0 0 0;
#X connect 9 0 4 0;
#X restore 55 236 pd switch;
#X obj 111 196 tgl 15 0 empty empty empty 17 7 0 10 -262144 -1 -1 1
1;
#X obj 102 139 r muteB;
#X msg 112 63 0;
#X obj 19 377 s seq2;
#X obj 37 291 bng 15 250 50 0 empty empty empty 17 7 0 10 -262144 -1
-1;
#X msg 38 317 1;
#X obj 484 87 * 15;
#X obj 591 110 + 100;
#X obj 458 43 r attack_02;
#X obj 576 48 r decay_02;
#X obj 592 86 * 400;
#X connect 1 0 2 0;
#X connect 1 0 7 2;
#X connect 4 0 5 0;
#X connect 4 0 7 1;
#X connect 6 0 7 3;
#X connect 6 0 8 0;
#X connect 7 0 9 0;
#X connect 9 0 0 0;
#X connect 10 0 11 0;
#X connect 10 0 12 0;
#X connect 10 0 13 0;
#X connect 10 0 19 0;
#X connect 11 0 4 0;
#X connect 12 0 1 0;
#X connect 13 0 6 0;
#X connect 14 0 15 0;
#X connect 15 0 16 0;
#X connect 16 0 7 0;
#X connect 16 0 21 0;
#X connect 17 0 16 1;
#X connect 18 0 17 0;
#X connect 19 0 17 0;
#X connect 21 0 22 0;
#X connect 22 0 20 0;
#X connect 23 0 4 0;
#X connect 24 0 1 0;
#X connect 25 0 23 0;
#X connect 26 0 27 0;
#X connect 27 0 24 0;
#X restore 38 69 pd advca;
#X obj 42 152 outlet~;
#X obj 34 27 inlet bang;
#X connect 0 0 2 0;
#X connect 1 0 0 0;
#X connect 3 0 1 0;
#X restore 194 178 pd vca_env;
#X obj 70 233 *~;
#X obj 62 289 *~;
#X obj 190 142 inlet trigger;
#X obj 67 470 outlet~;
#X obj 136 225 loadbang;
#X msg 131 291 0;
#X obj 177 20 loadbang;
#X msg 177 44 7500;
#X obj 50 149 osc~;
#X obj 27 22 r pitch_02;
#X floatatom 180 103 5 0 0 0 - - -;
#X obj 27 65 * 7000;
#X msg 113 261 0.1;
#X obj 27 90 + 10;
#X obj 65 393 *~;
#X obj 109 340 loadbang;
#X msg 102 365 1;
#X obj 341 254 / 127;
#X obj 310 175 pack f f f;
#X obj 330 211 i;
#X obj 298 137 ctlin 113;
#X connect 0 0 1 1;
#X connect 1 0 2 0;
#X connect 2 0 15 0;
#X connect 3 0 0 0;
#X connect 5 0 13 0;
#X connect 6 0 2 1;
#X connect 7 0 8 0;
#X connect 8 0 9 0;
#X connect 9 0 1 0;
#X connect 10 0 12 0;
#X connect 12 0 14 0;
#X connect 13 0 2 1;
#X connect 14 0 9 0;
#X connect 14 0 11 0;
#X connect 15 0 4 0;
#X connect 16 0 17 0;
#X connect 17 0 15 1;
#X connect 18 0 15 1;
#X connect 19 0 20 0;
#X connect 20 0 18 0;
#X connect 21 0 19 0;
#X connect 21 1 19 1;
#X restore 1056 925 pd oscHigh;
#X obj 557 263 s randTrig;
#X obj 310 686 r randTrig;
#X obj 877 676 r randTrig;
#X obj 232 149 s clockArray;
#X obj 503 676 r clockArray;
#X obj 1464 697 bng 15 250 50 0 empty empty empty 17 7 0 10 -262144
-1 -1;
#N canvas 0 22 450 278 (subpatch) 0;
#X array stepSeq_03 8 float 3;
#A 0 0 1 1 1 0 1 0 1;
#X coords 0 2 8 0 200 140 1 0 0;
#X restore 1524 408 graph;
#X floatatom 1701 791 5 0 0 0 - - -;
#X obj 1681 816 sel 1;
#X obj 1833 700 hsl 128 15 0 8 0 0 empty empty empty -2 -8 0 10 -262144
-1 -1 0 1;
#X obj 1830 730 int;
#X obj 1464 670 r randTrig;
#X obj 1681 895 s~ audioNoiseC;
#N canvas 857 138 765 610 noiseOsc 0;
#N canvas 1226 433 831 675 vca_env 0;
#N canvas 1457 716 450 300 vline 0;
#X obj 37 17 inlet;
#X obj 94 121 unpack f f f;
#X obj 94 72 t a b;
#X msg 112 96 0;
#X text 145 97 Default to zero delay if 2 args supplied;
#X obj 37 208 line~;
#X obj 37 230 outlet~;
#X obj 37 39 route stop;
#X msg 37 131 stop;
#X obj 37 61 t b b;
#X msg 50 99 clear;
#N canvas 274 138 360 214 dbl-pipe 0;
#X obj 65 42 inlet;
#X obj 125 42 inlet;
#X obj 185 42 inlet;
#X obj 65 84 pipe 0;
#X obj 125 84 pipe 0;
#X obj 65 106 outlet;
#X obj 125 106 outlet;
#X connect 0 0 3 0;
#X connect 0 0 4 0;
#X connect 1 0 4 0;
#X connect 2 0 3 1;
#X connect 2 0 4 1;
#X connect 3 0 5 0;
#X connect 4 0 6 0;
#X restore 94 149 pd dbl-pipe;
#X obj 94 173 pack f f;
#X connect 0 0 7 0;
#X connect 1 0 11 0;
#X connect 1 1 11 1;
#X connect 1 2 11 2;
#X connect 2 0 1 0;
#X connect 2 1 3 0;
#X connect 3 0 11 2;
#X connect 5 0 6 0;
#X connect 7 0 9 0;
#X connect 7 1 2 0;
#X connect 8 0 5 0;
#X connect 9 0 8 0;
#X connect 9 1 10 0;
#X connect 10 0 11 0;
#X connect 10 0 11 1;
#X connect 11 0 12 0;
#X connect 11 1 12 1;
#X connect 12 0 5 0;
#X restore 39 105 pd vline;
#N canvas 1001 325 1349 1093 advca 0;
#X obj 34 85 inlet;
#X obj 100 416 outlet;
#X obj 39 141 bng 15 250 50 0 empty empty empty 17 7 0 10 -262144 -1
-1;
#X obj 228 136 vsl 15 128 0 5000 0 0 empty empty empty 0 -9 0 10 -262144
-1 -1 254 1;
#X floatatom 266 307 5 0 0 0 - - -;
#X text 200 355 Define the envelope;
#X obj 164 136 vsl 15 128 0 15 0 0 empty empty empty 0 -9 0 10 -262144
-1 -1 0 1;
#X floatatom 209 309 5 0 0 0 - - -;
#X msg 95 357 1 \$2 \, 0 \$3 \$4;
#X obj 292 120 vsl 15 128 10 30 0 0 empty empty empty 0 -9 0 10 -262144
-1 -1 317 1;
#X obj 110 319 pack f f f f;
#X floatatom 352 284 5 0 0 0 - - -;
#X obj 195 24 loadbang;
#X msg 160 68 0;
#X msg 213 62 196;
#X msg 290 69 10.5;
#N canvas 1400 572 680 594 switch 0;
#X obj 114 257 spigot;
#X obj 156 213 tgl 15 0 empty empty empty 17 7 0 10 -262144 -1 -1 0
1;
#X obj 276 41 loadbang;
#X obj 186 256 spigot;
#X obj 225 86 tgl 15 0 empty empty empty 17 7 0 10 -262144 -1 -1 1
1;
#X obj 255 122 !=;
#X msg 273 79 1;
#X obj 114 301 outlet;
#X obj 108 154 inlet A;
#X obj 220 3 inlet B;
#X connect 0 0 7 0;
#X connect 1 0 0 1;
#X connect 2 0 6 0;
#X connect 4 0 3 1;
#X connect 4 0 5 0;
#X connect 5 0 1 0;
#X connect 6 0 5 1;
#X connect 8 0 0 0;
#X connect 9 0 4 0;
#X restore 68 197 pd switch;
#X obj 123 157 tgl 15 0 empty empty empty 17 7 0 10 -262144 -1 -1 1
1;
#X obj 103 93 r muteC;
#X msg 112 63 0;
#X obj 26 285 s seq3;
#X obj 35 217 bng 15 250 50 0 empty empty empty 17 7 0 10 -262144 -1
-1;
#X msg 36 243 1;
#X obj 485 87 * 15;
#X obj 592 110 + 100;
#X obj 593 86 * 400;
#X obj 459 43 r attack_03;
#X obj 577 47 r decay_03;
#X connect 0 0 2 0;
#X connect 2 0 16 0;
#X connect 3 0 4 0;
#X connect 3 0 10 2;
#X connect 6 0 7 0;
#X connect 6 0 10 1;
#X connect 8 0 1 0;
#X connect 9 0 10 3;
#X connect 9 0 11 0;
#X connect 10 0 8 0;
#X connect 12 0 13 0;
#X connect 12 0 14 0;
#X connect 12 0 15 0;
#X connect 12 0 19 0;
#X connect 13 0 6 0;
#X connect 14 0 3 0;
#X connect 15 0 9 0;
#X connect 16 0 10 0;
#X connect 16 0 21 0;
#X connect 17 0 16 1;
#X connect 18 0 17 0;
#X connect 19 0 17 0;
#X connect 21 0 22 0;
#X connect 22 0 20 0;
#X connect 23 0 6 0;
#X connect 24 0 3 0;
#X connect 25 0 24 0;
#X connect 26 0 23 0;
#X connect 27 0 25 0;
#X restore 38 69 pd advca;
#X obj 42 152 outlet~;
#X obj 34 27 inlet bang;
#X connect 0 0 2 0;
#X connect 1 0 0 0;
#X connect 3 0 1 0;
#X restore 193 99 pd vca_env;
#X obj 49 70 noise~;
#X obj 69 154 *~;
#X obj 64 111 hip~ 2500;
#X obj 61 210 *~;
#X obj 189 63 inlet trigger;
#X obj 57 416 outlet~;
#X obj 135 146 loadbang;
#X msg 113 183 0.07;
#X msg 126 215 0;
#N canvas 1094 718 738 536 filter 0;
#X obj 312 142 hsl 128 15 0 100 0 0 empty empty empty -2 -8 0 10 -262144
-1 -1 0 1;
#X floatatom 226 247 5 0 0 0 - - -;
#X obj 469 141 hsl 128 15 0 100 0 0 empty empty empty -2 -8 0 10 -262144
-1 -1 0 1;
#N canvas 0 23 509 448 bipolarFader 0;
#X obj 177 88 inlet;
#X obj 241 137 - 50;
#X obj 158 144 * 2;
#X obj 243 169 * 2;
#X floatatom 338 248 5 0 0 0 - - -;
#X floatatom 93 243 5 0 0 0 - - -;
#X obj 149 194 clip 0 100;
#X obj 248 221 clip 0 100;
#X obj 162 275 outlet;
#X obj 232 276 outlet;
#X connect 0 0 2 0;
#X connect 0 0 1 0;
#X connect 1 0 3 0;
#X connect 2 0 6 0;
#X connect 3 0 7 0;
#X connect 6 0 5 0;
#X connect 6 0 8 0;
#X connect 7 0 4 0;
#X connect 7 0 9 0;
#X restore 290 88 pd bipolarFader;
#X floatatom 353 177 5 0 0 0 - - -;
#X floatatom 495 174 5 0 0 0 - - -;
#X floatatom 283 334 5 0 0 0 - - -;
#X obj 224 178 * 100;
#X obj 42 408 hip~, f 12;
#X obj 32 323 lop~;
#X obj 288 18 inlet;
#X obj 34 462 outlet~;
#X obj 76 131 inlet~;
#X obj 415 248 * 100;
#X obj 289 51 * 100;
#X connect 0 0 4 0;
#X connect 0 0 7 0;
#X connect 1 0 9 1;
#X connect 2 0 5 0;
#X connect 2 0 13 0;
#X connect 3 0 0 0;
#X connect 3 1 2 0;
#X connect 6 0 8 1;
#X connect 7 0 1 0;
#X connect 8 0 11 0;
#X connect 9 0 8 0;
#X connect 10 0 14 0;
#X connect 12 0 9 0;
#X connect 13 0 6 0;
#X connect 14 0 3 0;
#X restore 65 350 pd filter;
#X obj 184 220 loadbang;
#X msg 177 245 0.5;
#X obj 278 276 r filter_03;
#X obj 61 308 *~;
#X obj 105 255 loadbang;
#X msg 98 280 1;
#X obj 337 169 / 127;
#X obj 306 90 pack f f f;
#X obj 326 126 i;
#X obj 294 52 ctlin 116;
#X connect 0 0 2 1;
#X connect 1 0 3 0;
#X connect 2 0 4 0;
#X connect 3 0 2 0;
#X connect 4 0 14 0;
#X connect 5 0 0 0;
#X connect 7 0 8 0;
#X connect 8 0 4 1;
#X connect 9 0 4 1;
#X connect 10 0 6 0;
#X connect 11 0 12 0;
#X connect 12 0 10 1;
#X connect 13 0 10 1;
#X connect 14 0 10 0;
#X connect 15 0 16 0;
#X connect 16 0 14 1;
#X connect 17 0 14 1;
#X connect 18 0 19 0;
#X connect 19 0 17 0;
#X connect 20 0 18 0;
#X connect 20 1 18 1;
#X restore 1680 863 pd noiseOsc;
#X obj 504 731 % \$1;
#X obj 1053 698 r clockArray;
#X obj 1054 753 % \$1;
#X obj 1701 673 r clockArray;
#X obj 1702 728 % \$1;
#X floatatom 620 740 5 0 0 0 - - -;
#X floatatom 1175 754 5 0 0 0 - - -;
#X floatatom 1849 754 5 0 0 0 - - -;
#X text 1768 287 CV OUT 1;
#X obj 1717 257 s CV_OUT_1 @owl F;
#X text 1896 286 CV OUT 2;
#X obj 1864 256 s CV_OUT_2 @owl G;
#X text 1576 287 GATE OUT;
#X obj 1536 257 s GATE_OUT @owl Push;
#X obj 1541 139 r seq1;
#X obj 1722 139 r seq2;
#X obj 1866 119 r seq3;
#X text 88 400 BUTTON A LED;
#X obj 73 342 tgl 15 0 empty empty empty 17 7 0 10 -262144 -1 -1 0
1;
#X obj 1190 626 loadbang;
#X obj 1877 615 loadbang;
#X obj 310 739 t b b;
#X obj 310 787 until;
#X obj 374 829 i;
#X obj 377 855 t b f;
#X obj 307 896 random 2;
#X obj 307 920 tabwrite stepSeq_01;
#X obj 418 828 + 1;
#X msg 363 764 0;
#X obj 503 784 tabread stepSeq_01;
#X obj 877 733 t b b;
#X obj 877 781 until;
#X obj 941 823 i;
#X obj 944 849 t b f;
#X obj 874 890 random 2;
#X obj 985 822 + 1;
#X msg 930 758 0;
#X obj 1464 721 t b b;
#X obj 1464 769 until;
#X obj 1528 811 i;
#X obj 1531 837 t b f;
#X obj 1461 878 random 2;
#X obj 1572 810 + 1;
#X msg 1517 746 0;
#X obj 873 914 tabwrite stepSeq_02;
#X obj 1462 902 tabwrite stepSeq_03;
#X obj 1055 782 tabread stepSeq_02;
#X obj 1700 761 tabread stepSeq_03;
#N canvas 1400 572 680 594 switch 0;
#X obj 114 257 spigot;
#X obj 156 213 tgl 15 0 empty empty empty 17 7 0 10 -262144 -1 -1 1
1;
#X obj 276 41 loadbang;
#X obj 186 256 spigot;
#X obj 225 86 tgl 15 0 empty empty empty 17 7 0 10 -262144 -1 -1 0
1;
#X obj 255 122 !=;
#X msg 273 79 1;
#X obj 114 301 outlet;
#X obj 108 154 inlet A;
#X obj 220 3 inlet B;
#X connect 0 0 7 0;
#X connect 1 0 0 1;
#X connect 2 0 6 0;
#X connect 4 0 3 1;
#X connect 4 0 5 0;
#X connect 5 0 1 0;
#X connect 6 0 5 1;
#X connect 8 0 0 0;
#X connect 9 0 4 0;
#X restore 558 230 pd switch;
#X obj 560 195 r rand;
#X obj 144 101 loadbang;
#X msg 147 131 0;
#X obj 703 133 hsl 128 15 0 1 0 0 empty empty empty -2 -8 0 10 -262144
-1 -1 0 0;
#X obj 723 184 int;
#X obj 723 250 s length_01;
#X obj 675 634 r length_01;
#X obj 919 134 hsl 128 15 0 1 0 0 empty empty empty -2 -8 0 10 -262144
-1 -1 0 1;
#X obj 915 186 int;
#X obj 915 251 s length_02;
#X obj 1096 130 hsl 128 15 0 1 0 0 empty empty empty -2 -8 0 10 -262144
-1 -1 0 1;
#X obj 1092 182 int;
#X obj 1092 247 s length_03;
#X obj 1254 667 r length_02;
#X obj 1950 657 r length_03;
#X text 1120 63 POT C;
#X text 751 61 POT A;
#X text 948 64 POT B;
#N canvas 602 394 1654 1024 gateToTrigger 0;
#X obj 57 70 sel 1;
#X obj 57 101 bng 15 250 50 0 empty empty empty 17 7 0 10 -262144 -1
-1;
#X obj 84 246 + 1;
#X obj 46 246 i;
#X obj 53 138 t b b;
#X floatatom 45 276 5 0 0 0 - - -;
#X msg 101 206 0;
#X obj 59 44 inlet;
#X obj 41 315 outlet;
#X obj 98 172 delay 50;
#X connect 0 0 1 0;
#X connect 1 0 4 0;
#X connect 2 0 3 1;
#X connect 3 0 2 0;
#X connect 3 0 5 0;
#X connect 4 0 3 0;
#X connect 4 1 9 0;
#X connect 5 0 8 0;
#X connect 6 0 3 0;
#X connect 7 0 0 0;
#X connect 9 0 6 0;
#X restore 1540 203 pd gateToTrigger;
#X floatatom 1571 227 5 0 0 0 - - -;
#N canvas 0 23 1654 1024 gateToTrigger 0;
#X obj 57 70 sel 1;
#X obj 57 101 bng 15 250 50 0 empty empty empty 17 7 0 10 -262144 -1
-1;
#X obj 84 246 + 1;
#X obj 46 246 i;
#X obj 53 138 t b b;
#X floatatom 45 276 5 0 0 0 - - -;
#X msg 101 206 0;
#X obj 59 44 inlet;
#X obj 41 315 outlet;
#X obj 98 172 delay 50;
#X connect 0 0 1 0;
#X connect 1 0 4 0;
#X connect 2 0 3 1;
#X connect 3 0 2 0;
#X connect 3 0 5 0;
#X connect 4 0 3 0;
#X connect 4 1 9 0;
#X connect 5 0 8 0;
#X connect 6 0 3 0;
#X connect 7 0 0 0;
#X connect 9 0 6 0;
#X restore 1721 206 pd gateToTrigger;
#X floatatom 1742 230 5 0 0 0 - - -;
#N canvas 0 23 1654 1024 gateToTrigger 0;
#X obj 57 70 sel 1;
#X obj 57 101 bng 15 250 50 0 empty empty empty 17 7 0 10 -262144 -1
-1;
#X obj 84 246 + 1;
#X obj 46 246 i;
#X obj 53 138 t b b;
#X floatatom 45 276 5 0 0 0 - - -;
#X msg 101 206 0;
#X obj 59 44 inlet;
#X obj 41 315 outlet;
#X obj 97 172 delay 50;
#X connect 0 0 1 0;
#X connect 1 0 4 0;
#X connect 2 0 3 1;
#X connect 3 0 2 0;
#X connect 3 0 5 0;
#X connect 4 0 3 0;
#X connect 4 1 9 0;
#X connect 5 0 8 0;
#X connect 6 0 3 0;
#X connect 7 0 0 0;
#X connect 9 0 6 0;
#X restore 1865 189 pd gateToTrigger;
#X floatatom 1886 213 5 0 0 0 - - -;
#X obj 657 61 loadbang;
#X msg 660 91 0;
#X msg 310 763 8;
#X msg 877 757 8;
#X msg 1464 744 8;
#X msg 1159 658 8;
#X msg 1845 659 8;
#X obj 723 159 * 8;
#N canvas 913 593 1032 727 muteInZero 0;
#X obj 44 94 moses;
#X obj 126 28 loadbang;
#X obj 45 20 inlet;
#X obj 102 210 moses;
#X obj 163 132 loadbang;
#X floatatom 99 170 5 0 0 0 - - -;
#X msg 151 169 2;
#X floatatom 55 61 5 0 0 0 - - -;
#X obj 45 127 int;
#X obj 92 131 int;
#X msg 102 59 1;
#X obj 71 346 outlet;
#X obj 45 150 + 1;
#X obj 102 234 - 1;
#X connect 0 0 8 0;
#X connect 0 1 9 0;
#X connect 1 0 10 0;
#X connect 2 0 0 0;
#X connect 2 0 7 0;
#X connect 3 0 13 0;
#X connect 4 0 6 0;
#X connect 5 0 3 0;
#X connect 6 0 3 1;
#X connect 8 0 12 0;
#X connect 9 0 5 0;
#X connect 10 0 0 1;
#X connect 12 0 11 0;
#X connect 13 0 11 0;
#X restore 678 770 pd muteInZero;
#X obj 677 798 s muteA;
#X obj 631 678 hsl 128 15 0 8 0 0 empty empty empty -2 -8 0 10 -262144
-1 -1 0 1;
#N canvas 913 593 1032 727 muteInZero 0;
#X obj 44 94 moses;
#X obj 126 28 loadbang;
#X obj 45 20 inlet;
#X obj 102 210 moses;
#X obj 163 132 loadbang;
#X floatatom 99 170 5 0 0 0 - - -;
#X msg 151 169 2;
#X floatatom 55 61 5 0 0 0 - - -;
#X obj 45 127 int;
#X obj 92 131 int;
#X msg 102 59 1;
#X obj 71 346 outlet;
#X obj 45 150 + 1;
#X obj 102 234 - 1;
#X connect 0 0 8 0;
#X connect 0 1 9 0;
#X connect 1 0 10 0;
#X connect 2 0 0 0;
#X connect 2 0 7 0;
#X connect 3 0 13 0;
#X connect 4 0 6 0;
#X connect 5 0 3 0;
#X connect 6 0 3 1;
#X connect 8 0 12 0;
#X connect 9 0 5 0;
#X connect 10 0 0 1;
#X connect 12 0 11 0;
#X connect 13 0 11 0;
#X restore 1251 748 pd muteInZero;
#X obj 1248 776 s muteB;
#X obj 915 161 * 8;
#X obj 1092 157 * 8;
#N canvas 913 593 1032 727 muteInZero 0;
#X obj 44 94 moses;
#X obj 126 28 loadbang;
#X obj 45 20 inlet;
#X obj 102 210 moses;
#X obj 163 132 loadbang;
#X floatatom 99 170 5 0 0 0 - - -;
#X msg 151 169 2;
#X floatatom 55 61 5 0 0 0 - - -;
#X obj 45 127 int;
#X obj 92 131 int;
#X msg 102 59 1;
#X obj 71 346 outlet;
#X obj 45 150 + 1;
#X obj 102 234 - 1;
#X connect 0 0 8 0;
#X connect 0 1 9 0;
#X connect 1 0 10 0;
#X connect 2 0 0 0;
#X connect 2 0 7 0;
#X connect 3 0 13 0;
#X connect 4 0 6 0;
#X connect 5 0 3 0;
#X connect 6 0 3 1;
#X connect 8 0 12 0;
#X connect 9 0 5 0;
#X connect 10 0 0 1;
#X connect 12 0 11 0;
#X connect 13 0 11 0;
#X restore 1915 776 pd muteInZero;
#X obj 1912 804 s muteC;
#X obj 838 45 loadbang;
#X obj 1298 129 hsl 128 15 0 1 0 0 empty empty empty -2 -8 0 10 -262144
-1 -1 0 1;
#X text 1299 62 POT D;
#X obj 1295 149 * 0.33;
#X floatatom 1306 185 5 0 0 0 - - -;
#X obj 1280 245 s swing;
#X msg 854 88 0;
#N canvas 0 23 1101 797 midiControlOSC1 0;
#X obj 139 238 s attack_01;
#X obj 389 150 / 127;
#X obj 763 160 / 127;
#X obj 402 317 s decay_01;
#X obj 760 262 s pitch_01;
#X obj 80 84 pack f f f;
#X obj 7 152 print cc101;
#X obj 338 83 pack f f f;
#X obj 730 109 pack f f f;
#X obj 279 147 print cc102;
#X obj 666 206 print cc103;
#X floatatom 175 212 5 0 0 0 - - -;
#X floatatom 183 79 5 0 0 0 - - -;
#X floatatom 155 137 5 0 0 0 - - -;
#X obj 134 183 / 127;
#X obj 108 113 i;
#X obj 368 114 i;
#X obj 749 138 i;
#X obj 113 49 ctlin 101;
#X obj 334 42 ctlin 102;
#X obj 767 69 ctlin 103;
#X obj 939 170 t f;
#X obj 937 197 +;
#N canvas 986 148 542 662 RandomDecay 0;
#X obj 21 37 tgl 15 0 empty empty empty 17 7 0 10 -262144 -1 -1 1 1
;
#X floatatom 37 285 5 0 0 0 - - -;
#X obj 35 430 hsl 128 15 0 1 0 0 empty empty empty -2 -8 0 10 -262144
-1 -1 0 1;
#X obj 30 323 / 100;
#X floatatom 65 378 5 0 0 0 - - -;
#X floatatom 62 454 5 0 0 0 - - -;
#X obj 23 63 bng 15 250 50 0 empty empty empty 17 7 0 10 -262144 -1
-1;
#X obj 30 508 outlet;
#X obj 22 12 inlet;
#X obj 25 260 random \$1;
#X obj 128 159 / 127;
#X obj 97 80 pack f f f;
#X obj 117 116 i;
#X obj 92 201 * 40;
#X obj 85 42 ctlin 111;
#X connect 0 0 6 0;
#X connect 2 0 5 0;
#X connect 2 0 7 0;
#X connect 3 0 4 0;
#X connect 3 0 2 0;
#X connect 6 0 9 0;
#X connect 8 0 0 0;
#X connect 9 0 1 0;
#X connect 9 0 3 0;
#X connect 10 0 13 0;
#X connect 11 0 12 0;
#X connect 12 0 10 0;
#X connect 13 0 9 1;
#X connect 14 0 11 0;
#X connect 14 1 11 1;
#X restore 532 70 pd RandomDecay;
#X obj 519 144 t f;
#X obj 517 184 +;
#N canvas 479 547 770 840 RandomPitch 0;
#X obj 21 37 tgl 15 0 empty empty empty 17 7 0 10 -262144 -1 -1 1 1
;
#X floatatom 37 285 5 0 0 0 - - -;
#X obj 34 522 hsl 128 15 0 1 0 0 empty empty empty -2 -8 0 10 -262144
-1 -1 0 1;
#X obj 30 323 / 100;
#X floatatom 65 378 5 0 0 0 - - -;
#X obj 32 478 line;
#X floatatom 61 546 5 0 0 0 - - -;
#X obj 35 437 pack f \$2;
#X obj 23 63 bng 15 250 50 0 empty empty empty 17 7 0 10 -262144 -1
-1;
#X obj 114 381 loadbang;
#X obj 29 600 outlet;
#X obj 22 12 inlet;
#X obj 25 260 random \$1;
#X obj 128 159 / 127;
#X obj 97 80 pack f f f;
#X obj 117 116 i;
#X msg 116 407 0, f 10;
#X obj 85 42 ctlin 112;
#X obj 92 201 * 100;
#X connect 0 0 8 0;
#X connect 2 0 6 0;
#X connect 2 0 10 0;
#X connect 3 0 4 0;
#X connect 3 0 7 0;
#X connect 5 0 2 0;
#X connect 7 0 5 0;
#X connect 8 0 12 0;
#X connect 9 0 16 0;
#X connect 11 0 0 0;
#X connect 12 0 1 0;
#X connect 12 0 3 0;
#X connect 13 0 18 0;
#X connect 14 0 15 0;
#X connect 15 0 13 0;
#X connect 16 0 7 1;
#X connect 17 0 14 0;
#X connect 17 1 14 1;
#X connect 18 0 12 1;
#X restore 942 113 pd RandomPitch;
#X obj 514 39 r triggerOSC1;
#X obj 943 68 r triggerOSC1;
#X connect 1 0 25 1;
#X connect 2 0 22 1;
#X connect 5 0 6 0;
#X connect 5 0 15 0;
#X connect 7 0 9 0;
#X connect 7 0 16 0;
#X connect 8 0 10 0;
#X connect 8 0 17 0;
#X connect 14 0 0 0;
#X connect 14 0 11 0;
#X connect 15 0 13 0;
#X connect 15 0 14 0;
#X connect 16 0 1 0;
#X connect 17 0 2 0;
#X connect 18 0 5 0;
#X connect 18 0 12 0;
#X connect 18 1 5 1;
#X connect 19 0 7 0;
#X connect 19 1 7 1;
#X connect 20 0 8 0;
#X connect 20 1 8 1;
#X connect 21 0 22 0;
#X connect 22 0 4 0;
#X connect 23 0 24 0;
#X connect 24 0 25 0;
#X connect 25 0 3 0;
#X connect 26 0 21 0;
#X connect 27 0 23 0;
#X connect 28 0 26 0;
#X restore 395 984 pd midiControlOSC1;
#N canvas 0 23 1272 734 midiControlOSC2 0;
#X obj 118 276 s attack_02;
#X obj 314 352 s decay_02;
#X obj 729 365 s pitch_02;
#X obj 111 220 / 127;
#X obj 322 252 / 127;
#X obj 652 229 / 127;
#X obj 69 147 pack f f f;
#X obj 269 180 pack f f f;
#X obj 628 167 pack f f f;
#X obj 594 317 print cc106;
#X obj 205 277 print cc105;
#X obj 5 245 print cc104;
#X obj 80 197 i;
#X obj 301 224 i;
#X obj 638 201 i;
#X obj 88 108 ctlin 104;
#X obj 628 124 ctlin 106;
#X obj 272 135 ctlin 105;
#X obj 837 278 t f;
#X obj 837 302 +;
#X obj 841 176 r triggerOSC2;
#X obj 412 147 r triggerOSC3;
#N canvas 986 148 542 662 RandomDecay 0;
#X obj 21 37 tgl 15 0 empty empty empty 17 7 0 10 -262144 -1 -1 0 1
;
#X floatatom 37 285 5 0 0 0 - - -;
#X obj 35 430 hsl 128 15 0 1 0 0 empty empty empty -2 -8 0 10 -262144
-1 -1 0 1;
#X obj 30 323 / 100;
#X floatatom 65 378 5 0 0 0 - - -;
#X floatatom 62 454 5 0 0 0 - - -;
#X obj 23 63 bng 15 250 50 0 empty empty empty 17 7 0 10 -262144 -1
-1;
#X obj 30 508 outlet;
#X obj 22 12 inlet;
#X obj 25 260 random \$1;
#X obj 128 159 / 127;
#X obj 97 80 pack f f f;
#X obj 117 116 i;
#X obj 92 201 * 40;
#X obj 85 42 ctlin 114;
#X connect 0 0 6 0;
#X connect 2 0 5 0;
#X connect 2 0 7 0;
#X connect 3 0 4 0;
#X connect 3 0 2 0;
#X connect 6 0 9 0;
#X connect 8 0 0 0;
#X connect 9 0 1 0;
#X connect 9 0 3 0;
#X connect 10 0 13 0;
#X connect 11 0 12 0;
#X connect 12 0 10 0;
#X connect 13 0 9 1;
#X connect 14 0 11 0;
#X connect 14 1 11 1;
#X restore 430 178 pd RandomDecay;
#X obj 417 252 t f;
#X obj 415 292 +;
#N canvas 479 547 770 840 RandomPitch 0;
#X obj 21 37 tgl 15 0 empty empty empty 17 7 0 10 -262144 -1 -1 1 1
;
#X floatatom 37 285 5 0 0 0 - - -;
#X obj 34 522 hsl 128 15 0 1 0 0 empty empty empty -2 -8 0 10 -262144
-1 -1 0 1;
#X obj 30 323 / 100;
#X floatatom 65 378 5 0 0 0 - - -;
#X obj 32 478 line;
#X floatatom 61 546 5 0 0 0 - - -;
#X obj 35 437 pack f \$2;
#X obj 23 63 bng 15 250 50 0 empty empty empty 17 7 0 10 -262144 -1
-1;
#X obj 114 381 loadbang;
#X obj 29 600 outlet;
#X obj 22 12 inlet;
#X obj 25 260 random \$1;
#X obj 128 159 / 127;
#X obj 97 80 pack f f f;
#X obj 117 116 i;
#X obj 92 201 * 40;
#X obj 85 42 ctlin 115;
#X msg 116 407 0, f 10;
#X connect 0 0 8 0;
#X connect 2 0 6 0;
#X connect 2 0 10 0;
#X connect 3 0 4 0;
#X connect 3 0 7 0;
#X connect 5 0 2 0;
#X connect 7 0 5 0;
#X connect 8 0 12 0;
#X connect 9 0 18 0;
#X connect 11 0 0 0;
#X connect 12 0 1 0;
#X connect 12 0 3 0;
#X connect 13 0 16 0;
#X connect 14 0 15 0;
#X connect 15 0 13 0;
#X connect 16 0 12 1;
#X connect 17 0 14 0;
#X connect 17 1 14 1;
#X connect 18 0 7 1;
#X restore 840 221 pd RandomPitch;
#X connect 3 0 0 0;
#X connect 4 0 24 1;
#X connect 5 0 19 1;
#X connect 6 0 11 0;
#X connect 6 0 12 0;
#X connect 7 0 10 0;
#X connect 7 0 13 0;
#X connect 8 0 9 0;
#X connect 8 0 14 0;
#X connect 12 0 3 0;
#X connect 13 0 4 0;
#X connect 14 0 5 0;
#X connect 15 0 6 0;
#X connect 15 1 6 1;
#X connect 16 0 8 0;
#X connect 16 1 8 1;
#X connect 17 0 7 0;
#X connect 17 1 7 1;
#X connect 18 0 19 0;
#X connect 19 0 2 0;
#X connect 20 0 25 0;
#X connect 21 0 22 0;
#X connect 22 0 23 0;
#X connect 23 0 24 0;
#X connect 24 0 1 0;
#X connect 25 0 18 0;
#X restore 906 988 pd midiControlOSC2;
#N canvas 0 23 1145 649 midiControlOSC3 0;
#X obj 158 210 s attack_03;
#X obj 358 327 s decay_03;
#X obj 752 291 s filter_03;
#X obj 150 150 / 127;
#X obj 339 150 / 127;
#X obj 702 168 / 127;
#X obj 56 95 pack f f f;
#X obj 301 64 pack f f f;
#X obj 656 92 pack f f f;
#X obj 594 191 print cc109;
#X obj 275 196 print cc108;
#X obj -6 194 print cc107;
#X obj 120 122 i;
#X obj 321 100 i;
#X obj 681 137 i;
#X obj 119 56 ctlin 107;
#X obj 289 26 ctlin 108;
#X obj 663 49 ctlin 109;
#X obj 432 149 r triggerOSC3;
#N canvas 986 148 542 662 RandomDecay 0;
#X obj 21 37 tgl 15 0 empty empty empty 17 7 0 10 -262144 -1 -1 0 1
;
#X floatatom 37 285 5 0 0 0 - - -;
#X obj 35 430 hsl 128 15 0 1 0 0 empty empty empty -2 -8 0 10 -262144
-1 -1 0 1;
#X obj 30 323 / 100;
#X floatatom 65 378 5 0 0 0 - - -;
#X obj 252 380 line;
#X floatatom 62 454 5 0 0 0 - - -;
#X obj 255 339 pack f \$2;
#X obj 23 63 bng 15 250 50 0 empty empty empty 17 7 0 10 -262144 -1
-1;
#X obj 334 283 loadbang;
#X obj 30 508 outlet;
#X obj 22 12 inlet;
#X msg 336 309 0;
#X obj 25 260 random \$1;
#X obj 128 159 / 127;
#X obj 97 80 pack f f f;
#X obj 117 116 i;
#X obj 92 201 * 40;
#X obj 85 42 ctlin 117;
#X connect 0 0 8 0;
#X connect 2 0 6 0;
#X connect 2 0 10 0;
#X connect 3 0 4 0;
#X connect 3 0 2 0;
#X connect 7 0 5 0;
#X connect 8 0 13 0;
#X connect 9 0 12 0;
#X connect 11 0 0 0;
#X connect 12 0 7 1;
#X connect 13 0 1 0;
#X connect 13 0 3 0;
#X connect 14 0 17 0;
#X connect 15 0 16 0;
#X connect 16 0 14 0;
#X connect 17 0 13 1;
#X connect 18 0 15 0;
#X connect 18 1 15 1;
#X restore 450 180 pd RandomDecay;
#X floatatom 462 222 5 0 0 0 - - -;
#X floatatom 375 209 5 0 0 0 - - -;
#X obj 373 249 t f;
#X obj 386 280 +;
#N canvas 479 547 770 840 RandomFilter 0;
#X obj 21 37 tgl 15 0 empty empty empty 17 7 0 10 -262144 -1 -1 1 1
;
#X floatatom 37 285 5 0 0 0 - - -;
#X obj 34 522 hsl 128 15 0 1 0 0 empty empty empty -2 -8 0 10 -262144
-1 -1 0 1;
#X obj 30 323 / 100;
#X floatatom 65 378 5 0 0 0 - - -;
#X obj 32 478 line;
#X floatatom 61 546 5 0 0 0 - - -;
#X obj 35 437 pack f \$2;
#X obj 23 63 bng 15 250 50 0 empty empty empty 17 7 0 10 -262144 -1
-1;
#X obj 114 381 loadbang;
#X obj 29 600 outlet;
#X obj 22 12 inlet;
#X obj 25 260 random \$1;
#X obj 128 159 / 127;
#X obj 97 80 pack f f f;
#X obj 117 116 i;
#X obj 92 201 * 40;
#X msg 116 407 100, f 10;
#X obj 85 42 ctlin 118;
#X connect 0 0 8 0;
#X connect 2 0 6 0;
#X connect 2 0 10 0;
#X connect 3 0 4 0;
#X connect 3 0 7 0;
#X connect 5 0 2 0;
#X connect 7 0 5 0;
#X connect 8 0 12 0;
#X connect 9 0 17 0;
#X connect 11 0 0 0;
#X connect 12 0 1 0;
#X connect 12 0 3 0;
#X connect 13 0 16 0;
#X connect 14 0 15 0;
#X connect 15 0 13 0;
#X connect 16 0 12 1;
#X connect 17 0 7 1;
#X connect 18 0 14 0;
#X connect 18 1 14 1;
#X restore 787 128 pd RandomFilter;
#X obj 784 185 t f;
#X obj 784 209 +;
#X obj 788 83 r clock;
#X connect 3 0 0 0;
#X connect 4 0 21 0;
#X connect 5 0 26 1;
#X connect 6 0 11 0;
#X connect 6 0 12 0;
#X connect 7 0 10 0;
#X connect 7 0 13 0;
#X connect 8 0 9 0;
#X connect 8 0 14 0;
#X connect 12 0 3 0;
#X connect 13 0 4 0;
#X connect 14 0 5 0;
#X connect 15 0 6 0;
#X connect 15 1 6 1;
#X connect 16 0 7 0;
#X connect 16 1 7 1;
#X connect 17 0 8 0;
#X connect 17 1 8 1;
#X connect 18 0 19 0;
#X connect 19 0 20 0;
#X connect 20 0 22 0;
#X connect 21 0 23 1;
#X connect 22 0 23 0;
#X connect 23 0 1 0;
#X connect 24 0 25 0;
#X connect 25 0 26 0;
#X connect 26 0 2 0;
#X connect 27 0 24 0;
#X restore 1568 992 pd midiControlOSC3;
#X obj 1741 838 s triggerOSC3;
#X obj 1098 886 s triggerOSC2;
#X obj 606 890 s triggerOSC1;
#X text 375 1026 NANOKONTROL OSC1 KNOB 1 (CC 101) Attack OSC1 KNOB
2 (CC 102) Decay OSC1 KNOB 3 (CC 103) PITCH OSC1 FADER 1 (CC 110) Volume
OSC1 FADER 2 (CC 111) RndDecay OSC1 FADER 3 (CC 112) RndPitch;
#X text 913 1041 NANOKONTROL OSC2 KNOB 1 (CC 104) Attack OSC2 KNOB
2 (CC 105) Decay OSC2 KNOB 3 (CC 106) PITCH OSC2 FADER 1 (CC 113) Volume
OSC2 FADER 2 (CC 114) RndDecay OSC2 FADER 3 (CC 115) RndPitch;
#X text 1544 1028 NANOKONTROL OSC3 KNOB 1 (CC 107) Attack OSC3 KNOB
2 (CC 108) Decay OSC3 KNOB 3 (CC 109) Filter OSC3 FADER 1 (CC 116)
Volume OSC3 FADER 2 (CC 117) RndDecay OSC3 FADER 3 (CC 118) RndFilter
;
#X obj 727 89 r KickProb @owl A;
#X obj 921 92 r NoiseAProb @owl B;
#X obj 1092 89 r NoiseBProb @owl C;
#X obj 1271 86 r Swing @owl D;
#X obj 63 71 r TapClock @owl B1;
#X obj 71 372 s ClockLed @owl B1;
#X obj 517 87 r FreezeSeq @owl B2;
#X connect 0 0 69 0;
#X connect 2 0 8 0;
#X connect 2 0 66 0;
#X connect 2 1 5 0;
#X connect 4 0 2 1;
#X connect 5 0 6 0;
#X connect 7 0 2 2;
#X connect 9 0 10 0;
#X connect 10 0 21 0;
#X connect 10 0 150 0;
#X connect 11 1 15 0;
#X connect 15 0 23 0;
#X connect 17 0 16 0;
#X connect 17 0 16 1;
#X connect 18 0 17 2;
#X connect 19 0 17 1;
#X connect 20 0 17 0;
#X connect 21 0 22 0;
#X connect 23 0 13 0;
#X connect 23 0 96 1;
#X connect 24 0 53 0;
#X connect 24 0 48 1;
#X connect 25 0 37 0;
#X connect 26 0 78 0;
#X connect 28 0 29 0;
#X connect 29 0 33 0;
#X connect 29 0 149 0;
#X connect 30 0 31 0;
#X connect 31 0 50 1;
#X connect 31 0 54 0;
#X connect 33 0 32 0;
#X connect 35 0 0 0;
#X connect 36 0 26 0;
#X connect 38 0 48 0;
#X connect 39 0 85 0;
#X connect 41 0 42 0;
#X connect 42 0 47 0;
#X connect 42 0 148 0;
#X connect 43 0 44 0;
#X connect 44 0 52 1;
#X connect 44 0 55 0;
#X connect 45 0 39 0;
#X connect 47 0 46 0;
#X connect 48 0 77 0;
#X connect 49 0 50 0;
#X connect 50 0 94 0;
#X connect 51 0 52 0;
#X connect 52 0 95 0;
#X connect 53 0 129 0;
#X connect 54 0 132 0;
#X connect 55 0 136 0;
#X connect 62 0 115 0;
#X connect 63 0 117 0;
#X connect 64 0 119 0;
#X connect 66 0 159 0;
#X connect 67 0 126 0;
#X connect 68 0 127 0;
#X connect 69 0 123 0;
#X connect 69 1 76 0;
#X connect 70 0 71 0;
#X connect 71 0 72 0;
#X connect 71 0 75 0;
#X connect 72 0 73 0;
#X connect 72 1 74 1;
#X connect 73 0 74 0;
#X connect 75 0 71 1;
#X connect 76 0 71 1;
#X connect 77 0 9 0;
#X connect 78 0 124 0;
#X connect 78 1 84 0;
#X connect 79 0 80 0;
#X connect 80 0 81 0;
#X connect 80 0 83 0;
#X connect 81 0 82 0;
#X connect 81 1 92 1;
#X connect 82 0 92 0;
#X connect 83 0 80 1;
#X connect 84 0 80 1;
#X connect 85 0 125 0;
#X connect 85 1 91 0;
#X connect 86 0 87 0;
#X connect 87 0 88 0;
#X connect 87 0 90 0;
#X connect 88 0 89 0;
#X connect 88 1 93 1;
#X connect 89 0 93 0;
#X connect 90 0 87 1;
#X connect 91 0 87 1;
#X connect 94 0 28 0;
#X connect 95 0 41 0;
#X connect 96 0 34 0;
#X connect 97 0 96 0;
#X connect 98 0 99 0;
#X connect 99 0 7 0;
#X connect 100 0 128 0;
#X connect 101 0 102 0;
#X connect 103 0 131 0;
#X connect 104 0 134 0;
#X connect 105 0 106 0;
#X connect 107 0 135 0;
#X connect 108 0 109 0;
#X connect 110 0 30 0;
#X connect 111 0 43 0;
#X connect 115 0 61 0;
#X connect 115 0 116 0;
#X connect 117 0 57 0;
#X connect 117 0 118 0;
#X connect 119 0 120 0;
#X connect 119 0 59 0;
#X connect 121 0 122 0;
#X connect 122 0 23 0;
#X connect 123 0 70 0;
#X connect 124 0 79 0;
#X connect 125 0 86 0;
#X connect 126 0 30 0;
#X connect 127 0 43 0;
#X connect 128 0 101 0;
#X connect 129 0 130 0;
#X connect 131 0 24 0;
#X connect 132 0 133 0;
#X connect 134 0 105 0;
#X connect 135 0 108 0;
#X connect 136 0 137 0;
#X connect 138 0 144 0;
#X connect 139 0 141 0;
#X connect 141 0 142 0;
#X connect 141 0 143 0;
#X connect 144 0 100 0;
#X connect 144 0 104 0;
#X connect 144 0 107 0;
#X connect 154 0 100 0;
#X connect 155 0 104 0;
#X connect 156 0 107 0;
#X connect 157 0 139 0;
#X connect 158 0 2 0;
#X connect 160 0 11 0;
