#N canvas 0 23 2560 1395 12;
#X obj 310 719 bng 15 250 50 0 empty empty empty 17 7 0 10 -262144
-1 -1;
#N canvas 0 23 450 278 (subpatch) 0;
#X array stepSeq_01 8 float 3;
#A 0 0 0 0 0 1 0 1 0;
#X coords 0 2 8 0 200 140 1 0 0;
#X restore 403 422 graph;
#N canvas 775 527 1785 807 tapTempo 0;
#X obj 41 168 sel 1 2;
#X floatatom 47 250 5 0 0 0 - - -;
#X msg 40 218 1;
#X msg 73 218 0;
#X obj 73 195 t b b;
#X msg 93 167 0;
#X obj 44 142 +;
#X floatatom 72 144 5 0 0 0 - - -;
#X obj 47 302 timer;
#X obj 45 90 bng 15 250 50 0 empty empty empty 0 -6 0 10 -4034 -1 -1
;
#X msg 42 114 1;
#X obj 47 275 sel 1 0;
#X floatatom 47 325 5 0 0 0 - - -;
#X obj 225 189 bng 25 250 50 0 empty empty empty 0 -6 0 10 -262144
-1 -1;
#X msg 203 110 1;
#X obj 178 51 loadbang;
#X obj 204 153 metro 500;
#X text 86 326 time passed between two clicks (in ms.);
#X text 257 192 Tempo;
#X obj 42 19 inlet;
#X obj 42 59 sel 1;
#X obj 123 57 inlet;
#X msg 251 114 0;
#X obj 259 15 inlet;
#X obj 254 49 sel 1;
#X floatatom 44 407 5 0 0 0 - - -;
#X text 79 374 Doble velocidad;
#X obj 394 193 bng 25 250 50 0 empty empty empty 0 -6 0 10 -262144
-1 -1;
#X obj 373 157 metro 500;
#X text 426 196 Tempo;
#X obj 394 223 outlet;
#X msg 378 115 1;
#X msg 435 118 0;
#X obj 45 373 / 2;
#X obj 102 419 s time x2;
#X obj 110 353 s time;
#X obj 425 65 r startMC;
#X obj 520 64 r stopMC;
#X floatatom 677 436 5 0 0 0 - - -;
#X obj 569 478 s ticks;
#N canvas 472 450 176 103 sixteenths 0;
#X obj 20 24 r ticks;
#X obj 20 57 outlet;
#X connect 0 0 1 0;
#X restore 741 355 pd sixteenths;
#X obj 568 309 f;
#X obj 568 334 + 1;
#X floatatom 639 389 5 0 0 0 - - -;
#N canvas 813 182 215 265 feel 0;
#X obj 21 86 & 1;
#X obj 21 58 t f f;
#X obj 21 25 inlet;
#X obj 21 221 outlet;
#X obj 21 126 pack;
#X obj 21 152 route 0 1;
#X text 16 170 even;
#X text 56 170 odd;
#X obj 89 152 *;
#X obj 99 125 t b f;
#X floatatom 89 192 5 0 0 0 - - -;
#X obj 46 191 pipe;
#X text 127 192 milliseconds;
#X obj 89 26 inlet;
#X text 19 4 ticks;
#X text 87 5 feel;
#X obj 99 91 r ticklength16;
#X connect 0 0 4 0;
#X connect 1 0 0 0;
#X connect 1 1 4 1;
#X connect 2 0 1 0;
#X connect 4 0 5 0;
#X connect 5 0 3 0;
#X connect 5 1 11 0;
#X connect 8 0 10 0;
#X connect 8 0 11 1;
#X connect 9 0 8 0;
#X connect 9 1 8 1;
#X connect 11 0 3 0;
#X connect 13 0 8 0;
#X connect 16 0 9 0;
#X restore 568 425 pd feel;
#X obj 568 362 & 255;
#X text 607 306 1/16 note tick length;
#X obj 740 392 outlet;
#X obj 300 401 s ticklength16;
#X obj 627 362 r swing;
#N canvas 602 394 1654 1024 gateToTrigger 0;
#X obj 57 70 sel 1;
#X obj 57 101 bng 15 250 50 0 empty empty empty 17 7 0 10 -262144 -1
-1;
#X obj 84 246 + 1;
#X obj 46 246 i;
#X obj 53 138 t b b;
#X floatatom 45 276 5 0 0 0 - - -;
#X msg 101 206 0;
#X obj 59 44 inlet;
#X obj 41 315 outlet;
#X obj 98 172 delay 10;
#X connect 0 0 1 0;
#X connect 1 0 4 0;
#X connect 2 0 3 1;
#X connect 3 0 2 0;
#X connect 3 0 5 0;
#X connect 4 0 3 0;
#X connect 4 1 9 0;
#X connect 5 0 8 0;
#X connect 6 0 3 0;
#X connect 7 0 0 0;
#X connect 9 0 6 0;
#X restore 715 99 pd gateToTrigger;
#X floatatom 746 123 5 0 0 0 - - -;
#X obj 714 65 r rand;
#X connect 0 0 2 0;
#X connect 0 1 4 0;
#X connect 1 0 11 0;
#X connect 2 0 1 0;
#X connect 3 0 1 0;
#X connect 4 0 3 0;
#X connect 4 1 5 0;
#X connect 5 0 7 0;
#X connect 6 0 7 0;
#X connect 7 0 6 1;
#X connect 7 0 0 0;
#X connect 8 0 12 0;
#X connect 9 0 10 0;
#X connect 10 0 6 0;
#X connect 11 0 8 0;
#X connect 11 1 8 1;
#X connect 12 0 16 1;
#X connect 12 0 33 0;
#X connect 12 0 35 0;
#X connect 12 0 48 0;
#X connect 14 0 16 0;
#X connect 15 0 14 0;
#X connect 16 0 13 0;
#X connect 16 0 41 0;
#X connect 19 0 20 0;
#X connect 20 0 9 0;
#X connect 21 0 9 0;
#X connect 22 0 16 0;
#X connect 23 0 24 0;
#X connect 24 0 22 0;
#X connect 24 0 32 0;
#X connect 24 1 14 0;
#X connect 24 1 31 0;
#X connect 25 0 28 1;
#X connect 25 0 34 0;
#X connect 27 0 30 0;
#X connect 28 0 27 0;
#X connect 31 0 28 0;
#X connect 32 0 28 0;
#X connect 33 0 25 0;
#X connect 36 0 31 0;
#X connect 37 0 32 0;
#X connect 40 0 47 0;
#X connect 41 0 42 0;
#X connect 42 0 45 0;
#X connect 44 0 39 0;
#X connect 44 0 38 0;
#X connect 45 0 41 1;
#X connect 45 0 44 0;
#X connect 49 0 44 1;
#X connect 49 0 43 0;
#X connect 50 0 51 0;
#X connect 52 0 50 0;
#X restore 65 192 pd tapTempo;
#X obj 63 71 r Button_1 @owl B1;
#X text 87 47 BUT 1_ CLOCK;
#X obj 100 159 bng 15 250 50 0 empty empty empty 17 7 0 10 -262144
-1 -1;
#X obj 65 249 bng 15 250 50 0 empty empty empty 17 7 0 10 -262144 -1
-1;
#X obj 60 287 s clock;
#X obj 140 160 tgl 15 0 empty empty empty 17 7 0 10 -262144 -1 -1 1
1;
#X obj 141 247 s multi4Clock;
#X floatatom 503 814 5 0 0 0 - - -;
#X obj 502 855 sel 1;
#X obj 516 118 sel 1;
#X text 553 67 BUT 2;
#X obj 517 87 r Button_2 @owl B2;
#X obj 388 187 s BUTTON_B @owl B2;
#X text 404 214 BUTTON B LED;
#X obj 593 123 bng 15 250 50 0 empty empty empty 17 7 0 10 -262144
-1 -1;
#X obj 2217 264 dac~;
#N canvas 1503 773 450 300 mixer 0;
#X obj 105 253 outlet~;
#X obj 216 69 inlet~ C;
#X obj 136 71 inlet~ B;
#X obj 52 69 inlet~ A;
#X obj 101 183 *~;
#X obj 200 144 loadbang;
#X msg 199 168 1;
#X msg 200 192 0;
#X connect 1 0 4 0;
#X connect 2 0 4 0;
#X connect 3 0 4 0;
#X connect 4 0 0 0;
#X connect 5 0 6 0;
#X connect 6 0 4 1;
#X connect 7 0 4 1;
#X restore 2216 215 pd mixer;
#X obj 2342 155 r~ audioNoiseC;
#X obj 2232 156 r~ audioNoiseB;
#X obj 2110 154 r~ audioNoiseA;
#N canvas 1595 721 965 697 oscLow 0;
#N canvas 1516 689 831 675 vca_env 0;
#N canvas 1457 716 450 300 vline 0;
#X obj 37 17 inlet;
#X obj 94 121 unpack f f f;
#X obj 94 72 t a b;
#X msg 112 96 0;
#X text 145 97 Default to zero delay if 2 args supplied;
#X obj 37 208 line~;
#X obj 37 230 outlet~;
#X obj 37 39 route stop;
#X msg 37 131 stop;
#X obj 37 61 t b b;
#X msg 50 99 clear;
#N canvas 274 138 360 214 dbl-pipe 0;
#X obj 65 42 inlet;
#X obj 125 42 inlet;
#X obj 185 42 inlet;
#X obj 65 84 pipe 0;
#X obj 125 84 pipe 0;
#X obj 65 106 outlet;
#X obj 125 106 outlet;
#X connect 0 0 3 0;
#X connect 0 0 4 0;
#X connect 1 0 4 0;
#X connect 2 0 3 1;
#X connect 2 0 4 1;
#X connect 3 0 5 0;
#X connect 4 0 6 0;
#X restore 94 149 pd dbl-pipe;
#X obj 94 173 pack f f;
#X connect 0 0 7 0;
#X connect 1 0 11 0;
#X connect 1 1 11 1;
#X connect 1 2 11 2;
#X connect 2 0 1 0;
#X connect 2 1 3 0;
#X connect 3 0 11 2;
#X connect 5 0 6 0;
#X connect 7 0 9 0;
#X connect 7 1 2 0;
#X connect 8 0 5 0;
#X connect 9 0 8 0;
#X connect 9 1 10 0;
#X connect 10 0 11 0;
#X connect 10 0 11 1;
#X connect 11 0 12 0;
#X connect 11 1 12 1;
#X connect 12 0 5 0;
#X restore 36 111 pd vline;
#N canvas 926 529 2560 1183 advca 0;
#X obj 49 108 inlet;
#X obj 97 431 outlet;
#X obj 56 169 bng 15 250 50 0 empty empty empty 17 7 0 10 -262144 -1
-1;
#X obj 225 151 vsl 15 128 0 5000 0 0 empty empty empty 0 -9 0 10 -262144
-1 -1 900 1;
#X floatatom 263 322 5 0 0 0 - - -;
#X text 197 370 Define the envelope;
#X obj 161 151 vsl 15 128 0 15 0 0 empty empty empty 0 -9 0 10 -262144
-1 -1 93 1;
#X floatatom 206 324 5 0 0 0 - - -;
#X obj 289 135 vsl 15 128 10 30 0 0 empty empty empty 0 -9 0 10 -262144
-1 -1 794 1;
#X obj 107 334 pack f f f f;
#X floatatom 349 299 5 0 0 0 - - -;
#X msg 92 372 1 \$2 \, 0 \$3 \$4;
#X obj 186 54 loadbang;
#X msg 151 98 0.11;
#X msg 204 92 354.3;
#X msg 281 99 11.25;
#N canvas 1400 572 680 594 switch 0;
#X obj 114 257 spigot;
#X obj 156 213 tgl 15 0 empty empty empty 17 7 0 10 -262144 -1 -1 1
1;
#X obj 276 41 loadbang;
#X obj 186 256 spigot;
#X obj 225 86 tgl 15 0 empty empty empty 17 7 0 10 -262144 -1 -1 0
1;
#X obj 255 122 !=;
#X msg 273 79 1;
#X obj 114 301 outlet;
#X obj 108 154 inlet A;
#X obj 220 3 inlet B;
#X connect 0 0 7 0;
#X connect 1 0 0 1;
#X connect 2 0 6 0;
#X connect 4 0 3 1;
#X connect 4 0 5 0;
#X connect 5 0 1 0;
#X connect 6 0 5 1;
#X connect 8 0 0 0;
#X connect 9 0 4 0;
#X restore 56 236 pd switch;
#X obj 111 196 tgl 15 0 empty empty empty 17 7 0 10 -262144 -1 -1 0
1;
#X obj 90 106 r muteA;
#X msg 112 63 0;
#X obj 23 415 s seq1;
#X obj 37 291 bng 15 250 50 0 empty empty empty 17 7 0 10 -262144 -1
-1;
#X msg 38 317 1;
#X connect 0 0 2 0;
#X connect 2 0 16 0;
#X connect 3 0 4 0;
#X connect 3 0 9 2;
#X connect 6 0 7 0;
#X connect 6 0 9 1;
#X connect 8 0 9 3;
#X connect 8 0 10 0;
#X connect 9 0 11 0;
#X connect 11 0 1 0;
#X connect 12 0 13 0;
#X connect 12 0 14 0;
#X connect 12 0 15 0;
#X connect 12 0 19 0;
#X connect 13 0 6 0;
#X connect 14 0 3 0;
#X connect 15 0 8 0;
#X connect 16 0 9 0;
#X connect 16 0 21 0;
#X connect 17 0 16 1;
#X connect 18 0 17 0;
#X connect 19 0 17 0;
#X connect 21 0 22 0;
#X connect 22 0 20 0;
#X restore 35 75 pd advca;
#X obj 39 158 outlet~;
#X obj 34 27 inlet bang;
#X connect 0 0 2 0;
#X connect 1 0 0 0;
#X connect 3 0 1 0;
#X restore 193 99 pd vca_env;
#X obj 56 154 *~;
#X obj 61 210 *~;
#X obj 189 63 inlet trigger;
#X obj 63 376 outlet~;
#X obj 153 139 loadbang;
#X obj 49 70 osc~ 100;
#X msg 130 176 0.4;
#X connect 0 0 1 1;
#X connect 1 0 2 0;
#X connect 2 0 4 0;
#X connect 3 0 0 0;
#X connect 5 0 7 0;
#X connect 6 0 1 0;
#X connect 7 0 2 1;
#X restore 504 890 pd oscLow;
#X obj 504 920 s~ audioNoiseA;
#X obj 659 145 tgl 15 0 empty empty A/B 17 7 0 10 -262144 -1 -1 0 1
;
#X obj 609 709 int;
#N canvas 975 232 1215 732 trigSeq 0;
#X obj 31 120 f;
#X obj 73 121 + 1;
#X obj 28 235 bng 15 250 50 0 empty empty empty 17 7 0 10 -262144 -1
-1;
#X obj 31 172 % 8;
#X msg 78 75 0;
#X obj 31 38 r clock;
#X obj 28 208 sel 0;
#X obj 140 205 outlet;
#X floatatom 106 247 5 0 0 0 - - -;
#X obj 28 266 s rand;
#X connect 0 0 1 0;
#X connect 0 0 3 0;
#X connect 0 0 7 0;
#X connect 1 0 0 1;
#X connect 2 0 9 0;
#X connect 3 0 6 0;
#X connect 3 0 8 0;
#X connect 4 0 0 1;
#X connect 5 0 0 0;
#X connect 6 0 2 0;
#X restore 232 77 pd trigSeq;
#X obj 877 705 bng 15 250 50 0 empty empty empty 17 7 0 10 -262144
-1 -1;
#N canvas 0 22 450 278 (subpatch) 0;
#X array stepSeq_02 8 float 3;
#A 0 1 1 0 1 1 1 0 0;
#X coords 0 2 8 0 200 140 1 0 0;
#X restore 907 423 graph;
#X floatatom 1055 813 5 0 0 0 - - -;
#X obj 1054 854 sel 1;
#X obj 1158 698 hsl 128 15 0 8 0 0 empty empty empty -2 -8 0 10 -262144
-1 -1 0 1;
#X obj 1155 728 int;
#X obj 1055 921 s~ audioNoiseB;
#N canvas 1358 621 965 696 oscHigh 0;
#N canvas 1516 690 831 675 vca_env 0;
#N canvas 1457 716 450 300 vline 0;
#X obj 37 17 inlet;
#X obj 94 121 unpack f f f;
#X obj 94 72 t a b;
#X msg 112 96 0;
#X text 145 97 Default to zero delay if 2 args supplied;
#X obj 37 208 line~;
#X obj 37 230 outlet~;
#X obj 37 39 route stop;
#X msg 37 131 stop;
#X obj 37 61 t b b;
#X msg 50 99 clear;
#N canvas 274 138 360 214 dbl-pipe 0;
#X obj 65 42 inlet;
#X obj 125 42 inlet;
#X obj 185 42 inlet;
#X obj 65 84 pipe 0;
#X obj 125 84 pipe 0;
#X obj 65 106 outlet;
#X obj 125 106 outlet;
#X connect 0 0 3 0;
#X connect 0 0 4 0;
#X connect 1 0 4 0;
#X connect 2 0 3 1;
#X connect 2 0 4 1;
#X connect 3 0 5 0;
#X connect 4 0 6 0;
#X restore 94 149 pd dbl-pipe;
#X obj 94 173 pack f f;
#X connect 0 0 7 0;
#X connect 1 0 11 0;
#X connect 1 1 11 1;
#X connect 1 2 11 2;
#X connect 2 0 1 0;
#X connect 2 1 3 0;
#X connect 3 0 11 2;
#X connect 5 0 6 0;
#X connect 7 0 9 0;
#X connect 7 1 2 0;
#X connect 8 0 5 0;
#X connect 9 0 8 0;
#X connect 9 1 10 0;
#X connect 10 0 11 0;
#X connect 10 0 11 1;
#X connect 11 0 12 0;
#X connect 11 1 12 1;
#X connect 12 0 5 0;
#X restore 39 105 pd vline;
#N canvas 861 435 1374 948 advca 0;
#X obj 99 444 outlet;
#X obj 227 164 vsl 15 128 0 5000 0 0 empty empty empty 0 -9 0 10 -262144
-1 -1 300 1;
#X floatatom 265 335 5 0 0 0 - - -;
#X text 199 383 Define the envelope;
#X obj 163 164 vsl 15 128 0 15 0 0 empty empty empty 0 -9 0 10 -262144
-1 -1 0 1;
#X floatatom 208 337 5 0 0 0 - - -;
#X obj 291 148 vsl 15 128 10 30 0 0 empty empty empty 0 -9 0 10 -262144
-1 -1 0 1;
#X obj 109 347 pack f f f f;
#X floatatom 351 312 5 0 0 0 - - -;
#X msg 94 385 1 \$2 \, 0 \$3 \$4;
#X obj 186 54 loadbang;
#X msg 151 98 0;
#X msg 204 92 118;
#X msg 281 99 10;
#X obj 49 108 inlet;
#X obj 56 169 bng 15 250 50 0 empty empty empty 17 7 0 10 -262144 -1
-1;
#N canvas 1400 572 680 594 switch 0;
#X obj 114 257 spigot;
#X obj 156 213 tgl 15 0 empty empty empty 17 7 0 10 -262144 -1 -1 0
1;
#X obj 276 41 loadbang;
#X obj 186 256 spigot;
#X obj 225 86 tgl 15 0 empty empty empty 17 7 0 10 -262144 -1 -1 1
1;
#X obj 255 122 !=;
#X msg 273 79 1;
#X obj 114 301 outlet;
#X obj 108 154 inlet A;
#X obj 220 3 inlet B;
#X connect 0 0 7 0;
#X connect 1 0 0 1;
#X connect 2 0 6 0;
#X connect 4 0 3 1;
#X connect 4 0 5 0;
#X connect 5 0 1 0;
#X connect 6 0 5 1;
#X connect 8 0 0 0;
#X connect 9 0 4 0;
#X restore 55 236 pd switch;
#X obj 111 196 tgl 15 0 empty empty empty 17 7 0 10 -262144 -1 -1 1
1;
#X obj 102 139 r muteB;
#X msg 112 63 0;
#X obj 19 377 s seq2;
#X obj 37 291 bng 15 250 50 0 empty empty empty 17 7 0 10 -262144 -1
-1;
#X msg 38 317 1;
#X connect 1 0 2 0;
#X connect 1 0 7 2;
#X connect 4 0 5 0;
#X connect 4 0 7 1;
#X connect 6 0 7 3;
#X connect 6 0 8 0;
#X connect 7 0 9 0;
#X connect 9 0 0 0;
#X connect 10 0 11 0;
#X connect 10 0 12 0;
#X connect 10 0 13 0;
#X connect 10 0 19 0;
#X connect 11 0 4 0;
#X connect 12 0 1 0;
#X connect 13 0 6 0;
#X connect 14 0 15 0;
#X connect 15 0 16 0;
#X connect 16 0 7 0;
#X connect 16 0 21 0;
#X connect 17 0 16 1;
#X connect 18 0 17 0;
#X connect 19 0 17 0;
#X connect 21 0 22 0;
#X connect 22 0 20 0;
#X restore 38 69 pd advca;
#X obj 42 152 outlet~;
#X obj 34 27 inlet bang;
#X connect 0 0 2 0;
#X connect 1 0 0 0;
#X connect 3 0 1 0;
#X restore 193 99 pd vca_env;
#X obj 69 154 *~;
#X obj 61 210 *~;
#X obj 189 63 inlet trigger;
#X obj 57 256 outlet~;
#X obj 135 146 loadbang;
#X obj 49 70 osc~ 7500;
#X msg 112 182 0.6;
#X msg 130 212 0;
#X connect 0 0 1 1;
#X connect 1 0 2 0;
#X connect 2 0 4 0;
#X connect 3 0 0 0;
#X connect 5 0 7 0;
#X connect 6 0 1 0;
#X connect 7 0 2 1;
#X connect 8 0 2 1;
#X restore 1055 888 pd oscHigh;
#X obj 557 263 s randTrig;
#X obj 310 686 r randTrig;
#X obj 877 676 r randTrig;
#X obj 232 149 s clockArray;
#X obj 503 676 r clockArray;
#X obj 1464 697 bng 15 250 50 0 empty empty empty 17 7 0 10 -262144
-1 -1;
#N canvas 0 22 450 278 (subpatch) 0;
#X array stepSeq_03 8 float 3;
#A 0 1 1 1 0 0 1 1 1;
#X coords 0 2 8 0 200 140 1 0 0;
#X restore 1524 408 graph;
#X floatatom 1701 791 5 0 0 0 - - -;
#X obj 1679 833 sel 1;
#X obj 1833 700 hsl 128 15 0 8 0 0 empty empty empty -2 -8 0 10 -262144
-1 -1 0 1;
#X obj 1830 730 int;
#X obj 1464 670 r randTrig;
#X obj 1681 895 s~ audioNoiseC;
#N canvas 1358 620 965 696 noiseOsc 0;
#N canvas 1226 433 831 675 vca_env 0;
#N canvas 1457 716 450 300 vline 0;
#X obj 37 17 inlet;
#X obj 94 121 unpack f f f;
#X obj 94 72 t a b;
#X msg 112 96 0;
#X text 145 97 Default to zero delay if 2 args supplied;
#X obj 37 208 line~;
#X obj 37 230 outlet~;
#X obj 37 39 route stop;
#X msg 37 131 stop;
#X obj 37 61 t b b;
#X msg 50 99 clear;
#N canvas 274 138 360 214 dbl-pipe 0;
#X obj 65 42 inlet;
#X obj 125 42 inlet;
#X obj 185 42 inlet;
#X obj 65 84 pipe 0;
#X obj 125 84 pipe 0;
#X obj 65 106 outlet;
#X obj 125 106 outlet;
#X connect 0 0 3 0;
#X connect 0 0 4 0;
#X connect 1 0 4 0;
#X connect 2 0 3 1;
#X connect 2 0 4 1;
#X connect 3 0 5 0;
#X connect 4 0 6 0;
#X restore 94 149 pd dbl-pipe;
#X obj 94 173 pack f f;
#X connect 0 0 7 0;
#X connect 1 0 11 0;
#X connect 1 1 11 1;
#X connect 1 2 11 2;
#X connect 2 0 1 0;
#X connect 2 1 3 0;
#X connect 3 0 11 2;
#X connect 5 0 6 0;
#X connect 7 0 9 0;
#X connect 7 1 2 0;
#X connect 8 0 5 0;
#X connect 9 0 8 0;
#X connect 9 1 10 0;
#X connect 10 0 11 0;
#X connect 10 0 11 1;
#X connect 11 0 12 0;
#X connect 11 1 12 1;
#X connect 12 0 5 0;
#X restore 39 105 pd vline;
#N canvas 663 151 1349 1093 advca 0;
#X obj 34 85 inlet;
#X obj 100 416 outlet;
#X obj 39 141 bng 15 250 50 0 empty empty empty 17 7 0 10 -262144 -1
-1;
#X obj 228 136 vsl 15 128 0 5000 0 0 empty empty empty 0 -9 0 10 -262144
-1 -1 498 1;
#X floatatom 266 307 5 0 0 0 - - -;
#X text 200 355 Define the envelope;
#X obj 164 136 vsl 15 128 0 15 0 0 empty empty empty 0 -9 0 10 -262144
-1 -1 0 1;
#X floatatom 209 309 5 0 0 0 - - -;
#X msg 95 357 1 \$2 \, 0 \$3 \$4;
#X obj 292 120 vsl 15 128 10 30 0 0 empty empty empty 0 -9 0 10 -262144
-1 -1 317 1;
#X obj 110 319 pack f f f f;
#X floatatom 352 284 5 0 0 0 - - -;
#X obj 195 24 loadbang;
#X msg 160 68 0;
#X msg 213 62 196;
#X msg 290 69 10.5;
#N canvas 1400 572 680 594 switch 0;
#X obj 114 257 spigot;
#X obj 156 213 tgl 15 0 empty empty empty 17 7 0 10 -262144 -1 -1 0
1;
#X obj 276 41 loadbang;
#X obj 186 256 spigot;
#X obj 225 86 tgl 15 0 empty empty empty 17 7 0 10 -262144 -1 -1 1
1;
#X obj 255 122 !=;
#X msg 273 79 1;
#X obj 114 301 outlet;
#X obj 108 154 inlet A;
#X obj 220 3 inlet B;
#X connect 0 0 7 0;
#X connect 1 0 0 1;
#X connect 2 0 6 0;
#X connect 4 0 3 1;
#X connect 4 0 5 0;
#X connect 5 0 1 0;
#X connect 6 0 5 1;
#X connect 8 0 0 0;
#X connect 9 0 4 0;
#X restore 68 197 pd switch;
#X obj 123 157 tgl 15 0 empty empty empty 17 7 0 10 -262144 -1 -1 1
1;
#X obj 103 93 r muteC;
#X msg 112 63 0;
#X obj 26 285 s seq3;
#X obj 35 217 bng 15 250 50 0 empty empty empty 17 7 0 10 -262144 -1
-1;
#X msg 36 243 1;
#X connect 0 0 2 0;
#X connect 2 0 16 0;
#X connect 3 0 4 0;
#X connect 3 0 10 2;
#X connect 6 0 7 0;
#X connect 6 0 10 1;
#X connect 8 0 1 0;
#X connect 9 0 10 3;
#X connect 9 0 11 0;
#X connect 10 0 8 0;
#X connect 12 0 13 0;
#X connect 12 0 14 0;
#X connect 12 0 15 0;
#X connect 12 0 19 0;
#X connect 13 0 6 0;
#X connect 14 0 3 0;
#X connect 15 0 9 0;
#X connect 16 0 10 0;
#X connect 16 0 21 0;
#X connect 17 0 16 1;
#X connect 18 0 17 0;
#X connect 19 0 17 0;
#X connect 21 0 22 0;
#X connect 22 0 20 0;
#X restore 38 69 pd advca;
#X obj 42 152 outlet~;
#X obj 34 27 inlet bang;
#X connect 0 0 2 0;
#X connect 1 0 0 0;
#X connect 3 0 1 0;
#X restore 193 99 pd vca_env;
#X obj 49 70 noise~;
#X obj 69 154 *~;
#X obj 64 111 hip~ 2500;
#X obj 61 210 *~;
#X obj 189 63 inlet trigger;
#X obj 57 256 outlet~;
#X obj 135 146 loadbang;
#X msg 113 183 0.07;
#X msg 126 215 0;
#X connect 0 0 2 1;
#X connect 1 0 3 0;
#X connect 2 0 4 0;
#X connect 3 0 2 0;
#X connect 4 0 6 0;
#X connect 5 0 0 0;
#X connect 7 0 8 0;
#X connect 8 0 4 1;
#X connect 9 0 4 1;
#X restore 1680 863 pd noiseOsc;
#X obj 504 731 % \$1;
#X obj 1053 698 r clockArray;
#X obj 1054 753 % \$1;
#X obj 1701 673 r clockArray;
#X obj 1702 728 % \$1;
#X floatatom 620 740 5 0 0 0 - - -;
#X floatatom 1175 754 5 0 0 0 - - -;
#X floatatom 1849 754 5 0 0 0 - - -;
#X text 1768 287 CV OUT 1;
#X obj 1717 257 s CV_OUT_1 @owl F;
#X text 1896 286 CV OUT 2;
#X obj 1864 256 s CV_OUT_2 @owl G;
#X text 1576 287 GATE OUT;
#X obj 1536 257 s GATE_OUT @owl Push;
#X obj 1541 139 r seq1;
#X obj 1722 139 r seq2;
#X obj 1866 119 r seq3;
#X obj 72 372 s BUTTON_A @owl B1;
#X text 88 400 BUTTON A LED;
#X obj 73 342 tgl 15 0 empty empty empty 17 7 0 10 -262144 -1 -1 0
1;
#X obj 1190 626 loadbang;
#X obj 1877 615 loadbang;
#X obj 310 739 t b b;
#X obj 310 787 until;
#X obj 374 829 i;
#X obj 377 855 t b f;
#X obj 307 896 random 2;
#X obj 307 920 tabwrite stepSeq_01;
#X obj 418 828 + 1;
#X msg 363 764 0;
#X obj 503 784 tabread stepSeq_01;
#X obj 877 733 t b b;
#X obj 877 781 until;
#X obj 941 823 i;
#X obj 944 849 t b f;
#X obj 874 890 random 2;
#X obj 985 822 + 1;
#X msg 930 758 0;
#X obj 1464 721 t b b;
#X obj 1464 769 until;
#X obj 1528 811 i;
#X obj 1531 837 t b f;
#X obj 1461 878 random 2;
#X obj 1572 810 + 1;
#X msg 1517 746 0;
#X obj 873 914 tabwrite stepSeq_02;
#X obj 1462 902 tabwrite stepSeq_03;
#X obj 1055 782 tabread stepSeq_02;
#X obj 1700 761 tabread stepSeq_03;
#N canvas 1400 572 680 594 switch 0;
#X obj 114 257 spigot;
#X obj 156 213 tgl 15 0 empty empty empty 17 7 0 10 -262144 -1 -1 1
1;
#X obj 276 41 loadbang;
#X obj 186 256 spigot;
#X obj 225 86 tgl 15 0 empty empty empty 17 7 0 10 -262144 -1 -1 0
1;
#X obj 255 122 !=;
#X msg 273 79 1;
#X obj 114 301 outlet;
#X obj 108 154 inlet A;
#X obj 220 3 inlet B;
#X connect 0 0 7 0;
#X connect 1 0 0 1;
#X connect 2 0 6 0;
#X connect 4 0 3 1;
#X connect 4 0 5 0;
#X connect 5 0 1 0;
#X connect 6 0 5 1;
#X connect 8 0 0 0;
#X connect 9 0 4 0;
#X restore 558 230 pd switch;
#X obj 560 195 r rand;
#X obj 144 101 loadbang;
#X msg 147 131 0;
#X obj 703 133 hsl 128 15 0 1 0 0 empty empty empty -2 -8 0 10 -262144
-1 -1 12700 0;
#X obj 723 184 int;
#X obj 723 250 s length_01;
#X obj 675 634 r length_01;
#X obj 919 134 hsl 128 15 0 1 0 0 empty empty empty -2 -8 0 10 -262144
-1 -1 0 1;
#X obj 915 186 int;
#X obj 915 251 s length_02;
#X obj 1096 130 hsl 128 15 0 1 0 0 empty empty empty -2 -8 0 10 -262144
-1 -1 0 1;
#X obj 1092 182 int;
#X obj 1092 247 s length_03;
#X obj 1254 667 r length_02;
#X obj 1950 657 r length_03;
#X obj 1092 89 r Pot_C @owl C;
#X text 1120 63 POT C;
#X text 751 61 POT A;
#X obj 727 89 r Pot_A @owl A;
#X text 948 64 POT B;
#X obj 921 92 r Pot_B @owl B;
#N canvas 602 417 1654 1024 gateToTrigger 0;
#X obj 57 70 sel 1;
#X obj 57 101 bng 15 250 50 0 empty empty empty 17 7 0 10 -262144 -1
-1;
#X obj 84 246 + 1;
#X obj 46 246 i;
#X obj 53 138 t b b;
#X floatatom 45 276 5 0 0 0 - - -;
#X msg 101 206 0;
#X obj 98 172 delay 100;
#X obj 59 44 inlet;
#X obj 41 315 outlet;
#X connect 0 0 1 0;
#X connect 1 0 4 0;
#X connect 2 0 3 1;
#X connect 3 0 2 0;
#X connect 3 0 5 0;
#X connect 4 0 3 0;
#X connect 4 1 7 0;
#X connect 5 0 9 0;
#X connect 6 0 3 0;
#X connect 7 0 6 0;
#X connect 8 0 0 0;
#X restore 1540 203 pd gateToTrigger;
#X floatatom 1571 227 5 0 0 0 - - -;
#N canvas 0 23 1654 1024 gateToTrigger 0;
#X obj 57 70 sel 1;
#X obj 57 101 bng 15 250 50 0 empty empty empty 17 7 0 10 -262144 -1
-1;
#X obj 84 246 + 1;
#X obj 46 246 i;
#X obj 53 138 t b b;
#X floatatom 45 276 5 0 0 0 - - -;
#X msg 101 206 0;
#X obj 98 172 delay 100;
#X obj 59 44 inlet;
#X obj 41 315 outlet;
#X connect 0 0 1 0;
#X connect 1 0 4 0;
#X connect 2 0 3 1;
#X connect 3 0 2 0;
#X connect 3 0 5 0;
#X connect 4 0 3 0;
#X connect 4 1 7 0;
#X connect 5 0 9 0;
#X connect 6 0 3 0;
#X connect 7 0 6 0;
#X connect 8 0 0 0;
#X restore 1721 206 pd gateToTrigger;
#X floatatom 1742 230 5 0 0 0 - - -;
#N canvas 0 23 1654 1024 gateToTrigger 0;
#X obj 57 70 sel 1;
#X obj 57 101 bng 15 250 50 0 empty empty empty 17 7 0 10 -262144 -1
-1;
#X obj 84 246 + 1;
#X obj 46 246 i;
#X obj 53 138 t b b;
#X floatatom 45 276 5 0 0 0 - - -;
#X msg 101 206 0;
#X obj 98 172 delay 100;
#X obj 59 44 inlet;
#X obj 41 315 outlet;
#X connect 0 0 1 0;
#X connect 1 0 4 0;
#X connect 2 0 3 1;
#X connect 3 0 2 0;
#X connect 3 0 5 0;
#X connect 4 0 3 0;
#X connect 4 1 7 0;
#X connect 5 0 9 0;
#X connect 6 0 3 0;
#X connect 7 0 6 0;
#X connect 8 0 0 0;
#X restore 1865 189 pd gateToTrigger;
#X floatatom 1886 213 5 0 0 0 - - -;
#X obj 657 61 loadbang;
#X msg 660 91 0;
#X msg 310 763 8;
#X msg 877 757 8;
#X msg 1464 744 8;
#X msg 1159 658 8;
#X msg 1845 659 8;
#X obj 723 159 * 8;
#N canvas 913 593 1032 727 muteInZero 0;
#X obj 44 94 moses;
#X obj 126 28 loadbang;
#X obj 45 20 inlet;
#X obj 102 210 moses;
#X obj 163 132 loadbang;
#X floatatom 99 170 5 0 0 0 - - -;
#X msg 151 169 2;
#X floatatom 55 61 5 0 0 0 - - -;
#X obj 45 127 int;
#X obj 92 131 int;
#X msg 102 59 1;
#X obj 71 346 outlet;
#X obj 45 150 + 1;
#X obj 102 234 - 1;
#X connect 0 0 8 0;
#X connect 0 1 9 0;
#X connect 1 0 10 0;
#X connect 2 0 0 0;
#X connect 2 0 7 0;
#X connect 3 0 13 0;
#X connect 4 0 6 0;
#X connect 5 0 3 0;
#X connect 6 0 3 1;
#X connect 8 0 12 0;
#X connect 9 0 5 0;
#X connect 10 0 0 1;
#X connect 12 0 11 0;
#X connect 13 0 11 0;
#X restore 678 770 pd muteInZero;
#X obj 677 798 s muteA;
#X obj 631 678 hsl 128 15 0 8 0 0 empty empty empty -2 -8 0 10 -262144
-1 -1 12700 1;
#N canvas 913 593 1032 727 muteInZero 0;
#X obj 44 94 moses;
#X obj 126 28 loadbang;
#X obj 45 20 inlet;
#X obj 102 210 moses;
#X obj 163 132 loadbang;
#X floatatom 99 170 5 0 0 0 - - -;
#X msg 151 169 2;
#X floatatom 55 61 5 0 0 0 - - -;
#X obj 45 127 int;
#X obj 92 131 int;
#X msg 102 59 1;
#X obj 71 346 outlet;
#X obj 45 150 + 1;
#X obj 102 234 - 1;
#X connect 0 0 8 0;
#X connect 0 1 9 0;
#X connect 1 0 10 0;
#X connect 2 0 0 0;
#X connect 2 0 7 0;
#X connect 3 0 13 0;
#X connect 4 0 6 0;
#X connect 5 0 3 0;
#X connect 6 0 3 1;
#X connect 8 0 12 0;
#X connect 9 0 5 0;
#X connect 10 0 0 1;
#X connect 12 0 11 0;
#X connect 13 0 11 0;
#X restore 1251 748 pd muteInZero;
#X obj 1248 776 s muteB;
#X obj 915 161 * 8;
#X obj 1092 157 * 8;
#N canvas 913 593 1032 727 muteInZero 0;
#X obj 44 94 moses;
#X obj 126 28 loadbang;
#X obj 45 20 inlet;
#X obj 102 210 moses;
#X obj 163 132 loadbang;
#X floatatom 99 170 5 0 0 0 - - -;
#X msg 151 169 2;
#X floatatom 55 61 5 0 0 0 - - -;
#X obj 45 127 int;
#X obj 92 131 int;
#X msg 102 59 1;
#X obj 71 346 outlet;
#X obj 45 150 + 1;
#X obj 102 234 - 1;
#X connect 0 0 8 0;
#X connect 0 1 9 0;
#X connect 1 0 10 0;
#X connect 2 0 0 0;
#X connect 2 0 7 0;
#X connect 3 0 13 0;
#X connect 4 0 6 0;
#X connect 5 0 3 0;
#X connect 6 0 3 1;
#X connect 8 0 12 0;
#X connect 9 0 5 0;
#X connect 10 0 0 1;
#X connect 12 0 11 0;
#X connect 13 0 11 0;
#X restore 1915 776 pd muteInZero;
#X obj 1912 804 s muteC;
#X obj 838 45 loadbang;
#X obj 1298 129 hsl 128 15 0 1 0 0 empty empty empty -2 -8 0 10 -262144
-1 -1 0 1;
#X text 1299 62 POT D;
#X obj 1271 86 r Pot_D @owl D;
#X obj 1295 149 * 0.33;
#X floatatom 1306 185 5 0 0 0 - - -;
#X obj 1280 245 s swing;
#X msg 854 88 0;
#X connect 0 0 72 0;
#X connect 2 0 9 0;
#X connect 2 0 69 0;
#X connect 2 1 6 0;
#X connect 3 0 2 0;
#X connect 5 0 2 1;
#X connect 6 0 7 0;
#X connect 8 0 2 2;
#X connect 10 0 11 0;
#X connect 11 0 23 0;
#X connect 12 1 17 0;
#X connect 14 0 12 0;
#X connect 17 0 25 0;
#X connect 19 0 18 0;
#X connect 19 0 18 1;
#X connect 20 0 19 2;
#X connect 21 0 19 1;
#X connect 22 0 19 0;
#X connect 23 0 24 0;
#X connect 25 0 15 0;
#X connect 25 0 99 1;
#X connect 26 0 55 0;
#X connect 26 0 50 1;
#X connect 27 0 39 0;
#X connect 28 0 81 0;
#X connect 30 0 31 0;
#X connect 31 0 35 0;
#X connect 32 0 33 0;
#X connect 33 0 52 1;
#X connect 33 0 56 0;
#X connect 35 0 34 0;
#X connect 37 0 0 0;
#X connect 38 0 28 0;
#X connect 40 0 50 0;
#X connect 41 0 88 0;
#X connect 43 0 44 0;
#X connect 44 0 49 0;
#X connect 45 0 46 0;
#X connect 46 0 54 1;
#X connect 46 0 57 0;
#X connect 47 0 41 0;
#X connect 49 0 48 0;
#X connect 50 0 80 0;
#X connect 51 0 52 0;
#X connect 52 0 97 0;
#X connect 53 0 54 0;
#X connect 54 0 98 0;
#X connect 55 0 135 0;
#X connect 56 0 138 0;
#X connect 57 0 142 0;
#X connect 64 0 121 0;
#X connect 65 0 123 0;
#X connect 66 0 125 0;
#X connect 69 0 67 0;
#X connect 70 0 132 0;
#X connect 71 0 133 0;
#X connect 72 0 129 0;
#X connect 72 1 79 0;
#X connect 73 0 74 0;
#X connect 74 0 75 0;
#X connect 74 0 78 0;
#X connect 75 0 76 0;
#X connect 75 1 77 1;
#X connect 76 0 77 0;
#X connect 78 0 74 1;
#X connect 79 0 74 1;
#X connect 80 0 10 0;
#X connect 81 0 130 0;
#X connect 81 1 87 0;
#X connect 82 0 83 0;
#X connect 83 0 84 0;
#X connect 83 0 86 0;
#X connect 84 0 85 0;
#X connect 84 1 95 1;
#X connect 85 0 95 0;
#X connect 86 0 83 1;
#X connect 87 0 83 1;
#X connect 88 0 131 0;
#X connect 88 1 94 0;
#X connect 89 0 90 0;
#X connect 90 0 91 0;
#X connect 90 0 93 0;
#X connect 91 0 92 0;
#X connect 91 1 96 1;
#X connect 92 0 96 0;
#X connect 93 0 90 1;
#X connect 94 0 90 1;
#X connect 97 0 30 0;
#X connect 98 0 43 0;
#X connect 99 0 36 0;
#X connect 100 0 99 0;
#X connect 101 0 102 0;
#X connect 102 0 8 0;
#X connect 103 0 134 0;
#X connect 104 0 105 0;
#X connect 106 0 137 0;
#X connect 107 0 140 0;
#X connect 108 0 109 0;
#X connect 110 0 141 0;
#X connect 111 0 112 0;
#X connect 113 0 32 0;
#X connect 114 0 45 0;
#X connect 115 0 110 0;
#X connect 118 0 103 0;
#X connect 120 0 107 0;
#X connect 121 0 63 0;
#X connect 121 0 122 0;
#X connect 123 0 59 0;
#X connect 123 0 124 0;
#X connect 125 0 126 0;
#X connect 125 0 61 0;
#X connect 127 0 128 0;
#X connect 128 0 25 0;
#X connect 129 0 73 0;
#X connect 130 0 82 0;
#X connect 131 0 89 0;
#X connect 132 0 32 0;
#X connect 133 0 45 0;
#X connect 134 0 104 0;
#X connect 135 0 136 0;
#X connect 137 0 26 0;
#X connect 138 0 139 0;
#X connect 140 0 108 0;
#X connect 141 0 111 0;
#X connect 142 0 143 0;
#X connect 144 0 151 0;
#X connect 145 0 148 0;
#X connect 147 0 145 0;
#X connect 148 0 149 0;
#X connect 148 0 150 0;
#X connect 151 0 103 0;
#X connect 151 0 107 0;
#X connect 151 0 110 0;
