#N canvas 987 23 1573 1395 12;
#N canvas 0 22 450 278 (subpatch) 0;
#X array waveL 100 float 1;
#A 0 -0.324511 -0.131126 0.0859697 0.310678 0.527095 0.710112 0.83459
0.892741 0.882735 0.812285 0.680523 0.504142 0.303421 0.0957978 -0.0847596
-0.233799 -0.335214 -0.38417 -0.392524 -0.349626 -0.266702 -0.156589
-0.0262661 0.0959537 0.19944 0.282312 0.323389 0.322113 0.281943 0.207873
0.110679 0.00384315 -0.0894771 -0.156149 -0.189889 -0.190613 -0.15249
-0.0778705 0.0220554 0.130914 0.228952 0.306724 0.346866 0.345862 0.30773
0.221078 0.0889739 -0.0796397 -0.277974 -0.480246 -0.66265 -0.814097
-0.918378 -0.957045 -0.929851 -0.837406 -0.684552 -0.493357 -0.279693
-0.0744246 0.105648 0.255927 0.355119 0.391952 0.358876 0.262933 0.118981
-0.064157 -0.270605 -0.474079 -0.662051 -0.827657 -0.94724 -1 -0.987885
-0.93026 -0.827623 -0.688011 -0.539041 -0.400808 -0.285512 -0.201724
-0.16061 -0.158216 -0.184282 -0.227748 -0.288246 -0.364855 -0.436162
-0.49064 -0.510703 -0.494446 -0.446988 -0.355791 -0.243595 -0.119052
0.0106158 0.118476 0.201741 0.237185;
#X coords 0 1 99 -1 300 140 1 0 0;
#X restore 465 225 graph;
#X obj 557 585 bng 15 250 50 0 empty empty empty 17 7 0 10 -262144
-1 -1;
#X obj 158 522 dac~;
#X obj 487 607 *~ 2;
#X obj 52 57 r Pot_A @owl A;
#X obj 609 440 r Button_1 @owl B1;
#X obj 441 64 r Button_2 @owl B2;
#X obj 57 112 hsl 128 15 0 1 0 0 empty empty empty -2 -8 0 10 -258113
-1 -1 0 1;
#N canvas 0 22 450 278 (subpatch) 0;
#X array waveR 100 float 1;
#A 0 0.353329 0.258869 0.117142 -0.0631654 -0.266423 -0.466752 -0.651819
-0.814865 -0.9326 -0.984544 -0.972617 -0.915882 -0.814831 -0.677377
-0.53071 -0.394614 -0.281099 -0.198606 -0.158127 -0.155771 -0.181433
-0.224228 -0.283791 -0.359216 -0.42942 -0.483057 -0.502809 -0.486804
-0.440079 -0.350292 -0.23983 -0.117212 0.0104517 0.116645 0.198623
0.233519 0.213221 0.148054 0.0404393 -0.0934335 -0.242742 -0.393718
-0.521057 -0.608377 -0.648482 -0.632373 -0.562962 -0.441302 -0.270331
-0.0578198 0.180538 0.418931 0.637884 0.812951 0.938953 1 0.984051
0.903105 0.762769 0.593147 0.410765 0.229001 0.073449 -0.0515207 -0.132865
-0.162784 -0.14028 -0.0687503 0.0397781 0.18075 0.340023 0.493835 0.62993
0.744269 0.810288 0.828369 0.803668 0.733755 0.648165 0.551544 0.468588
0.411396 0.374808 0.37342 0.402279 0.456614 0.525242 0.607701 0.684269
0.742273 0.784171 0.785792 0.752025 0.67723 0.551946 0.393344 0.21363
0.0382468 -0.119687 -0.248879;
#X coords 0 1 99 -1 300 140 1 0 0;
#X restore 784 224 graph;
#X obj 765 580 bng 15 250 50 0 empty empty empty 17 7 0 10 -262144
-1 -1;
#X obj 936 610 delay 5;
#X obj 670 494 bng 15 250 50 0 empty empty empty 17 7 0 10 -262144
-1 -1;
#X obj 770 613 delay 2;
#X obj 627 106 hsl 128 15 0.01 1 1 0 empty empty empty -2 -8 0 10 -262130
-1 -1 4438 1;
#X obj 604 56 r Pot_C @owl C;
#X obj 219 108 hsl 128 15 0 1 0 0 empty empty empty -2 -8 0 10 -258113
-1 -1 0 1;
#X obj 219 50 r Pot_B @owl B;
#X text 85 33 Freq A;
#X text 245 26 Freq B;
#X text 633 36 Decay;
#X obj 624 611 s normalize;
#X obj 935 566 r normalize;
#X text 620 419 Create_Waveform;
#X text 472 42 Gate in;
#X obj 322 183 r~ env;
#X obj 440 152 s~ env;
#X obj 149 188 r~ env;
#N canvas 1094 718 738 536 filter 0;
#X obj 312 142 hsl 128 15 0 100 0 0 empty empty empty -2 -8 0 10 -262144
-1 -1 12700 1;
#X floatatom 226 247 5 0 0 0 - - -;
#X obj 469 141 hsl 128 15 0 100 0 0 empty empty empty -2 -8 0 10 -262144
-1 -1 0 1;
#N canvas 0 23 509 448 bipolarFader 0;
#X obj 177 88 inlet;
#X obj 241 137 - 50;
#X obj 158 144 * 2;
#X obj 243 169 * 2;
#X floatatom 338 248 5 0 0 0 - - -;
#X floatatom 93 243 5 0 0 0 - - -;
#X obj 149 194 clip 0 100;
#X obj 248 221 clip 0 100;
#X obj 162 275 outlet;
#X obj 232 276 outlet;
#X connect 0 0 2 0;
#X connect 0 0 1 0;
#X connect 1 0 3 0;
#X connect 2 0 6 0;
#X connect 3 0 7 0;
#X connect 6 0 5 0;
#X connect 6 0 8 0;
#X connect 7 0 4 0;
#X connect 7 0 9 0;
#X restore 290 88 pd bipolarFader;
#X floatatom 353 177 5 0 0 0 - - -;
#X floatatom 495 174 5 0 0 0 - - -;
#X floatatom 283 334 5 0 0 0 - - -;
#X obj 224 178 * 100;
#X obj 42 408 hip~, f 12;
#X obj 156 406 hip~, f 16;
#X obj 32 323 lop~;
#X obj 163 340 lop~;
#X obj 288 18 inlet;
#X obj 34 462 outlet~;
#X obj 153 462 outlet~;
#X obj 76 131 inlet~;
#X obj 142 130 inlet~;
#X obj 415 248 * 100;
#X obj 289 51 * 100;
#X connect 0 0 4 0;
#X connect 0 0 7 0;
#X connect 1 0 10 1;
#X connect 1 0 11 1;
#X connect 2 0 5 0;
#X connect 2 0 17 0;
#X connect 3 0 0 0;
#X connect 3 1 2 0;
#X connect 6 0 9 1;
#X connect 6 0 8 1;
#X connect 7 0 1 0;
#X connect 8 0 13 0;
#X connect 9 0 14 0;
#X connect 10 0 8 0;
#X connect 11 0 9 0;
#X connect 12 0 18 0;
#X connect 15 0 10 0;
#X connect 16 0 11 0;
#X connect 17 0 6 0;
#X connect 18 0 3 0;
#X restore 139 431 pd filter;
#N canvas 0 23 975 1107 Mixer 0;
#X obj 30 152 *~;
#X obj 122 151 *~;
#X obj 51 83 loadbang;
#X obj 31 41 inlet~;
#X text 44 22 L;
#X text 120 20 R;
#X obj 101 39 inlet~;
#X obj 33 210 outlet~;
#X obj 115 211 outlet~;
#X text 52 237 L;
#X text 128 235 R;
#X msg 70 115 0.8;
#X connect 0 0 7 0;
#X connect 1 0 8 0;
#X connect 2 0 11 0;
#X connect 3 0 0 0;
#X connect 6 0 1 0;
#X connect 11 0 0 1;
#X connect 11 0 1 1;
#X restore 135 327 pd Mixer;
#X obj 485 723 tabwrite~ waveL;
#X msg 853 657 \; waveL normalize 1;
#X msg 998 656 \; waveR normalize 1;
#X obj 675 720 tabwrite~ waveR;
#X obj 414 69 bng 15 250 50 0 empty empty empty 17 7 0 10 -262144 -1
-1;
#X obj 861 89 hsl 128 15 0 1 0 0 empty empty empty -2 -8 0 10 -4034
-1 -1 6350 1;
#X obj 801 56 r Pot_D @owl D;
#X text 799 33 Filter LP->HP;
#X obj 778 124 s filterFreq;
#X obj 215 383 r filterFreq;
#N canvas 0 23 450 300 compressor 0;
#X obj 29 94 inlet~;
#X obj 230 143 env~ 1024;
#X floatatom 265 406 12 0 0 0 - - -;
#X obj 29 558 outlet~;
#X obj 29 531 *~;
#X obj 47 458 line~;
#X msg 49 430 \$1 20;
#X floatatom 29 203 5 0 0 0 - - -;
#X obj 29 155 delwrite~ comp 100;
#X text 99 429 attack: 20 ms;
#X obj 230 201 moses;
#X floatatom 230 176 5 0 0 0 - - -;
#X msg 230 373 1;
#X obj 230 226 bng 15 250 50 0 empty empty empty 0 -6 0 8 -262144 -1
-1;
#X msg 75 386 \$1 20;
#X text 125 386 release: 20 ms;
#X text 28 69 input signal;
#X text 76 202 forward control;
#X obj 136 588 outlet~;
#X obj 158 92 inlet~;
#X obj 28 179 delwrite~ comp2 100;
#X obj 134 537 *~;
#X floatatom 116 454 5 0 0 0 - - -;
#X text 163 453 forward control;
#X obj 116 478 delread~ comp2 10;
#X obj 29 227 delread~ comp 10;
#X msg 343 179 155;
#X obj 338 113 loadbang;
#X connect 0 0 1 0;
#X connect 0 0 8 0;
#X connect 1 0 11 0;
#X connect 2 0 6 0;
#X connect 4 0 3 0;
#X connect 5 0 4 1;
#X connect 5 0 21 1;
#X connect 6 0 5 0;
#X connect 7 0 25 0;
#X connect 10 0 13 0;
#X connect 11 0 10 0;
#X connect 12 0 14 0;
#X connect 13 0 12 0;
#X connect 14 0 5 0;
#X connect 19 0 1 0;
#X connect 19 0 20 0;
#X connect 21 0 18 0;
#X connect 22 0 24 0;
#X connect 24 0 21 0;
#X connect 25 0 4 0;
#X connect 26 0 10 1;
#X connect 27 0 26 0;
#X restore 124 475 pd compressor;
#X text 527 913 CV OUT 1;
#X text 825 914 GATE OUT;
#X obj 782 884 s GATE_OUT @owl Push;
#X obj 476 883 s CV_OUT_1 @owl F;
#X obj 778 820 r Button_2 @owl B2;
#X obj 487 90 r midiGate;
#X obj 945 24 loadbang;
#X obj 481 526 adc~;
#X obj 725 44 loadbang;
#X msg 724 68 0.05;
#N canvas 1311 404 612 763 oscillatorB 0;
#X obj 49 94 osc~;
#X obj 51 303 +~ 1;
#X obj 49 347 *~ 50;
#X obj 50 161 *~;
#X obj 130 131 inlet~;
#X text 127 114 Envelope;
#X obj 47 473 outlet~;
#X obj 166 448 hip~;
#X obj 214 398 loadbang;
#X msg 210 425 250;
#X obj 151 363 tabread~ waveR;
#X obj 41 34 inlet~;
#X connect 0 0 3 0;
#X connect 1 0 2 0;
#X connect 2 0 10 0;
#X connect 3 0 1 0;
#X connect 4 0 3 1;
#X connect 7 0 6 0;
#X connect 8 0 9 0;
#X connect 9 0 7 1;
#X connect 10 0 7 0;
#X connect 11 0 0 0;
#X restore 228 228 pd oscillatorB;
#N canvas 1642 377 748 998 oscillatorA 0;
#X obj 50 194 osc~;
#X obj 52 403 +~ 1;
#X obj 50 447 *~ 50;
#X obj 51 261 *~;
#X obj 131 231 inlet~;
#X text 128 214 Envelope;
#X obj 48 573 outlet~;
#X obj 167 548 hip~;
#X obj 215 498 loadbang;
#X msg 211 525 250;
#X obj 152 463 tabread~ waveL;
#X obj 45 53 inlet~;
#X connect 0 0 3 0;
#X connect 1 0 2 0;
#X connect 2 0 10 0;
#X connect 3 0 1 0;
#X connect 4 0 3 1;
#X connect 7 0 6 0;
#X connect 8 0 9 0;
#X connect 9 0 7 1;
#X connect 10 0 7 0;
#X connect 11 0 0 0;
#X restore 56 228 pd oscillatorA;
#X text 666 913 CV OUT 2;
#X obj 634 883 s CV_OUT_2 @owl G;
#N canvas 309 443 714 884 midiA 0;
#X obj 82 43 notein;
#X obj 82 144 mtof;
#X floatatom 82 168 5 0 0 0 - - -;
#X obj 84 403 *, f 16;
#X floatatom 83 457 5 0 0 0 - - -;
#X msg 83 480 \$1 5;
#X obj 288 198 hsl 128 15 -1 1 0 0 empty empty empty -2 -8 0 10 -262144
-1 -1 0 1;
#X obj 267 118 - 0.5;
#X obj 267 141 * 2;
#X obj 302 277 / 12;
#X obj 303 301 t b f;
#X obj 302 349 pow, f 5;
#X obj 302 373 t b f;
#X msg 302 324 2;
#X floatatom 296 255 5 0 0 0 - - -;
#X obj 84 379 f;
#X obj 82 515 line~;
#X text 433 197 Range -1/1;
#X obj 81 559 outlet~;
#X obj 285 218 * 60;
#X obj 267 85 inlet;
#X obj 128 119 > 0;
#X obj 128 154 sel 1;
#X obj 128 178 s midiGate;
#X floatatom 26 90 5 0 0 0 - - -;
#X obj 155 59 noteout;
#X obj 10 115 loadbang;
#X msg 10 139 440;
#X connect 0 0 1 0;
#X connect 0 0 24 0;
#X connect 0 1 21 0;
#X connect 1 0 2 0;
#X connect 2 0 15 0;
#X connect 3 0 4 0;
#X connect 4 0 5 0;
#X connect 5 0 16 0;
#X connect 6 0 19 0;
#X connect 7 0 8 0;
#X connect 8 0 6 0;
#X connect 9 0 10 0;
#X connect 10 0 13 0;
#X connect 10 1 11 1;
#X connect 11 0 12 0;
#X connect 12 0 15 0;
#X connect 12 1 3 1;
#X connect 13 0 11 0;
#X connect 14 0 9 0;
#X connect 15 0 3 0;
#X connect 16 0 18 0;
#X connect 19 0 14 0;
#X connect 20 0 7 0;
#X connect 21 0 22 0;
#X connect 22 0 23 0;
#X connect 26 0 27 0;
#X connect 27 0 2 0;
#X restore 52 174 pd midiA;
#N canvas 755 294 714 884 midiB 0;
#X obj 82 80 notein;
#X obj 82 144 mtof;
#X floatatom 82 168 5 0 0 0 - - -;
#X obj 83 433 *, f 16;
#X floatatom 83 457 10 0 0 0 - - -;
#X msg 83 480 \$1 5;
#X obj 288 198 hsl 128 15 -1 1 0 0 empty empty empty -2 -8 0 10 -262144
-1 -1 0 1;
#X obj 267 118 - 0.5;
#X obj 267 141 * 2;
#X obj 302 277 / 12;
#X obj 303 301 t b f;
#X obj 302 349 pow, f 5;
#X obj 302 373 t b f;
#X msg 302 324 2;
#X floatatom 296 255 5 0 0 0 - - -;
#X obj 83 409 f;
#X obj 82 515 line~;
#X text 433 197 Range -1/1;
#X obj 81 559 outlet~;
#X obj 285 218 * 60;
#X obj 267 85 inlet;
#X obj 17 99 loadbang;
#X msg 17 123 440;
#X connect 0 0 1 0;
#X connect 1 0 2 0;
#X connect 2 0 15 0;
#X connect 3 0 4 0;
#X connect 4 0 5 0;
#X connect 5 0 16 0;
#X connect 6 0 19 0;
#X connect 7 0 8 0;
#X connect 8 0 6 0;
#X connect 9 0 10 0;
#X connect 10 0 13 0;
#X connect 10 1 11 1;
#X connect 11 0 12 0;
#X connect 12 0 15 0;
#X connect 12 1 3 1;
#X connect 13 0 11 0;
#X connect 14 0 9 0;
#X connect 15 0 3 0;
#X connect 16 0 18 0;
#X connect 19 0 14 0;
#X connect 20 0 7 0;
#X connect 21 0 22 0;
#X connect 22 0 2 0;
#X restore 227 179 pd midiB;
#X obj 102 90 s pot_A;
#X obj 474 820 r pot_A;
#X msg 947 55 0.5;
#X obj 610 469 > 0;
#X obj 609 492 sel 1;
#N canvas 1226 433 831 675 vca_env 0;
#N canvas 1457 716 450 300 vline 0;
#X obj 37 17 inlet;
#X obj 94 121 unpack f f f;
#X obj 94 72 t a b;
#X msg 112 96 0;
#X text 145 97 Default to zero delay if 2 args supplied;
#X obj 37 208 line~;
#X obj 37 230 outlet~;
#X obj 37 39 route stop;
#X msg 37 131 stop;
#X obj 37 61 t b b;
#X msg 50 99 clear;
#N canvas 274 138 360 214 dbl-pipe 0;
#X obj 65 42 inlet;
#X obj 125 42 inlet;
#X obj 185 42 inlet;
#X obj 65 84 pipe 0;
#X obj 125 84 pipe 0;
#X obj 65 106 outlet;
#X obj 125 106 outlet;
#X connect 0 0 3 0;
#X connect 0 0 4 0;
#X connect 1 0 4 0;
#X connect 2 0 3 1;
#X connect 2 0 4 1;
#X connect 3 0 5 0;
#X connect 4 0 6 0;
#X restore 94 149 pd dbl-pipe;
#X obj 94 173 pack f f;
#X connect 0 0 7 0;
#X connect 1 0 11 0;
#X connect 1 1 11 1;
#X connect 1 2 11 2;
#X connect 2 0 1 0;
#X connect 2 1 3 0;
#X connect 3 0 11 2;
#X connect 5 0 6 0;
#X connect 7 0 9 0;
#X connect 7 1 2 0;
#X connect 8 0 5 0;
#X connect 9 0 8 0;
#X connect 9 1 10 0;
#X connect 10 0 11 0;
#X connect 10 0 11 1;
#X connect 11 0 12 0;
#X connect 11 1 12 1;
#X connect 12 0 5 0;
#X restore 173 415 pd vline;
#N canvas 1651 646 543 498 advca 0;
#X obj 78 21 inlet;
#X obj 100 342 outlet;
#X obj 76 213 bng 15 250 50 0 empty empty empty 17 7 0 10 -262144 -1
-1;
#X obj 228 62 vsl 15 128 0 5000 0 0 empty empty empty 0 -9 0 10 -262144
-1 -1 635 1;
#X floatatom 266 233 5 0 0 0 - - -;
#X obj 215 16 inlet;
#X text 200 281 Define the envelope;
#X obj 164 62 vsl 15 128 0 15 0 0 empty empty empty 0 -9 0 10 -262144
-1 -1 1693 1;
#X obj 156 33 inlet;
#X floatatom 209 235 5 0 0 0 - - -;
#X msg 95 283 1 \$2 \, 0 \$3 \$4;
#X obj 292 46 vsl 15 128 10 30 0 0 empty empty empty 0 -9 0 10 -262144
-1 -1 635 1;
#X obj 110 245 pack f f f f;
#X obj 290 22 inlet;
#X floatatom 352 210 5 0 0 0 - - -;
#X connect 0 0 2 0;
#X connect 2 0 12 0;
#X connect 3 0 4 0;
#X connect 3 0 12 2;
#X connect 5 0 3 0;
#X connect 7 0 9 0;
#X connect 7 0 12 1;
#X connect 8 0 7 0;
#X connect 10 0 1 0;
#X connect 11 0 12 3;
#X connect 11 0 14 0;
#X connect 12 0 10 0;
#X connect 13 0 11 0;
#X restore 172 379 pd advca;
#X obj 132 304 sel 1;
#X obj 113 259 inlet;
#X floatatom 286 373 5 0 0 0 - - -;
#X obj 300 242 inlet;
#X text 307 220 Decay (Lich Pot_C);
#X obj 176 462 outlet~;
#X obj 51 340 loadbang;
#X msg 92 374 0;
#X obj 28 259 inlet;
#X text 32 236 Bang;
#X obj 195 282 inlet;
#X obj 291 291 * 5000;
#X text 184 262 Midi gate;
#X obj 247 286 * 50;
#X obj 221 319 - 0.5;
#X text 84 219 GateInput (LICH Button_2);
#X obj 365 321 + 10;
#X obj 360 287 * 20;
#X connect 0 0 7 0;
#X connect 1 0 0 0;
#X connect 2 0 1 0;
#X connect 3 0 2 0;
#X connect 5 0 13 0;
#X connect 5 0 15 0;
#X connect 5 0 19 0;
#X connect 8 0 9 0;
#X connect 9 0 0 0;
#X connect 10 0 1 0;
#X connect 12 0 1 0;
#X connect 13 0 4 0;
#X connect 13 0 1 2;
#X connect 15 0 16 0;
#X connect 16 0 1 1;
#X connect 18 0 1 3;
#X connect 19 0 18 0;
#X restore 434 126 pd vca_env;
#X obj 634 826 r pot_B;
#X obj 241 84 s pot_B;
#X connect 1 0 20 0;
#X connect 1 0 29 0;
#X connect 3 0 29 0;
#X connect 3 0 32 0;
#X connect 4 0 7 0;
#X connect 4 0 56 0;
#X connect 5 0 59 0;
#X connect 6 0 61 1;
#X connect 7 0 54 0;
#X connect 9 0 12 0;
#X connect 9 0 20 0;
#X connect 10 0 31 0;
#X connect 10 0 30 0;
#X connect 11 0 1 0;
#X connect 11 0 9 0;
#X connect 12 0 32 0;
#X connect 13 0 61 3;
#X connect 14 0 13 0;
#X connect 15 0 55 0;
#X connect 16 0 15 0;
#X connect 16 0 63 0;
#X connect 21 0 10 0;
#X connect 24 0 50 1;
#X connect 26 0 51 1;
#X connect 27 0 39 0;
#X connect 27 1 39 1;
#X connect 28 0 27 0;
#X connect 28 1 27 1;
#X connect 33 0 61 0;
#X connect 34 0 37 0;
#X connect 35 0 34 0;
#X connect 38 0 27 2;
#X connect 39 0 2 0;
#X connect 39 1 2 1;
#X connect 44 0 42 0;
#X connect 45 0 61 2;
#X connect 46 0 58 0;
#X connect 47 0 3 0;
#X connect 47 1 3 0;
#X connect 48 0 49 0;
#X connect 49 0 13 0;
#X connect 50 0 28 1;
#X connect 51 0 28 0;
#X connect 54 0 51 0;
#X connect 55 0 50 0;
#X connect 57 0 43 0;
#X connect 58 0 34 0;
#X connect 59 0 60 0;
#X connect 60 0 1 0;
#X connect 60 0 9 0;
#X connect 61 0 25 0;
#X connect 62 0 53 0;
